<svg viewBox="0 0 16 16" xmlns="http://www.w3.org/2000/svg">
<path d="M2.66742 6.66668L2.19601 7.13808L1.72461 6.66668L2.19601 6.19527L2.66742 6.66668ZM14.0007 12C14.0007 12.3682 13.7023 12.6667 13.3341 12.6667C12.9659 12.6667 12.6674 12.3682 12.6674 12H14.0007ZM5.52934 10.4714L2.19601 7.13808L3.13882 6.19527L6.47216 9.52861L5.52934 10.4714ZM2.19601 6.19527L5.52934 2.86194L6.47216 3.80475L3.13882 7.13808L2.19601 6.19527ZM2.66742 6.00001H9.33408V7.33334H2.66742V6.00001ZM14.0007 10.6667V12H12.6674V10.6667H14.0007ZM9.33408 6.00001C11.9114 6.00001 14.0007 8.08934 14.0007 10.6667H12.6674C12.6674 8.82574 11.175 7.33334 9.33408 7.33334V6.00001Z" />
</svg>
