<svg viewBox="0 0 16 16" xmlns="http://www.w3.org/2000/svg">
<path d="M13.8301 2.21895C13.5698 1.95859 13.1477 1.95859 12.8873 2.21895L8.02441 7.08187L3.16151 2.21895C2.90116 1.95859 2.47905 1.95859 2.2187 2.21895C1.95835 2.47929 1.95835 2.90141 2.2187 3.16175L7.08161 8.02467L2.21872 12.8875C1.95836 13.1479 1.95836 13.57 2.21872 13.8304C2.47906 14.0907 2.90118 14.0907 3.16152 13.8304L8.02441 8.96747L12.8873 13.8304C13.1477 14.0907 13.5698 14.0907 13.8301 13.8304C14.0905 13.57 14.0905 13.1479 13.8301 12.8876L8.96721 8.02467L13.8301 3.16175C14.0905 2.90141 14.0905 2.47929 13.8301 2.21895Z" />
</svg>
