<svg viewBox="0 0 16 16" xmlns="http://www.w3.org/2000/svg">
<mask id="mask0_12_127" style="mask-type:luminance" maskUnits="userSpaceOnUse" x="0" y="0" width="16" height="16">
<rect width="16" height="16" fill="white"/>
</mask>
<g mask="url(#mask0_12_127)">
<path d="M6.83558 3.92285L7.02118 6.68282L7.11332 8.07002C7.11432 8.21269 7.13665 8.35442 7.17978 8.49062C7.29105 8.75502 7.55878 8.92302 7.85005 8.91129L12.2882 8.62096C12.4804 8.61782 12.666 8.68969 12.8041 8.82082C12.9192 8.93009 12.9936 9.07302 13.017 9.22676L13.0249 9.32009C12.8412 11.8632 10.9734 13.9844 8.43558 14.532C5.89768 15.0795 3.29522 13.9228 2.04112 11.6899C1.67958 11.0412 1.45375 10.3282 1.3769 9.59262C1.3448 9.37489 1.33067 9.15496 1.33464 8.93496C1.33067 6.20844 3.2723 3.85126 5.9902 3.283C6.31732 3.23206 6.638 3.40524 6.76918 3.70364C6.80312 3.77275 6.82552 3.84676 6.83558 3.92285Z" />
<path d="M14.6664 6.54145L14.6617 6.56317L14.6482 6.59477L14.6501 6.68152C14.6432 6.79638 14.5988 6.90692 14.5224 6.99625C14.4427 7.08925 14.3339 7.15258 14.2141 7.17718L14.141 7.18718L9.02051 7.51898C8.85017 7.53578 8.68057 7.48085 8.55397 7.36792C8.44837 7.27372 8.3809 7.14665 8.36184 7.00972L8.01817 1.89662C8.01217 1.87934 8.01217 1.8606 8.01817 1.8433C8.02284 1.70236 8.08491 1.56914 8.19044 1.4734C8.29591 1.37766 8.43617 1.32738 8.5797 1.3338C11.6196 1.41114 14.1746 3.59711 14.6664 6.54145Z" fill="#333333"/>
</g>
</svg>
