<svg viewBox="0 0 16 16" xmlns="http://www.w3.org/2000/svg">
<path d="M14 14.6666H2C1.72667 14.6666 1.5 14.44 1.5 14.1666C1.5 13.8933 1.72667 13.6666 2 13.6666H14C14.2733 13.6666 14.5 13.8933 14.5 14.1666C14.5 14.44 14.2733 14.6666 14 14.6666Z" />
<path d="M12.6804 2.3211C11.387 1.02777 10.1204 0.994435 8.79371 2.3211L7.98704 3.12777C7.92038 3.19444 7.89371 3.3011 7.92037 3.39444C8.42704 5.1611 9.84038 6.57444 11.607 7.08109C11.6337 7.08776 11.6604 7.09442 11.687 7.09442C11.7604 7.09442 11.827 7.06775 11.8804 7.01442L12.6804 6.20777C13.3404 5.55443 13.6604 4.9211 13.6604 4.2811C13.667 3.6211 13.347 2.9811 12.6804 2.3211Z" />
<path d="M10.4075 7.68721C10.2142 7.59388 10.0275 7.50055 9.84752 7.39388C9.70085 7.30721 9.56085 7.21388 9.42085 7.11388C9.30752 7.04055 9.17418 6.93388 9.04752 6.82721C9.03418 6.82055 8.98752 6.78055 8.93418 6.72721C8.71418 6.54053 8.46752 6.30053 8.24752 6.03387C8.22752 6.02053 8.19418 5.97387 8.14752 5.91387C8.08085 5.83387 7.96752 5.70053 7.86752 5.5472C7.78752 5.4472 7.69418 5.30053 7.60752 5.15387C7.50085 4.97387 7.40752 4.79387 7.31418 4.6072C7.30005 4.57694 7.28638 4.54683 7.27318 4.51689C7.17478 4.29468 6.88498 4.22971 6.71318 4.40155L2.8942 8.22055C2.80753 8.30721 2.72753 8.47388 2.70753 8.58721L2.34753 11.1405C2.28086 11.5939 2.40753 12.0205 2.68753 12.3072C2.92753 12.5405 3.26086 12.6672 3.62086 12.6672C3.70086 12.6672 3.78086 12.6605 3.86086 12.6472L6.42086 12.2872C6.54086 12.2672 6.70752 12.1872 6.78752 12.1005L10.6017 8.28635C10.7748 8.11328 10.7095 7.81635 10.4845 7.72028C10.4591 7.70948 10.4334 7.69841 10.4075 7.68721Z" />
</svg>
