<svg width="195" height="466" viewBox="0 0 195 466" fill="none" xmlns="http://www.w3.org/2000/svg">
<g opacity="0.1">
<path d="M142.932 346.133C142.932 346.133 111.603 329.093 91.1799 324.955C70.7566 320.817 46.9253 318.845 33.9752 306.576C21.025 294.308 12.8701 275.929 12.8701 275.929C12.8701 275.929 55.0802 299.76 77.889 303.168C100.698 306.576 137.041 331.065 142.932 335.86C148.823 340.656 153.497 351.561 142.932 346.133Z" fill="url(#paint0_linear_73_178)"/>
<path d="M150.122 344.537C150.122 344.537 161.464 323.806 167.29 315.075C173.115 306.344 183.325 279.866 186.639 268.963C189.953 258.059 193.844 240.841 193.844 240.841C186.771 245.3 181.115 251.633 177.52 259.115C171.16 271.927 156.504 304.679 155.104 317.511C153.989 326.609 152.325 335.634 150.122 344.537Z" fill="url(#paint1_linear_73_178)"/>
<path d="M143.898 293.516C148.379 286.102 151.377 277.996 152.747 269.589C154.332 257.176 165.784 239.182 170.564 229.141C175.343 219.1 186.771 203.457 188.687 193.702C190.026 187.197 191.828 180.782 194.082 174.499C194.082 174.499 179.152 188.385 175.319 194.581C171.486 200.777 159.419 221.759 155.61 232.678C151.801 243.598 145.128 255.111 145.436 267.832C145.567 276.416 145.053 284.998 143.898 293.516Z" fill="url(#paint2_linear_73_178)"/>
<path d="M130.867 260.821C130.867 260.821 94.5241 239.157 83.9108 235.213C73.2975 231.27 42.5285 205.126 36.9785 194.318C31.4284 183.51 29.4566 180.272 36.9785 184.849C44.5003 189.425 59.8847 202.18 71.9829 207.098C84.0811 212.015 105.357 224.137 112.878 230.978C120.4 237.818 130.867 260.821 130.867 260.821Z" fill="url(#paint3_linear_73_178)"/>
<path d="M140.74 291.972C140.74 291.972 92.469 274.465 78.9204 272.196C65.3718 269.927 22.7109 245.797 13.6151 234.175C4.51924 222.554 1.42629 219.143 11.438 222.877C21.4497 226.611 42.7073 238.298 58.2484 241.388C73.7896 244.478 101.919 254.059 112.451 260.494C122.983 266.928 140.74 291.972 140.74 291.972Z" fill="url(#paint4_linear_73_178)"/>
<path d="M102.855 207.67C102.855 207.67 94.6764 193.6 81.8967 188.366C69.1169 183.133 45.602 173.323 33.4795 161.59C21.3569 149.857 14.8331 137.052 11.2548 133.45C7.67646 129.847 19.093 131.502 27.9293 137.393C36.7656 143.284 41.9992 148.518 53.1237 153.411C64.2482 158.303 83.8682 165.192 92.0716 176.974C100.275 188.756 102.855 207.67 102.855 207.67Z" fill="url(#paint5_linear_73_178)"/>
<path d="M84.9922 151.768C84.9922 151.768 72.8208 137.357 65.372 135.069C57.9232 132.781 38.2301 128.205 29.7103 120.999C21.1904 113.794 6.17125 98.4338 0.93762 95.4884C-4.29601 92.5429 18.9267 92.2264 31.9986 98.7502C45.0705 105.274 65.0557 116.715 71.263 122.63C77.4703 128.545 84.9922 151.768 84.9922 151.768Z" fill="url(#paint6_linear_73_178)"/>
<path d="M111.268 93.4039C111.268 93.4039 120.973 75.7462 123.339 64.2667C125.705 52.7871 133.329 33.5962 133.921 18.9181C134.512 4.24002 133.921 0.953857 133.921 0.953857C133.921 0.953857 131.861 16.2892 126.275 24.2197C120.689 32.1502 112.78 42.7754 113.13 57.4973C113.481 72.2192 106.317 89.5918 106.909 99.6036C107.5 109.615 111.268 93.4039 111.268 93.4039Z" fill="url(#paint7_linear_73_178)"/>
<path d="M110.709 138.184C114.14 132.863 116.539 126.944 117.778 120.735C119.297 111.456 119.227 98.6731 123.172 89.0974C127.118 79.5218 139.743 51.5182 141.339 43.9952C142.935 36.4721 143.422 19.3211 145.779 21.7115C148.136 24.1018 152.388 36.8435 150.745 50.8798C148.86 64.5773 145.186 77.9687 139.82 90.7117C135.99 99.4187 126.016 114.116 123.092 122.656C120.168 131.197 110.709 138.184 110.709 138.184Z" fill="url(#paint8_linear_73_178)"/>
<path d="M139.128 247.836C139.128 247.836 140.231 205.026 148.34 187.153C156.45 169.281 168.759 144.704 176.16 136.502C183.561 128.3 194.531 117.106 194.531 117.106C194.531 117.106 191.723 136.114 185.004 149.137C178.286 162.16 167.027 185.629 159.626 198.68C152.225 211.731 145.27 248.556 144.404 254.098C143.538 259.64 139.128 247.836 139.128 247.836Z" fill="url(#paint9_linear_73_178)"/>
<path d="M125.888 182.014C125.888 182.014 146.47 153.469 155.944 133.394C165.418 113.319 171.855 87.1352 172.807 76.1405C173.758 65.1458 175.644 52.5583 175.644 52.5583C170.218 58.2105 166.261 64.8564 164.039 72.0512C161.229 82.8222 151.578 102.225 145.484 114.632C139.39 127.039 129.691 143.752 126.765 158.572C124.939 166.241 124.642 174.172 125.888 182.014Z" fill="url(#paint10_linear_73_178)"/>
<path d="M144.984 465.345C144.984 465.345 143.255 430.049 144.984 408.53C146.712 387.011 144.132 341.369 138.971 318.974C133.811 296.579 128.626 273.332 128.626 273.332C128.626 273.332 122.905 261.161 122.905 239.569C122.905 217.977 110.539 200.159 105.379 182.924C100.218 165.69 94.181 137.306 94.181 137.306C94.181 137.306 75.2425 116.64 70.0819 100.282C64.9213 83.9234 55.4765 52.9112 55.4765 52.9112C55.4765 52.9112 64.0937 52.0592 76.1432 68.4173C88.1927 84.7755 94.1079 114.936 98.0514 134.726C101.995 154.517 101.922 154.59 108.811 169.219C115.7 183.849 128.285 213.182 129.21 225.207C130.135 237.232 132.033 245.776 140.626 275.912C149.219 306.048 154.404 324.987 156.132 343.073C157.861 361.16 164.75 431.753 161.293 443.802C157.836 455.852 144.984 465.345 144.984 465.345Z" fill="url(#paint11_linear_73_178)"/>
</g>
<defs>
<linearGradient id="paint0_linear_73_178" x1="93.0964" y1="297.74" x2="80.9241" y2="330.125" gradientUnits="userSpaceOnUse">
<stop offset="0.34" stop-color="#3DAE9F"/>
<stop offset="0.71" stop-color="#3DAE9F"/>
</linearGradient>
<linearGradient id="paint1_linear_73_178" x1="175.847" y1="272.392" x2="152.452" y2="286.189" gradientUnits="userSpaceOnUse">
<stop offset="0.34" stop-color="#3DAE9F"/>
<stop offset="0.71" stop-color="#3DAE9F"/>
</linearGradient>
<linearGradient id="paint2_linear_73_178" x1="173.425" y1="210.713" x2="146.573" y2="226.549" gradientUnits="userSpaceOnUse">
<stop offset="0.34" stop-color="#3DAE9F"/>
<stop offset="0.71" stop-color="#3DAE9F"/>
</linearGradient>
<linearGradient id="paint3_linear_73_178" x1="90.191" y1="206.562" x2="72.9809" y2="237.063" gradientUnits="userSpaceOnUse">
<stop offset="0.34" stop-color="#3DAE9F"/>
<stop offset="0.71" stop-color="#3DAE9F"/>
</linearGradient>
<linearGradient id="paint4_linear_73_178" x1="79.8136" y1="236.57" x2="66.2689" y2="276.893" gradientUnits="userSpaceOnUse">
<stop offset="0.34" stop-color="#3DAE9F"/>
<stop offset="0.71" stop-color="#3DAE9F"/>
</linearGradient>
<linearGradient id="paint5_linear_73_178" x1="64.8728" y1="154.715" x2="47.7006" y2="183.833" gradientUnits="userSpaceOnUse">
<stop offset="0.34" stop-color="#3DAE9F"/>
<stop offset="0.71" stop-color="#3DAE9F"/>
</linearGradient>
<linearGradient id="paint6_linear_73_178" x1="50.0823" y1="111.216" x2="38.187" y2="135.424" gradientUnits="userSpaceOnUse">
<stop offset="0.34" stop-color="#3DAE9F"/>
<stop offset="0.71" stop-color="#3DAE9F"/>
</linearGradient>
<linearGradient id="paint7_linear_73_178" x1="122.942" y1="31.9634" x2="105.673" y2="38.436" gradientUnits="userSpaceOnUse">
<stop offset="0.34" stop-color="#3DAE9F"/>
<stop offset="0.71" stop-color="#3DAE9F"/>
</linearGradient>
<linearGradient id="paint8_linear_73_178" x1="138.167" y1="57.4367" x2="119.175" y2="60.9886" gradientUnits="userSpaceOnUse">
<stop offset="0.34" stop-color="#3DAE9F"/>
<stop offset="0.71" stop-color="#3DAE9F"/>
</linearGradient>
<linearGradient id="paint9_linear_73_178" x1="171.726" y1="159.239" x2="141.299" y2="176.266" gradientUnits="userSpaceOnUse">
<stop offset="0.34" stop-color="#3DAE9F"/>
<stop offset="0.71" stop-color="#3DAE9F"/>
</linearGradient>
<linearGradient id="paint10_linear_73_178" x1="155.956" y1="91.4005" x2="132.183" y2="97.2466" gradientUnits="userSpaceOnUse">
<stop offset="0.34" stop-color="#3DAE9F"/>
<stop offset="0.71" stop-color="#3DAE9F"/>
</linearGradient>
<linearGradient id="paint11_linear_73_178" x1="118.299" y1="178.398" x2="50.2217" y2="203.048" gradientUnits="userSpaceOnUse">
<stop offset="0.34" stop-color="#3DAE9F"/>
<stop offset="0.71" stop-color="#3DAE9F"/>
</linearGradient>
</defs>
</svg>
