<svg width="340" height="387" viewBox="0 0 340 387" fill="none" xmlns="http://www.w3.org/2000/svg">
<g opacity="0.1">
<path d="M66.7128 349.894C66.7128 349.894 55.3984 316.073 43.2724 299.126C31.1464 282.179 15.0499 264.496 13.9337 246.692C12.8176 228.888 19.3747 209.88 19.3747 209.88C19.3747 209.88 34.0239 256.087 48.3933 274.125C62.7628 292.163 72.6706 334.852 73.7136 342.376C74.7565 349.9 70.7448 361.066 66.7128 349.894Z" fill="url(#paint0_linear_73_178)"/>
<path d="M73.0618 353.625C73.0618 353.625 95.4903 346.183 105.704 343.764C115.917 341.344 141.433 328.926 151.289 323.205C161.145 317.484 175.727 307.534 175.727 307.534C167.512 305.978 159.056 306.757 151.327 309.783C137.941 314.825 104.895 328.805 95.1252 337.242C88.109 343.14 80.7414 348.611 73.0618 353.625Z" fill="url(#paint1_linear_73_178)"/>
<path d="M103.278 312.046C111.61 309.674 119.328 305.785 126.06 300.567C135.68 292.562 156.323 287.198 166.664 283.108C177.004 279.017 196.028 275.357 204.079 269.524C209.491 265.676 215.182 262.21 221.113 259.147C221.113 259.147 200.724 259.135 193.697 261.057C186.669 262.979 163.539 270.11 153.31 275.505C143.08 280.9 130.352 284.779 121.907 294.298C116.153 300.669 109.928 306.6 103.278 312.046Z" fill="url(#paint2_linear_73_178)"/>
<path d="M116.022 279.238C116.022 279.238 104.19 238.616 99.1108 228.497C94.0312 218.378 89.3309 178.277 92.6349 166.585C95.9389 154.893 96.7023 151.18 99.0881 159.655C101.474 168.13 104.04 187.949 109.542 199.793C115.045 211.636 122.353 235.007 123.196 245.139C124.039 255.271 116.022 279.238 116.022 279.238Z" fill="url(#paint3_linear_73_178)"/>
<path d="M102.017 308.762C102.017 308.762 78.6221 263.054 70.2533 252.16C61.8845 241.266 47.1095 194.533 48.373 179.83C49.6365 165.126 49.697 160.522 54.4793 170.078C59.2615 179.633 66.8532 202.673 76.1207 215.526C85.3882 228.378 99.4446 254.56 102.767 266.446C106.089 278.333 102.017 308.762 102.017 308.762Z" fill="url(#paint4_linear_73_178)"/>
<path d="M131.745 221.251C131.745 221.251 135.348 205.38 129.562 192.841C123.777 180.301 113.253 157.097 112.378 140.249C111.503 123.401 115.454 109.584 115.291 104.509C115.127 99.4341 122.354 108.426 124.806 118.759C127.258 129.092 127.521 136.489 132.328 147.651C137.135 158.813 146.798 177.225 144.772 191.438C142.747 205.65 131.745 221.251 131.745 221.251Z" fill="url(#paint5_linear_73_178)"/>
<path d="M156.769 168.167C156.769 168.167 157.683 149.326 153.791 142.575C149.899 135.824 138.606 119.054 137.282 107.975C135.957 96.8955 135.434 75.4192 133.611 69.697C131.788 63.9747 148.999 79.5693 154.119 93.252C159.239 106.935 166.068 128.927 166.579 137.486C167.091 146.046 156.769 168.167 156.769 168.167Z" fill="url(#paint6_linear_73_178)"/>
<path d="M215.773 143.361C215.773 143.361 234.909 137.052 244.463 130.264C254.018 123.475 272.676 114.627 283.112 104.288C293.548 93.9494 295.354 91.1414 295.354 91.1414C295.354 91.1414 283.396 100.961 273.904 102.957C264.411 104.954 251.382 107.34 241.605 118.352C231.829 129.365 214.747 137.197 208.357 144.927C201.967 152.657 215.773 143.361 215.773 143.361Z" fill="url(#paint7_linear_73_178)"/>
<path d="M184.846 175.751C190.983 174.196 196.772 171.498 201.91 167.799C209.346 162.044 218.006 152.641 227.419 148.322C236.833 144.003 265.156 132.114 271.451 127.696C277.746 123.278 289.791 111.059 289.887 114.414C289.982 117.769 284.411 129.992 273.643 139.145C262.928 147.884 251.114 155.18 238.503 160.849C229.766 164.61 212.45 168.569 204.49 172.826C196.53 177.083 184.846 175.751 184.846 175.751Z" fill="url(#paint8_linear_73_178)"/>
<path d="M130.918 275.365C130.918 275.365 160.899 244.787 179.014 237.234C197.128 229.682 222.886 220.084 233.892 219.125C244.897 218.167 260.555 217.451 260.555 217.451C260.555 217.451 245.546 229.448 231.753 234.399C217.961 239.351 193.728 248.854 179.417 253.361C165.107 257.868 134.921 280.077 130.51 283.543C126.1 287.008 130.918 275.365 130.918 275.365Z" fill="url(#paint9_linear_73_178)"/>
<path d="M166.084 218.171C166.084 218.171 200.599 211.308 221.214 203.073C241.829 194.838 264.383 180.063 272.573 172.665C280.762 165.267 290.72 157.341 290.72 157.341C282.897 157.779 275.472 159.947 268.943 163.698C259.546 169.665 239.261 177.287 226.346 182.214C213.43 187.141 194.943 192.762 182.702 201.613C176.139 205.981 170.517 211.582 166.084 218.171Z" fill="url(#paint10_linear_73_178)"/>
<path d="M-13.0306 438.533C-13.0306 438.533 9.75915 411.524 25.6889 396.954C41.6187 382.384 70.8355 347.224 82.321 327.318C93.8066 307.412 105.855 286.865 105.855 286.865C105.855 286.865 109.963 274.06 124.678 258.259C139.393 242.457 142.486 220.99 150.455 204.86C158.424 188.731 173.349 163.845 173.349 163.845C173.349 163.845 173.574 135.814 180.945 120.326C188.317 104.838 202.539 75.706 202.539 75.706C202.539 75.706 209.426 80.9551 207.096 101.138C204.766 121.321 188.541 147.424 177.94 164.595C167.339 181.765 167.236 181.769 162.307 197.17C157.378 212.571 146.598 242.614 139.08 252.045C131.561 261.475 127.128 269.022 112.879 296.932C98.6297 324.842 89.5176 342.235 78.4565 356.649C67.3954 371.063 24.3277 427.419 13.5864 433.882C2.84502 440.344 -13.0306 438.533 -13.0306 438.533Z" fill="url(#paint11_linear_73_178)"/>
</g>
<defs>
<linearGradient id="paint0_linear_73_178" x1="63.2217" y1="280.516" x2="32.2433" y2="295.921" gradientUnits="userSpaceOnUse">
<stop offset="0.34" stop-color="#3DAE9F"/>
<stop offset="0.71" stop-color="#3DAE9F"/>
</linearGradient>
<linearGradient id="paint1_linear_73_178" x1="141.054" y1="318.36" x2="114.531" y2="312.513" gradientUnits="userSpaceOnUse">
<stop offset="0.34" stop-color="#3DAE9F"/>
<stop offset="0.71" stop-color="#3DAE9F"/>
</linearGradient>
<linearGradient id="paint2_linear_73_178" x1="181.317" y1="271.571" x2="150.873" y2="264.861" gradientUnits="userSpaceOnUse">
<stop offset="0.34" stop-color="#3DAE9F"/>
<stop offset="0.71" stop-color="#3DAE9F"/>
</linearGradient>
<linearGradient id="paint3_linear_73_178" x1="123.232" y1="211.81" x2="89.8513" y2="222.402" gradientUnits="userSpaceOnUse">
<stop offset="0.34" stop-color="#3DAE9F"/>
<stop offset="0.71" stop-color="#3DAE9F"/>
</linearGradient>
<linearGradient id="paint4_linear_73_178" x1="95.1861" y1="226.697" x2="57.794" y2="246.975" gradientUnits="userSpaceOnUse">
<stop offset="0.34" stop-color="#3DAE9F"/>
<stop offset="0.71" stop-color="#3DAE9F"/>
</linearGradient>
<linearGradient id="paint5_linear_73_178" x1="140.038" y1="156.612" x2="107.627" y2="166.218" gradientUnits="userSpaceOnUse">
<stop offset="0.34" stop-color="#3DAE9F"/>
<stop offset="0.71" stop-color="#3DAE9F"/>
</linearGradient>
<linearGradient id="paint6_linear_73_178" x1="158.858" y1="114.698" x2="133.654" y2="124.308" gradientUnits="userSpaceOnUse">
<stop offset="0.34" stop-color="#3DAE9F"/>
<stop offset="0.71" stop-color="#3DAE9F"/>
</linearGradient>
<linearGradient id="paint7_linear_73_178" x1="266.187" y1="106.353" x2="249.138" y2="99.3208" gradientUnits="userSpaceOnUse">
<stop offset="0.34" stop-color="#3DAE9F"/>
<stop offset="0.71" stop-color="#3DAE9F"/>
</linearGradient>
<linearGradient id="paint8_linear_73_178" x1="259.97" y1="135.371" x2="243.65" y2="125.027" gradientUnits="userSpaceOnUse">
<stop offset="0.34" stop-color="#3DAE9F"/>
<stop offset="0.71" stop-color="#3DAE9F"/>
</linearGradient>
<linearGradient id="paint9_linear_73_178" x1="215.152" y1="232.743" x2="181.281" y2="224.468" gradientUnits="userSpaceOnUse">
<stop offset="0.34" stop-color="#3DAE9F"/>
<stop offset="0.71" stop-color="#3DAE9F"/>
</linearGradient>
<linearGradient id="paint10_linear_73_178" x1="249.841" y1="172.349" x2="228.46" y2="160.426" gradientUnits="userSpaceOnUse">
<stop offset="0.34" stop-color="#3DAE9F"/>
<stop offset="0.71" stop-color="#3DAE9F"/>
</linearGradient>
<linearGradient id="paint11_linear_73_178" x1="162.996" y1="210.353" x2="96.3756" y2="181.998" gradientUnits="userSpaceOnUse">
<stop offset="0.34" stop-color="#3DAE9F"/>
<stop offset="0.71" stop-color="#3DAE9F"/>
</linearGradient>
</defs>
</svg>
