<svg viewBox="0 0 230 145" fill="none" xmlns="http://www.w3.org/2000/svg">
<path d="M164.507 54.6625C171.53 42.3425 166.891 26.0725 153.991 17.8425C141.091 9.61252 121.357 10.3125 109.318 19.4325C109.271 13.7025 105.329 8.29252 99.8286 4.94252C94.3404 1.60252 87.4594 0.152519 80.6965 0.0125195C67.749 -0.267481 54.7425 4.16252 45.6308 11.9625C36.5074 19.7625 31.5384 34.9525 31.9869 45.9225C24.7637 44.9625 14.2358 50.8525 9.77435 55.7525C-1.93388 68.5825 -3.26758 87.5525 6.55223 101.473C16.372 115.393 36.7198 123.383 55.6041 120.723C60.9507 133.513 75.5387 143.163 91.4841 144.463C107.43 145.763 123.918 138.653 132.05 126.953C133.749 124.513 135.201 121.803 137.916 120.143C141.02 118.243 145.092 118.103 148.869 117.583C164.956 115.363 178.777 104.173 182.14 90.6625C185.492 77.1525 178.163 62.1925 164.507 54.6625Z" fill="white"/>
<path d="M193.792 60.621C199.205 60.621 203.592 56.2334 203.592 50.821C203.592 45.4086 199.205 41.021 193.792 41.021C188.38 41.021 183.992 45.4086 183.992 50.821C183.992 56.2334 188.38 60.621 193.792 60.621Z" fill="white"/>
<path d="M223 48C226.866 48 230 44.866 230 41C230 37.134 226.866 34 223 34C219.134 34 216 37.134 216 41C216 44.866 219.134 48 223 48Z" fill="white"/>
<path d="M73.668 76.3333L87.7603 87.607C89.1866 88.7483 91.2656 88.5287 92.4223 87.115L120.335 53" stroke="#3EB1A1" stroke-width="6.66667" stroke-linecap="round"/>
<path fill-rule="evenodd" clip-rule="evenodd" d="M84.2962 73.7894L99.5789 55.111C100.745 53.6861 100.535 51.5861 99.1096 50.4203C97.6849 49.2546 95.5849 49.4646 94.4189 50.8894L79.1747 69.5214L84.2962 73.7894ZM73.742 86.6894L68.6203 82.4211L66.4425 85.0827L55.6656 77.0001C54.1928 75.8957 52.1035 76.1941 50.9989 77.6667C49.8943 79.1397 50.1928 81.2291 51.6656 82.3334L62.4425 90.4161C65.3005 92.5597 69.34 92.0694 71.6022 89.3044L73.742 86.6894Z" fill="#3EB1A1"/>
</svg>
