<svg viewBox="0 0 208 189" fill="none" xmlns="http://www.w3.org/2000/svg">
<path d="M73.3157 67.5238C74.2704 69.7513 74.282 71.9867 73.4899 73.6451C72.4448 76.019 69.8844 77.7608 66.1961 79.0137C67.079 81.7085 67.7599 84.2094 68.3525 86.3862C68.5039 86.9419 68.1668 87.5312 67.5647 87.6951C66.9163 87.8716 66.4197 87.5094 66.2684 86.9536C65.6758 84.7768 64.9948 82.2759 64.1961 79.7075C60.8447 80.3712 55.4645 80.3437 53.2561 76.0697C52.4569 74.5959 51.7886 72.1412 52.8 69.8262C53.7902 67.6165 56.0897 65.6472 59.9718 64.1923C69.1718 60.8915 72.3736 65.3427 73.3157 67.5238ZM55.5927 75.8812C57.1999 78.13 60.7319 78.3126 63.6917 77.855C62.2243 73.3792 59.8445 66.4656 59.8445 66.4656C57.5119 67.3992 55.4316 68.7118 54.6984 70.4038C54.1336 71.8012 54.1412 73.8388 55.5927 75.8812ZM71.6504 73.1012C72.2908 71.9817 72.2452 70.3524 71.5344 68.6555C70.5293 66.2428 68.1054 63.9179 62.8256 65.3554C62.5014 65.4437 62.1898 65.5783 61.8193 65.6792C62.2609 66.7529 64.2622 72.8244 65.7295 77.3001C68.8747 76.2448 70.753 74.7385 71.6504 73.1012ZM86.7449 82.1745C84.3492 82.8766 81.7311 81.8482 80.5909 80.2185C78.4451 77.2707 78.602 74.7406 79.011 73.1368C79.5086 71.3099 80.9448 69.8245 82.7428 68.937C85.4882 67.692 88.4305 68.6321 89.8485 70.1861C90.648 71.1127 90.8328 72.1568 90.4535 72.9565C89.7751 74.4844 85.1767 77.3283 82.3387 78.5985C82.7844 79.87 84.5776 80.4265 85.3101 80.3763C87.0067 80.2128 88.6069 79.3295 89.8874 77.6376C90.216 77.2 90.8855 76.9182 91.4621 77.2089C91.9461 77.5249 92.1141 78.3248 91.7393 78.7751C90.425 80.5258 88.6312 81.6112 86.7449 82.1745ZM83.504 70.8191C82.3165 71.3911 81.3941 72.3885 81.0695 73.5713C80.867 74.4721 80.9507 75.693 81.3459 76.7794C83.5901 76.0689 87.2833 73.3719 88.1679 72.2356C88.2816 72.1052 88.2523 71.8147 88.1092 71.6546C87.9072 71.4609 87.6337 71.1871 87.2801 70.9849C86.148 70.2982 84.8303 70.2092 83.504 70.8191ZM103.467 77.7709C103.168 77.9518 102.115 78.2882 100.966 78.4519C99.1894 78.6868 97.4214 78.223 96.1632 77.0732C94.1811 75.2747 92.8394 72.3567 92.7816 69.5865C92.6689 67.5279 93.3517 65.6505 94.4804 64.4975C96.3167 62.6544 99.0534 62.1083 101.011 62.1723C101.142 61.7387 101.411 61.2673 102.064 61.2886C102.506 61.2678 103.049 61.6174 103.2 62.1732C103.238 62.3122 106.218 72.3456 106.408 73.0403L106.559 73.0488C106.614 72.8846 106.761 72.6952 106.816 72.5311C107.018 72.1775 107.583 71.8747 108.172 72.2117C108.715 72.5614 108.647 73.2265 108.516 73.6601C108.462 73.8242 107.712 75.2721 107.543 75.5667C108.077 77.1625 108.594 78.5141 108.927 79.3688C111.685 86.03 111.351 90.1009 109.544 92.2345C108.921 93.0509 107.784 93.8082 106.533 94.1487C105.746 94.363 104.933 94.4848 104.15 94.3497C102.479 94.0585 100.56 93.0389 99.8961 89.6876C99.3333 86.7067 100.652 84.0593 101.95 80.9698C102.397 80.0522 103.079 78.7222 103.585 77.8383L103.467 77.7709ZM102.12 76.2969C103.371 75.9564 104.487 75.3044 104.803 74.8204C103.571 71.0267 102.091 66.5047 101.473 64.2353C100.421 64.0244 97.7011 64.2674 96.1174 65.9422C95.1487 66.9522 94.9123 68.4592 94.9582 69.5412C95.0625 71.7514 96.2781 74.2063 97.7846 75.5373C98.9124 76.5734 100.87 76.6374 102.12 76.2969ZM107.654 90.9581C108.859 89.5357 109.315 86.2774 107.04 80.4794C106.805 79.7973 106.262 78.3531 105.917 77.452L105.732 77.5025C105.197 78.6431 104.506 80.1247 104.084 81.1349C102.34 85.1419 101.914 87.5961 102.216 89.2549C102.417 90.5433 103.2 91.7729 104.64 92.1271C105.81 92.4055 107.018 91.7282 107.654 90.9581ZM119.849 57.6404C121.401 60.0533 124.903 70.5417 125.319 72.07C125.496 72.7184 125.138 73.4129 124.582 73.5642C124.026 73.7155 123.332 73.3574 123.143 72.6627C122.991 72.1069 122.285 70.0606 121.246 67.1596C120.122 67.9632 117.693 68.7241 115.924 68.8075C114.74 71.2193 114.378 72.8105 114.276 75.1764C114.242 75.7826 113.825 76.4434 113.113 76.3883C112.355 76.3459 112.145 75.7564 112.12 75.1165C112.159 72.519 113.07 69.8335 113.685 68.6213C111.454 68.2836 109.703 66.9694 109.114 64.9905C108.454 62.9315 108.779 61.2014 109.946 59.6401C111.395 57.6536 116.018 56.5442 118.001 56.7008C118.91 56.7517 119.403 56.9161 119.849 57.6404ZM113.164 66.5246C115.256 67.4475 119.011 66.6239 120.628 65.4374C119.728 63.0458 118.673 60.4479 118.025 58.9826C117.916 58.7636 117.726 58.6162 117.516 58.574C116.863 58.5527 115.866 58.7249 114.522 59.0905C113.133 59.4688 112.122 60.142 111.566 60.8406C110.829 61.7875 110.622 63.0377 111.055 64.263C111.51 65.383 112.082 66.0232 113.164 66.5246ZM51.66 132.238C47.6357 131.344 44.505 128.067 43.2726 125.368C41.3926 121.204 40.7427 115.162 45.1061 110.541C46.9172 108.606 49.9739 107.773 53.085 107.872C56.558 108.02 59.5505 109.693 61.0021 111.736C64.6413 117.063 65.3871 125.466 58.9732 130.595C57.1876 132.076 53.6847 132.731 51.66 132.238ZM49.535 110.181C48.5161 110.459 47.2402 111.254 46.6927 111.801C43.8413 114.667 43.2161 119.861 45.3485 124.405C46.3495 126.62 48.9373 129.547 52.2123 130.247C54.1781 130.706 55.8706 130.345 57.3151 129.255C63.1225 124.64 62.1826 117.533 59.0019 112.977C57.9458 111.473 55.3784 110.083 52.6252 109.837C51.9138 109.782 50.7855 109.841 49.535 110.181ZM75.0931 109.292C75.5562 109.166 76.2129 109.385 76.3894 110.033C76.5785 110.728 76.2037 111.178 75.6479 111.33C74.7468 111.675 73.3237 112.112 71.6353 112.671C72.4719 115.378 74.3634 122.325 75.2334 125.521C75.3847 126.077 75.0477 126.666 74.3993 126.843C73.7972 127.007 73.208 126.67 73.0567 126.114C72.2875 123.289 70.333 116.11 69.4964 113.403C67.9469 113.924 65.9258 114.723 65.6016 114.811C65.0459 114.963 64.4566 114.625 64.3431 114.209C64.217 113.746 64.4025 113.148 64.9331 112.904C68.3521 111.575 73.3794 109.759 75.0931 109.292ZM86.6711 122.805C84.112 121.81 82.56 118.303 81.534 115.448C80.8655 113.541 77.4345 103.68 77.7351 99.6678C78.0483 95.7023 80.0568 94.857 81.4504 94.6765C84.469 94.2526 85.7474 97.4864 85.9107 99.7303C86.1032 102.265 85.8828 105.658 85.5194 108.891C85.4263 110.011 85.1392 111.88 85.0379 112.604L85.1557 112.671C85.6865 111.88 87.83 110.252 90.3768 110.653C92.6795 111.07 95.2336 114.056 95.4596 117.079C95.5976 119.23 94.6117 121.091 92.4558 122.125C90.1272 123.257 87.7866 123.248 86.6711 122.805ZM84.1439 116.081C84.56 117.609 85.8008 120.157 87.1983 120.721C88.2422 121.084 89.4924 121.291 91.3493 120.437C92.7557 119.755 93.4972 118.459 93.342 117.158C93.1829 115.112 91.584 113.259 90.1065 112.766C88.1492 112.155 85.1087 114.326 84.1439 116.081ZM81.6725 96.9542C80.6031 97.0463 80.0217 98.1996 79.9621 99.8077C79.8637 103.466 82.508 111.9 82.979 113.264L83.1305 113.272C83.2236 112.153 83.3465 110.229 83.4648 109.201C83.6767 105.96 83.796 102.744 83.5571 100.222C83.4945 98.8957 83.0323 96.8327 81.6725 96.9542ZM105.349 118.565C102.953 119.267 100.335 118.239 99.1949 116.609C97.0491 113.662 97.206 111.131 97.615 109.528C98.1126 107.701 99.5488 106.215 101.347 105.328C104.092 104.083 107.034 105.023 108.453 106.577C109.252 107.503 109.437 108.548 109.058 109.347C108.379 110.875 103.781 113.719 100.943 114.989C101.388 116.261 103.182 116.817 103.914 116.767C105.611 116.604 107.211 115.72 108.491 114.028C108.82 113.591 109.489 113.309 110.066 113.6C110.55 113.916 110.718 114.716 110.343 115.166C109.029 116.917 107.235 118.002 105.349 118.565ZM102.108 107.21C100.921 107.782 99.9981 108.779 99.6735 109.962C99.471 110.863 99.5547 112.084 99.9499 113.17C102.194 112.46 105.887 109.763 106.772 108.626C106.886 108.496 106.856 108.206 106.713 108.045C106.511 107.852 106.238 107.578 105.884 107.376C104.752 106.689 103.434 106.6 102.108 107.21ZM120.096 97.0393C120.559 96.9132 121.215 97.1324 121.392 97.7808C121.581 98.4756 121.206 98.9258 120.65 99.0772C119.749 99.422 118.326 99.8592 116.638 100.418C117.474 103.126 119.366 110.073 120.236 113.268C120.387 113.824 120.05 114.413 119.402 114.59C118.8 114.754 118.21 114.417 118.059 113.861C117.29 111.036 115.335 103.857 114.499 101.15C112.949 101.671 110.928 102.47 110.604 102.559C110.048 102.71 109.459 102.373 109.346 101.956C109.22 101.493 109.405 100.895 109.936 100.651C113.355 99.3224 118.382 97.5059 120.096 97.0393ZM127.255 96.3337C129.256 94.5454 130.868 94.2556 132.674 94.3111C134.876 94.3584 137.115 95.6391 138.099 97.0625C140.599 100.76 141.131 106.187 136.49 109.788C135.871 110.255 135.201 110.537 134.553 110.714C133.627 110.966 132.637 110.986 131.724 110.738C129.102 110.059 126.964 108.054 126.11 106.197C124.369 102.542 125.221 98.181 127.255 96.3337ZM128.922 97.5216C127.519 98.9482 126.764 102.387 128.127 105.2C128.783 106.514 130.252 108.253 132.217 108.713C133.388 108.991 134.314 108.739 135.152 108.163C139.431 105.058 137.702 100.354 136.272 98.2068C135.611 97.2424 134.197 96.4335 132.61 96.2687C131.175 96.1123 129.516 96.962 128.922 97.5216ZM147.956 106.119C145.397 105.125 143.845 101.617 142.819 98.7624C142.15 96.855 138.719 86.994 139.02 82.9821C139.333 79.0166 141.342 78.1713 142.735 77.9908C145.754 77.5669 147.032 80.8007 147.195 83.0446C147.388 85.579 147.168 88.9721 146.804 92.2051C146.711 93.3249 146.424 95.194 146.323 95.918L146.44 95.9854C146.971 95.1942 149.115 93.5659 151.662 93.967C153.964 94.3847 156.518 97.3706 156.744 100.393C156.882 102.545 155.896 104.405 153.741 105.44C151.412 106.571 149.071 106.562 147.956 106.119ZM145.429 99.395C145.845 100.923 147.086 103.471 148.483 104.036C149.527 104.398 150.777 104.605 152.634 103.751C154.04 103.07 154.782 101.773 154.627 100.472C154.468 98.4264 152.869 96.5734 151.391 96.0802C149.434 95.4689 146.393 97.6399 145.429 99.395ZM142.957 80.2685C141.888 80.3606 141.306 81.5139 141.247 83.122C141.148 86.7804 143.793 95.2139 144.264 96.5781L144.415 96.5866C144.508 95.4668 144.631 93.5429 144.75 92.5158C144.962 89.2743 145.081 86.058 144.842 83.5361C144.779 82.21 144.317 80.147 142.957 80.2685Z" fill="#333333"/>
<path d="M191.281 96.3971C191.543 95.9079 192.6 90.8561 192.946 88.3909C193.347 85.5313 193.395 84.0136 193.132 83.4769C192.869 82.924 192.418 82.7577 191.965 83.0476C191.792 83.1565 191.648 83.1821 191.643 83.1173C191.639 83.0524 191.508 83.2889 191.335 83.6421C191.179 83.9942 191.091 84.3907 191.148 84.5173C191.205 84.6439 191.175 84.6947 191.091 84.6513C190.991 84.6089 190.927 84.6293 190.933 84.7266C190.938 84.8077 190.903 85.0217 190.865 85.187C190.8 85.4355 190.817 85.4507 190.966 85.2294C191.114 85.0081 191.132 85.0232 191.066 85.2717C191.028 85.4371 190.994 85.6673 191 85.7646C191.009 85.8943 190.96 85.8974 190.853 85.7578C190.764 85.6333 190.608 85.9854 190.433 86.811C190.266 87.5058 190.174 88.098 190.21 88.1445C190.261 88.1738 190.394 87.7255 190.519 87.1311C190.627 86.5379 190.76 86.0733 190.811 86.1026C190.846 86.1491 190.754 86.7413 190.604 87.4351C190.353 88.5913 190.308 88.6593 190.107 88.3141C189.981 88.1268 189.752 87.3599 189.608 86.6526C189.002 83.8256 187.488 79.5591 186.184 77.0216C184.227 73.2071 181.087 69.7299 178.41 68.3723C177.298 67.8091 174.866 67.2174 173.61 67.1847C172.517 67.1577 172.434 67.1305 171.454 66.3308C168.499 63.949 164.932 63.9518 161.453 66.3104C160.565 66.9216 157.877 69.685 157.896 69.9769C157.901 70.058 157.984 70.0689 158.093 69.9967C158.202 69.9245 158.219 69.9397 158.163 70.0736C158.104 70.1751 157.994 70.2311 157.894 70.1888C157.724 70.0857 156.846 71.6083 156.427 72.6939C156.052 73.6953 156.167 74.9582 156.648 75.3504C156.87 75.5152 157.208 75.705 157.406 75.7411C157.721 75.8184 157.828 75.7138 158.153 74.9436C159.61 71.5434 162.646 68.3829 165.569 67.2491C167.253 66.5865 168.389 66.5292 169.089 67.0376C169.38 67.2468 169.624 67.4916 169.628 67.5564C169.633 67.6375 169.199 67.9751 168.65 68.3037C167.209 69.1787 165.452 71.2304 165.092 72.4588C164.931 72.9904 164.811 73.6496 164.829 73.9253C164.935 75.5632 166.993 77.1725 168.826 77.0539C171.08 76.908 173.391 73.8597 173.432 70.9745L173.44 69.834L174.753 69.749C175.889 69.6917 176.202 69.7366 177.172 70.1298C178.795 70.8065 180.354 72.497 182.077 75.4634C183.451 77.8173 185.097 82.1241 185.739 84.9977C186.332 87.6138 186.481 88.4022 186.497 88.906C186.5 89.1989 186.59 89.584 186.698 89.7398C186.789 89.8968 186.839 90.1542 186.798 90.287C186.731 90.5031 186.513 90.4032 185.742 89.818C184.235 88.6778 183.733 88.4661 182.695 88.5332C181.138 88.634 181.169 88.86 182.945 90.6342C183.797 91.4747 184.987 92.7494 185.602 93.4424C188.116 96.3088 188.577 96.6372 190.198 96.7604C190.982 96.8073 191.062 96.7858 191.281 96.3971ZM192.655 85.4132C192.695 85.2803 192.747 85.3258 192.759 85.5042C192.786 85.6815 192.744 85.782 192.691 85.7203C192.639 85.6748 192.614 85.5299 192.655 85.4132ZM171.225 74.6187C171.549 74.0928 171.963 73.6915 171.762 74.1116C171.618 74.3978 171.062 75.1178 170.981 75.1231C170.932 75.1262 171.048 74.907 171.225 74.6187ZM168.46 73.4134C168.847 72.6066 169.783 71.4549 170.042 71.4382C170.496 71.4088 169.387 73.6465 168.645 74.2645C168.043 74.7758 167.969 74.3897 168.46 73.4134ZM169.526 73.5236C169.523 73.4911 169.645 73.353 169.783 73.23C170.029 73.0024 170.047 73.0176 169.853 73.2907C169.658 73.5638 169.534 73.6533 169.526 73.5236ZM168.16 72.0485C168.262 71.8628 168.445 71.6718 168.588 71.6137C168.713 71.5404 168.658 71.6906 168.462 71.9313C168.024 72.4645 167.912 72.5043 168.16 72.0485ZM165.952 71.1492C165.95 71.1167 166.071 70.9786 166.21 70.8556C166.456 70.628 166.473 70.6432 166.279 70.9163C166.085 71.1894 165.96 71.2789 165.952 71.1492ZM159.445 71.2609C159.443 71.2285 159.671 70.9857 159.929 70.6921L160.434 70.1872L159.998 70.7528C159.576 71.2687 159.453 71.3906 159.445 71.2609Z" fill="#3EB0A1"/>
</svg>
