<svg viewBox="0 0 183 167" fill="none" xmlns="http://www.w3.org/2000/svg">
<path d="M48.098 59.5825C49.0527 61.8099 49.0644 64.0453 48.2722 65.7037C47.2271 68.0776 44.6668 69.8194 40.9784 71.0724C41.8613 73.7671 42.5422 76.268 43.1349 78.4448C43.2862 79.0006 42.9491 79.5898 42.3471 79.7537C41.6987 79.9303 41.202 79.568 41.0507 79.0122C40.4581 76.8355 39.7771 74.3345 38.9784 71.7661C35.627 72.4299 30.2468 72.4023 28.0385 68.1283C27.2392 66.6545 26.5709 64.1999 27.5823 61.8849C28.5725 59.6751 30.872 57.7059 34.7541 56.2509C43.9541 52.9501 47.1559 57.4013 48.098 59.5825ZM30.375 67.9399C31.9822 70.1886 35.5142 70.3712 38.474 69.9136C37.0067 65.4378 34.6268 58.5242 34.6268 58.5242C32.2942 59.4578 30.2139 60.7704 29.4807 62.4624C28.916 63.8599 28.9235 65.8974 30.375 67.9399ZM46.4327 65.1598C47.0731 64.0403 47.0275 62.411 46.3167 60.7141C45.3116 58.3015 42.8877 55.9766 37.6079 57.4141C37.2837 57.5023 36.9721 57.6369 36.6016 57.7378C37.0432 58.8115 39.0445 64.883 40.5118 69.3587C43.657 68.3034 45.5353 66.7971 46.4327 65.1598ZM62.6803 84.8636C62.0235 85.1917 61.489 84.6905 61.3292 84.2863C59.9832 81.7177 58.5491 78.2776 57.1276 74.8838C55.378 70.8331 53.7 66.8625 52.6566 65.4054C52.3452 64.9927 52.2613 64.3191 52.6825 63.8562C52.9563 63.5827 53.4657 63.444 53.853 63.5873C54.1224 63.6632 54.3033 63.9622 54.3033 63.9622C54.6951 63.2088 55.8617 62.1947 56.6449 61.7824C57.5418 61.2398 58.7123 60.9708 59.7816 60.8787C61.6635 60.6648 64.2397 61.3563 65.4133 63.4744C66.2252 64.9945 66.4854 66.8638 65.7859 68.4969C64.5975 71.2581 61.3929 73.3743 59.0772 74.0048C60.406 77.4238 61.8908 80.5018 63.2199 83.3735C63.5227 83.9378 63.3035 84.5944 62.6803 84.8636ZM58.3075 72.2742C60.1137 71.7824 62.7541 69.9691 63.6181 67.8435C64.0606 66.728 63.9769 65.5071 63.3753 64.5765C62.5465 63.3595 60.989 62.9378 59.6502 62.9541C57.5916 63.0669 55.8229 64.2449 55.174 65.516C56.0111 67.1287 57.2015 69.491 58.3075 72.2742ZM77.7133 57.8371C79.7837 59.9598 81.654 67.0122 78.9584 70.0842C78.1834 70.8922 76.7644 71.5273 75.4213 71.8929C73.9393 72.2965 72.4868 72.4432 71.6112 72.3333C71.085 72.2279 70.6095 71.7604 70.7149 71.2342C70.7741 70.7206 71.4058 70.2999 71.932 70.4054C73.4727 70.5828 76.3609 70.0452 77.3044 68.9426C78.2016 67.8527 78.2025 65.6635 77.8118 63.6805C77.4876 63.7688 72.5405 64.9665 72.0774 65.0926C71.5216 65.2439 70.945 64.9531 70.7811 64.3511C70.6297 63.7953 70.9668 63.2061 71.5225 63.0547C71.8467 62.9665 76.5623 61.8318 77.257 61.6427C76.9796 60.6238 76.4958 59.7605 76.0203 59.293C72.4267 55.5952 70.077 56.8319 68.523 58.25C68.1607 58.7466 67.4029 58.7042 67.0453 58.3041C66.6876 57.904 66.73 57.1462 67.1301 56.7885C69.358 54.7393 73.1939 53.297 77.7133 57.8371ZM91.4085 53.5115C91.8748 55.7724 94.1193 64.0163 94.2832 64.6184C94.3967 65.0352 94.1901 65.7382 93.4954 65.9273C92.8007 66.1164 92.3041 65.7542 92.115 65.0595C91.9889 64.5963 90.9423 60.7523 90.8162 60.2891L85.4142 62.0086C85.9059 63.8149 86.2842 65.2043 86.4353 66.3074C86.5025 66.7368 86.4011 67.4609 85.5675 67.6878C84.9191 67.8644 84.3762 67.5147 84.2712 66.9463C83.8848 64.6139 81.4046 56.2352 81.3331 56.1551C81.1144 55.7172 81.4136 54.989 82.062 54.8125C82.6641 54.6486 83.2533 54.9856 83.4172 55.5877C83.4424 55.6803 84.1277 57.8319 84.7834 60.2402L90.3244 58.4829C89.883 56.8619 89.4039 55.1019 89.2065 54.0115C89.0889 53.3968 89.4848 52.8413 90.0869 52.6773C90.8153 52.4293 91.2572 52.9557 91.4085 53.5115ZM99.1293 63.5477C98.502 63.619 98.0013 63.0589 97.9678 62.5705C97.5194 57.8174 93.8341 51.9556 93.7962 51.8167C93.5523 51.2861 93.5988 50.7262 94.1505 50.377C94.5884 50.1583 95.1357 50.1586 95.5649 50.6387C96.1961 51.3125 97.2308 53.4684 97.9122 54.8748L98.0511 54.837C98.2492 54.2856 98.5232 53.4648 98.8646 52.5261C100.07 49.4618 101.161 47.0753 101.431 46.6039C101.654 46.1451 102.324 45.8634 102.783 46.0867C103.3 46.3437 103.372 46.971 103.22 47.5098C103.199 47.615 102.512 49.2945 101.61 51.2812C101.5 51.6095 100.898 52.868 100.822 53.1374L100.893 53.2174C101.512 53.2977 102.754 53.656 103.272 53.9131C106.21 55.2025 108.162 57.8051 108.557 58.3441C108.823 58.7694 108.978 59.5231 108.498 59.9523C108.018 60.3815 107.163 60.1664 106.852 59.7537C105.24 57.8544 101.979 55.0113 99.9539 55.0651C99.4988 56.1343 99.17 57.1192 99.0645 57.6454C99.5859 59.1949 100.12 60.7906 100.14 62.3273C100.174 62.8156 99.8366 63.4049 99.1293 63.5477ZM57.6262 115.408C57.8701 115.939 58.0634 116.831 57.2676 117.197C56.5307 117.597 55.8825 117.226 55.5923 116.708C54.5995 114.889 53.325 112.4 51.8233 109.625C50.4086 109.911 45.6594 111.105 44.4089 111.445C44.2942 113.765 44.2084 117.469 44.0685 119.696C44.0809 120.29 43.6008 120.719 42.9735 120.79C42.3925 120.849 41.9718 120.218 41.9846 119.717C42.1977 113.739 42.6924 98.9285 42.8112 96.8067C42.9846 95.0681 43.6752 94.6811 44.4288 94.5257C45.334 94.3787 46.1926 94.7917 46.8573 95.9539C49.8903 101.247 57.6262 115.408 57.6262 115.408ZM44.4603 109.441C46.0813 109 49.2684 108.281 50.8431 107.853C48.8955 104.353 47.4779 101.705 45.8205 98.7235C45.627 98.3782 45.2147 97.595 44.9456 96.9718L44.8529 96.9971C44.8612 97.3928 44.8525 98.0916 44.8522 98.6389C44.7419 100.609 44.7194 103.998 44.4603 109.441ZM67.7237 101.416C68.1901 103.677 70.4346 111.921 70.5985 112.523C70.712 112.94 70.5054 113.643 69.8107 113.832C69.116 114.021 68.6194 113.659 68.4302 112.964C68.3041 112.501 67.2575 108.657 67.1314 108.194L61.7294 109.913C62.2212 111.719 62.5995 113.109 62.7506 114.212C62.8177 114.641 62.7164 115.365 61.8827 115.592C61.2343 115.769 60.6914 115.419 60.5864 114.851C60.2001 112.518 57.7199 104.14 57.6484 104.06C57.4296 103.622 57.7288 102.894 58.3772 102.717C58.9793 102.553 59.5686 102.89 59.7325 103.492C59.7577 103.585 60.443 105.736 61.0987 108.145L66.6397 106.387C66.1983 104.766 65.7191 103.007 65.5217 101.916C65.4041 101.301 65.8001 100.746 66.4022 100.582C67.1306 100.334 67.5724 100.86 67.7237 101.416ZM79.1747 111.083C76.7453 111.844 74.4724 110.623 73.3238 109.144C71.2032 106.289 70.9644 103.767 71.2934 102.235C71.652 100.446 72.5409 98.9603 73.9643 97.9758C75.5014 96.8609 77.2739 96.428 78.7135 96.7823C80.3047 97.145 81.6556 98.2696 82.6105 99.9498C82.9008 100.468 82.7153 101.065 82.21 101.402C81.5194 101.789 80.8375 101.477 80.6188 101.039C79.9541 99.8771 79.2136 98.9842 78.1612 98.7733C77.214 98.5834 76.2162 98.7556 75.1845 99.534C74.1864 100.253 73.4997 101.386 73.314 102.531C73.0691 104.189 73.6535 105.97 75.0335 107.933C75.6941 108.897 76.7042 109.318 77.6473 109.31C79.2302 109.277 80.9651 108.158 82.1363 106.248C82.4523 105.764 83.2018 105.41 83.8036 105.794C84.3592 106.19 84.422 106.968 84.0471 107.419C82.7329 109.169 81.0146 110.533 79.1747 111.083ZM91.2591 106.749C88.6999 105.754 87.148 102.246 86.122 99.3917C85.4535 97.4843 82.0224 87.6233 82.3231 83.6114C82.6363 79.6459 84.6448 78.8005 86.0383 78.6201C89.057 78.1962 90.3354 81.4299 90.4986 83.6739C90.6912 86.2083 90.4708 89.6014 90.1074 92.8344C90.0143 93.9542 89.7272 95.8233 89.6258 96.5473L89.7437 96.6147C90.2745 95.8235 92.418 94.1952 94.9648 94.5962C97.2674 95.014 99.8216 97.9999 100.048 101.023C100.186 103.174 99.1997 105.034 97.0438 106.069C94.7152 107.201 92.3745 107.191 91.2591 106.749ZM88.7319 100.024C89.148 101.553 90.3888 104.1 91.7862 104.665C92.8301 105.027 94.0804 105.234 95.9373 104.38C97.3437 103.699 98.0852 102.403 97.93 101.102C97.7709 99.0557 96.1719 97.2027 94.6945 96.7095C92.7371 96.0982 89.6967 98.2692 88.7319 100.024ZM86.2605 80.8978C85.1911 80.9899 84.6097 82.1432 84.55 83.7513C84.4516 87.4097 87.096 95.8432 87.5669 97.2074L87.7185 97.2159C87.8116 96.0961 87.9345 94.1722 88.0528 93.1451C88.2647 89.9035 88.384 86.6872 88.1451 84.1654C88.0825 82.8393 87.6203 80.7762 86.2605 80.8978ZM109.937 102.509C107.541 103.211 104.923 102.183 103.783 100.553C101.637 97.6051 101.794 95.075 102.203 93.4712C102.701 91.6444 104.137 90.1589 105.935 89.2714C108.68 88.0264 111.622 88.9665 113.04 90.5206C113.84 91.4471 114.025 92.4912 113.646 93.2909C112.967 94.8188 108.369 97.6627 105.531 98.9329C105.976 100.204 107.77 100.761 108.502 100.711C110.199 100.547 111.799 99.6639 113.079 97.9721C113.408 97.5344 114.077 97.2526 114.654 97.5433C115.138 97.8593 115.306 98.6592 114.931 99.1095C113.617 100.86 111.823 101.946 109.937 102.509ZM106.696 91.1535C105.509 91.7256 104.586 92.7229 104.261 93.9057C104.059 94.8066 104.143 96.0275 104.538 97.1138C106.782 96.4033 110.475 93.7063 111.36 92.57C111.474 92.4396 111.444 92.1491 111.301 91.9891C111.099 91.7953 110.826 91.5216 110.472 91.3193C109.34 90.6326 108.022 90.5437 106.696 91.1535ZM126.061 109.063C125.404 109.392 124.869 108.89 124.71 108.486C123.364 105.917 121.929 102.477 120.508 99.0836C118.758 95.033 117.08 91.0623 116.037 89.6052C115.726 89.1925 115.642 88.5189 116.063 88.056C116.337 87.7825 116.846 87.6438 117.233 87.7871C117.503 87.863 117.684 88.162 117.684 88.162C118.075 87.4086 119.242 86.3945 120.025 85.9823C120.922 85.4396 122.093 85.1706 123.162 85.0785C125.044 84.8646 127.62 85.5561 128.794 87.6742C129.606 89.1943 129.866 91.0636 129.166 92.6967C127.978 95.4579 124.773 97.5741 122.457 98.2046C123.786 101.624 125.271 104.702 126.6 107.573C126.903 108.138 126.684 108.794 126.061 109.063ZM121.688 96.474C123.494 95.9822 126.134 94.1689 126.998 92.0433C127.441 90.9278 127.357 89.7069 126.756 88.7763C125.927 87.5593 124.369 87.1376 123.031 87.1539C120.972 87.2667 119.203 88.4447 118.554 89.7158C119.391 91.3285 120.582 93.6908 121.688 96.474Z" fill="#333333"/>
<path d="M166.281 88.397C166.543 87.9078 167.6 82.856 167.946 80.3909C168.347 77.5312 168.395 76.0136 168.132 75.4769C167.869 74.9239 167.418 74.7577 166.965 75.0476C166.792 75.1564 166.648 75.1821 166.643 75.1172C166.639 75.0524 166.508 75.2889 166.335 75.642C166.179 75.9941 166.091 76.3907 166.148 76.5173C166.205 76.6439 166.175 76.6946 166.091 76.6512C165.991 76.6089 165.927 76.6293 165.933 76.7266C165.938 76.8077 165.903 77.0217 165.865 77.187C165.8 77.4355 165.817 77.4507 165.966 77.2294C166.114 77.008 166.132 77.0232 166.066 77.2717C166.028 77.437 165.994 77.6672 166 77.7645C166.009 77.8943 165.96 77.8974 165.853 77.7578C165.764 77.6333 165.608 77.9854 165.433 78.811C165.266 79.5057 165.174 80.098 165.21 80.1445C165.261 80.1738 165.394 79.7254 165.519 79.1311C165.627 78.5378 165.76 78.0732 165.811 78.1025C165.846 78.1491 165.754 78.7413 165.604 79.435C165.353 80.5913 165.308 80.6593 165.107 80.314C164.981 80.1268 164.752 79.3599 164.608 78.6526C164.002 75.8256 162.488 71.5591 161.184 69.0215C159.227 65.2071 156.087 61.7298 153.41 60.3723C152.298 59.8091 149.866 59.2174 148.61 59.1847C147.517 59.1577 147.434 59.1305 146.454 58.3308C143.499 55.949 139.932 55.9518 136.453 58.3104C135.565 58.9216 132.877 61.6849 132.896 61.9769C132.901 62.0579 132.984 62.0689 133.093 61.9967C133.202 61.9245 133.219 61.9396 133.163 62.0736C133.104 62.1751 132.994 62.2311 132.894 62.1887C132.724 62.0857 131.846 63.6083 131.427 64.6939C131.052 65.6953 131.167 66.9582 131.648 67.3504C131.87 67.5152 132.208 67.705 132.406 67.7411C132.721 67.8184 132.828 67.7138 133.153 66.9436C134.61 63.5433 137.646 60.3829 140.569 59.2491C142.253 58.5865 143.389 58.5292 144.089 59.0376C144.38 59.2468 144.624 59.4915 144.628 59.5564C144.633 59.6375 144.199 59.975 143.65 60.3037C142.209 61.1787 140.452 63.2303 140.092 64.4588C139.931 64.9903 139.811 65.6495 139.829 65.9252C139.935 67.5632 141.993 69.1725 143.826 69.0539C146.08 68.908 148.391 65.8596 148.432 62.9744L148.44 61.834L149.753 61.7489C150.889 61.6917 151.202 61.7366 152.172 62.1298C153.795 62.8064 155.354 64.4969 157.077 67.4634C158.451 69.8173 160.097 74.1241 160.739 76.9976C161.332 79.6138 161.481 80.4022 161.497 80.9059C161.5 81.1989 161.59 81.5839 161.698 81.7398C161.789 81.8967 161.839 82.1541 161.798 82.287C161.731 82.5031 161.513 82.4032 160.742 81.818C159.235 80.6778 158.733 80.466 157.695 80.5332C156.138 80.634 156.169 80.86 157.945 82.6341C158.797 83.4747 159.987 84.7493 160.602 85.4424C163.116 88.3088 163.577 88.6372 165.198 88.7603C165.982 88.8073 166.062 88.7858 166.281 88.397ZM167.655 77.4132C167.695 77.2803 167.747 77.3258 167.759 77.5042C167.786 77.6815 167.744 77.782 167.691 77.7202C167.639 77.6747 167.614 77.5298 167.655 77.4132ZM146.225 66.6187C146.549 66.0928 146.963 65.6915 146.762 66.1116C146.618 66.3978 146.062 67.1178 145.981 67.123C145.932 67.1262 146.048 66.9069 146.225 66.6187ZM143.46 65.4134C143.847 64.6066 144.783 63.4549 145.042 63.4381C145.496 63.4087 144.387 65.6465 143.645 66.2645C143.043 66.7757 142.969 66.3897 143.46 65.4134ZM144.526 65.5235C144.523 65.4911 144.645 65.3529 144.783 65.23C145.029 65.0024 145.047 65.0175 144.853 65.2906C144.658 65.5638 144.534 65.6533 144.526 65.5235ZM143.16 64.0485C143.262 63.8628 143.445 63.6718 143.588 63.6137C143.713 63.5404 143.658 63.6906 143.462 63.9313C143.024 64.4644 142.912 64.5042 143.16 64.0485ZM140.952 63.1491C140.95 63.1167 141.071 62.9786 141.21 62.8556C141.456 62.628 141.473 62.6431 141.279 62.9163C141.085 63.1894 140.96 63.2789 140.952 63.1491ZM134.445 63.2609C134.443 63.2284 134.671 62.9856 134.929 62.6921L135.434 62.1872L134.998 62.7528C134.576 63.2687 134.453 63.3906 134.445 63.2609Z" fill="#3EB0A1"/>
</svg>
