<svg viewBox="0 0 210 600" fill="none" xmlns="http://www.w3.org/2000/svg">
<path d="M97.9007 600C151.97 600 195.801 593.35 195.801 585.147C195.801 576.944 151.97 570.294 97.9007 570.294C43.8316 570.294 0 576.944 0 585.147C0 593.35 43.8316 600 97.9007 600Z" fill="#DCF3F3"/>
<path d="M177.801 275.805C181.32 276.55 184.761 277.625 188.078 279.017C192.67 281.12 198.178 283.834 201.004 285.151C204.376 286.756 201.438 289.775 196.636 287.784C191.835 285.793 190.727 285.376 190.727 285.376C190.727 285.376 206.785 297.434 209.562 302.107C212.051 306.362 202.835 300.148 194.934 295.443C194.934 295.443 208.455 309.799 207.636 313.106C206.528 317.361 190.198 299.939 190.198 299.939C190.198 299.939 200.33 314.584 198.419 315.547C196.508 316.51 184.08 302.91 184.08 302.91C184.08 302.91 190.149 313.572 188.64 313.765C185.669 314.134 168.424 294.496 167.766 282.566C167.83 282.549 174.895 275.789 177.801 275.805Z" fill="#FFAF82"/>
<path d="M193.473 291.493C193.473 291.493 188.046 299.217 179.375 300.533C179.375 300.533 187.853 303.215 193.473 291.493Z" fill="#F88968"/>
<path d="M183.885 291.574C183.885 291.574 173.657 287.415 177.575 278.487C177.575 278.487 169.948 287.11 183.885 291.574Z" fill="#F88968"/>
<path d="M142.168 209.521C134.381 142.499 119.223 115.667 119.223 115.667C105.494 171.787 116.204 202.296 120.828 216.924C125.453 231.552 167.844 284.364 167.844 284.364C170.818 280.465 174.985 277.646 179.71 276.335C179.71 276.335 166.254 252.506 161.485 243.675C156.716 234.844 142.168 209.521 142.168 209.521Z" fill="#2E998B"/>
<path d="M138.974 430.324L128.216 560.307H109.252C104.869 509.646 97.7875 465.264 105.768 430.324C97.7393 390.936 91.75 301.529 91.75 301.529C106.201 294.914 129.42 288.86 129.42 288.86C137.176 332.584 138.974 430.324 138.974 430.324Z" fill="#344D59"/>
<path d="M172.249 590.944H110.236C108.846 590.944 107.504 590.44 106.458 589.524C105.412 588.608 104.735 587.344 104.552 585.966C104.504 585.566 104.504 585.162 104.552 584.762L107.073 552.198C109.071 551.323 111.146 550.635 113.271 550.142C114.335 549.909 115.318 549.4 116.124 548.668C116.93 547.935 117.53 547.004 117.863 545.968C117.916 545.815 117.959 545.66 117.992 545.502C119.421 539.24 128.461 537.232 130.131 543.366C130.34 544.153 130.532 544.972 130.693 545.663C130.693 545.855 130.773 546.032 130.805 546.208C131.078 547.525 131.271 548.745 131.4 549.805C131.597 551.274 131.698 552.755 131.705 554.237L134.081 557.304L135.237 558.797C136.04 559.857 136.843 560.901 137.614 561.88L138.69 563.245C139.557 564.321 140.408 565.349 141.259 566.296C141.644 566.73 142.013 567.147 142.415 567.548C145.626 570.92 148.838 573.217 152.643 573.747C159.371 574.662 170.306 575.352 175.653 585.276C175.764 585.475 175.856 585.685 175.926 585.902C176.121 586.481 176.175 587.099 176.082 587.703C175.989 588.307 175.753 588.88 175.392 589.374C175.032 589.868 174.559 590.269 174.012 590.542C173.465 590.815 172.86 590.953 172.249 590.944Z" fill="#DE9D01"/>
<path d="M172.252 590.944H110.239C108.849 590.944 107.506 590.44 106.461 589.524C105.415 588.608 104.738 587.344 104.555 585.966H175.897C176.079 586.539 176.123 587.147 176.026 587.74C175.928 588.333 175.693 588.895 175.338 589.38C174.982 589.865 174.518 590.259 173.982 590.531C173.446 590.803 172.853 590.944 172.252 590.944Z" fill="#BF8005"/>
<path d="M135.2 558.861C133.873 560.516 132.085 561.74 130.062 562.378C129.564 562.587 129.018 562.779 128.456 562.972L127.91 561.366C128.504 561.174 129.034 560.981 129.516 560.788C132.904 559.423 133.835 558.075 134.076 557.384L135.2 558.861Z" fill="white"/>
<path d="M128.157 564.096C129.222 564.096 130.084 563.233 130.084 562.169C130.084 561.105 129.222 560.242 128.157 560.242C127.093 560.242 126.23 561.105 126.23 562.169C126.23 563.233 127.093 564.096 128.157 564.096Z" fill="white"/>
<path d="M138.658 563.309C137.45 564.491 136.005 565.405 134.419 565.991C133.825 566.248 133.183 566.473 132.46 566.713L131.914 565.108C132.588 564.883 133.199 564.674 133.729 564.449C135.195 563.942 136.517 563.088 137.582 561.96L138.658 563.309Z" fill="white"/>
<path d="M134.42 565.911C134.42 566.292 134.307 566.666 134.094 566.983C133.882 567.3 133.58 567.547 133.227 567.692C132.874 567.838 132.486 567.875 132.111 567.799C131.737 567.723 131.394 567.538 131.125 567.267C130.856 566.996 130.674 566.651 130.601 566.277C130.529 565.902 130.569 565.514 130.718 565.162C130.866 564.81 131.116 564.51 131.434 564.301C131.753 564.091 132.128 563.981 132.509 563.984C132.762 563.984 133.011 564.034 133.244 564.131C133.477 564.228 133.689 564.37 133.866 564.549C134.044 564.728 134.184 564.941 134.279 565.174C134.374 565.408 134.422 565.658 134.42 565.911Z" fill="white"/>
<path d="M142.382 567.613C141.198 568.736 139.8 569.61 138.271 570.182C137.661 570.439 137.003 570.68 136.264 570.92L135.734 569.315C136.425 569.09 137.019 568.865 137.565 568.64C138.926 568.141 140.171 567.371 141.226 566.376C141.611 566.794 141.997 567.227 142.382 567.613Z" fill="white"/>
<path d="M138.268 570.118C138.268 570.499 138.155 570.871 137.943 571.188C137.731 571.505 137.43 571.752 137.078 571.898C136.726 572.044 136.339 572.082 135.965 572.007C135.591 571.933 135.248 571.75 134.978 571.48C134.709 571.211 134.525 570.867 134.451 570.494C134.377 570.12 134.415 569.732 134.561 569.38C134.707 569.028 134.954 568.727 135.27 568.515C135.587 568.304 135.96 568.191 136.341 568.191C136.595 568.189 136.846 568.237 137.081 568.333C137.316 568.429 137.529 568.571 137.708 568.75C137.888 568.93 138.029 569.143 138.125 569.378C138.222 569.612 138.27 569.864 138.268 570.118Z" fill="white"/>
<path d="M131.356 549.805C129.51 549.787 127.665 549.889 125.832 550.11V547.011C127.404 546.457 129.062 546.185 130.73 546.208C131.035 547.525 131.227 548.745 131.356 549.805Z" fill="white"/>
<path d="M81.5428 301.529C81.5428 301.529 81.061 353.137 73.7389 430.324C68.9218 472.393 63.655 525.173 57.6818 560.307H38.7664L36.0206 430.324C36.0206 430.324 31.6692 350.343 41.1108 295.234L81.5428 301.529Z" fill="#455A64"/>
<path d="M74.3741 586.608C73.8282 597.527 39.6746 593.77 34.2312 590.494C32.1277 589.225 31.2445 586.785 31.0197 583.83C30.7467 579.109 32.3043 573.088 33.637 568.351C35.8208 560.66 35.5318 560.804 37.0412 555.505C37.0412 555.505 36.6558 546.947 47.8476 543.687C59.0395 540.428 63.1501 561.72 65.061 565.814C66.8112 569.572 73.6034 574.71 74.3099 583.943C74.3894 584.829 74.4109 585.719 74.3741 586.608Z" fill="#DE9D01"/>
<path d="M41.7972 562.41L40.9141 561.029C41.3315 560.756 51.2067 554.43 59.7973 558.203L59.139 559.696C51.3512 556.324 41.8936 562.41 41.7972 562.41Z" fill="white"/>
<path d="M42.7781 572.044L41.8789 570.663C42.2964 570.391 52.1716 564.064 60.7782 567.837L60.1199 569.331C52.3161 565.83 42.8744 571.9 42.7781 572.044Z" fill="white"/>
<path d="M42.2976 567.227L41.3984 565.846C41.8159 565.573 51.6911 559.247 60.2817 563.02L59.6234 564.514C51.8356 561.077 42.4422 567.227 42.2976 567.227Z" fill="white"/>
<path d="M43.1033 562.025C43.1033 562.39 42.995 562.747 42.7921 563.051C42.5892 563.354 42.3008 563.591 41.9634 563.731C41.6259 563.87 41.2547 563.907 40.8965 563.836C40.5383 563.765 40.2093 563.589 39.951 563.33C39.6928 563.072 39.5169 562.743 39.4456 562.385C39.3744 562.027 39.4109 561.655 39.5507 561.318C39.6905 560.981 39.9271 560.692 40.2308 560.489C40.5345 560.286 40.8915 560.178 41.2567 560.178C41.7465 560.178 42.2162 560.373 42.5625 560.719C42.9088 561.065 43.1033 561.535 43.1033 562.025Z" fill="white"/>
<path d="M43.1971 566.537C43.1971 566.903 43.0883 567.26 42.8847 567.564C42.6811 567.868 42.3917 568.105 42.0534 568.244C41.715 568.384 41.3429 568.419 40.9843 568.347C40.6257 568.274 40.2967 568.097 40.0391 567.837C39.7815 567.577 39.6069 567.246 39.5375 566.887C39.468 566.528 39.5069 566.156 39.6491 565.819C39.7914 565.482 40.0305 565.195 40.3363 564.994C40.6421 564.793 41.0006 564.687 41.3665 564.69C41.6083 564.69 41.8476 564.738 42.0708 564.831C42.2939 564.924 42.4964 565.06 42.6666 565.232C42.8368 565.404 42.9713 565.607 43.0624 565.831C43.1534 566.055 43.1992 566.295 43.1971 566.537Z" fill="white"/>
<path d="M44.1736 571.033C44.1736 571.522 43.9791 571.992 43.6328 572.338C43.2865 572.685 42.8168 572.879 42.327 572.879C41.8373 572.879 41.3676 572.685 41.0213 572.338C40.675 571.992 40.4805 571.522 40.4805 571.033C40.4805 570.543 40.675 570.073 41.0213 569.727C41.3676 569.381 41.8373 569.186 42.327 569.186C42.8168 569.186 43.2865 569.381 43.6328 569.727C43.9791 570.073 44.1736 570.543 44.1736 571.033Z" fill="white"/>
<path d="M62.2907 568.367C62.2939 568.733 62.1884 569.092 61.9874 569.398C61.7864 569.703 61.4992 569.943 61.162 570.085C60.8249 570.227 60.4531 570.266 60.0939 570.196C59.7346 570.127 59.4041 569.952 59.1442 569.695C58.8844 569.437 58.7069 569.108 58.6343 568.75C58.5618 568.391 58.5974 568.019 58.7367 567.68C58.8759 567.342 59.1126 567.053 59.4166 566.849C59.7206 566.646 60.0783 566.537 60.4442 566.537C60.6859 566.535 60.9256 566.58 61.1496 566.672C61.3735 566.763 61.5773 566.897 61.7489 567.067C61.9206 567.237 62.0569 567.44 62.1499 567.663C62.2429 567.886 62.2907 568.126 62.2907 568.367Z" fill="white"/>
<path d="M61.8064 563.454C61.8064 563.819 61.6981 564.176 61.4952 564.48C61.2923 564.783 61.0039 565.02 60.6665 565.16C60.3291 565.3 59.9578 565.336 59.5996 565.265C59.2414 565.194 58.9124 565.018 58.6541 564.759C58.3959 564.501 58.22 564.172 58.1488 563.814C58.0775 563.456 58.1141 563.084 58.2538 562.747C58.3936 562.41 58.6303 562.121 58.9339 561.918C59.2376 561.715 59.5946 561.607 59.9599 561.607C60.4496 561.607 60.9193 561.802 61.2656 562.148C61.6119 562.494 61.8064 562.964 61.8064 563.454Z" fill="white"/>
<path d="M61.3103 558.54C61.3103 558.906 61.2016 559.264 60.998 559.568C60.7944 559.872 60.505 560.109 60.1667 560.248C59.8283 560.387 59.4562 560.423 59.0976 560.35C58.739 560.278 58.41 560.1 58.1524 559.84C57.8948 559.58 57.7202 559.25 57.6507 558.891C57.5813 558.531 57.6202 558.16 57.7624 557.823C57.9046 557.485 58.1438 557.198 58.4496 556.997C58.7553 556.796 59.1139 556.691 59.4798 556.694C59.9668 556.698 60.4324 556.894 60.7752 557.24C61.118 557.586 61.3104 558.053 61.3103 558.54Z" fill="white"/>
<path d="M74.3779 586.608C73.8319 597.527 39.6783 593.77 34.2349 590.494C32.1314 589.226 31.2482 586.785 31.0234 583.83C36.9434 587.02 43.5678 588.676 50.2921 588.647C61.8854 588.856 70.2511 586.512 74.2333 584.023C74.3361 584.881 74.3845 585.744 74.3779 586.608Z" fill="#BF8005"/>
<path d="M52.7202 547.092C49.3946 546.837 46.0628 547.498 43.0859 549.002L43.5837 552.471C46.9238 551.462 50.3877 550.922 53.8764 550.865C53.807 549.531 53.4099 548.235 52.7202 547.092Z" fill="white"/>
<path d="M43.8565 281.714C43.8565 281.714 37.4336 304.451 37.4336 324.716C37.4336 324.716 68.9057 338.493 108.952 323.27C116.817 320.248 123.189 314.27 126.705 306.613C130.221 298.956 130.604 290.228 127.771 282.292L127.563 281.714C127.563 281.714 76.4204 279.611 43.8565 281.714Z" fill="#455A64"/>
<path d="M138.972 294.833C132.327 297.958 125.483 300.64 118.483 302.862C116.605 303.44 114.694 304.002 112.767 304.467C102.624 307.273 92.1698 308.795 81.6482 308.996C63.5128 309.472 45.6274 304.687 30.1528 295.219L41.2483 229.207L22.8789 121.849L50.3688 112.424L51.846 111.926L54.5597 110.994L55.6998 110.593L58.0281 109.806L62.9255 108.201L92.0051 112.086L93.7553 112.311L96.742 112.713L98.3477 112.937L119.222 115.715L138.972 294.833Z" fill="#3EB1A2"/>
<path d="M112.776 304.484C102.633 307.289 92.1788 308.811 81.6572 309.012C82.1389 306.057 82.5243 302.996 82.8133 299.827C82.9739 298.221 83.1023 296.616 83.2147 295.01C83.4235 291.798 83.584 288.587 83.6483 285.247C83.6483 283.641 83.6483 282.036 83.6483 280.43C83.6483 277.218 83.6483 274.007 83.5359 270.715C83.5359 269.11 83.4235 267.504 83.3593 265.898C83.2308 262.687 83.0381 259.475 82.8133 256.264C82.7009 254.658 82.5885 253.052 82.4601 251.527C82.2031 248.316 81.898 245.104 81.5769 241.893C81.4163 240.287 81.2397 238.681 81.063 237.156C80.7098 233.944 80.3244 230.733 79.9069 227.521C79.6982 225.916 79.4894 224.31 79.2646 222.704C78.8257 219.493 78.3601 216.281 77.8677 213.07C77.6268 211.464 77.386 209.859 77.1291 208.333C76.6152 205.122 76.0693 201.91 75.5233 198.699C75.2504 197.093 74.9613 195.487 74.6883 193.882C74.0889 190.67 73.4894 187.459 72.8899 184.247C72.5848 182.642 72.2798 181.036 71.9586 179.43C71.3164 176.155 70.6634 172.943 69.9997 169.796C69.6678 168.19 69.3306 166.584 68.988 164.979C68.2815 161.671 67.575 158.427 66.8525 155.344C66.4992 153.739 66.1299 152.133 65.7766 150.527C65.0059 147.177 64.2405 143.938 63.4804 140.813C63.0951 139.207 62.7097 137.601 62.3243 135.995C61.4733 132.543 60.7186 129.284 59.8676 126.249C59.4501 124.643 59.0326 123.037 58.6311 121.432C57.5232 117.209 56.5116 113.483 55.6445 110.384L57.9728 109.597L62.8703 107.992L91.9498 111.878L93.7001 112.102C94.2353 114.854 94.7706 117.605 95.3058 120.356C95.5948 121.962 95.8678 123.487 96.1408 125.044C96.6867 128.176 97.2326 131.323 97.7465 134.454C98.0194 136.06 98.2764 137.585 98.5172 139.159C99.0311 142.37 99.5128 145.437 99.9945 148.568C100.235 150.174 100.46 151.699 100.685 153.273C101.156 156.42 101.606 159.557 102.034 162.683C102.259 164.288 102.467 165.894 102.676 167.403C103.11 170.615 103.511 173.698 103.912 176.829C104.105 178.435 104.298 180.04 104.507 181.55C104.892 184.761 105.261 187.86 105.614 190.975L106.144 195.792C106.498 199.004 106.835 202.151 107.156 205.234C107.333 206.84 107.493 208.446 107.638 210.051C107.959 213.263 108.264 216.474 108.553 219.509C108.692 221.115 108.837 222.72 108.987 224.326C109.276 227.538 109.532 230.749 109.789 233.8C109.918 235.406 110.046 237.011 110.159 238.617C110.416 241.828 110.646 244.992 110.849 248.107C110.962 249.712 111.074 251.318 111.17 252.924C111.395 256.135 111.572 259.347 111.748 262.446C111.845 264.052 111.925 265.657 112.005 267.263C112.182 270.587 112.326 273.782 112.439 276.817C112.439 278.423 112.567 280.028 112.615 281.634C112.728 285.086 112.808 288.298 112.856 291.268C112.856 292.971 112.856 294.592 112.856 296.086C112.904 299.329 112.856 302.171 112.776 304.484Z" fill="white"/>
<path d="M96.1368 125.205C87.736 126.234 79.2781 126.728 70.8146 126.682C67.3141 126.682 63.6852 126.682 59.9278 126.474C59.5104 124.868 59.0928 123.262 58.6914 121.656C70.9053 122.297 83.1514 121.916 95.3018 120.516C95.5908 122.074 95.8638 123.648 96.1368 125.205Z" fill="#E2E2E2"/>
<path d="M98.5154 139.319C89.2339 140.565 79.8761 141.155 70.5117 141.086C68.2476 141.086 65.9193 141.086 63.5428 141.005C63.1575 139.4 62.7721 137.794 62.3867 136.188C74.1861 136.635 86.0023 136.098 97.7125 134.582C98.0176 136.188 98.2745 137.746 98.5154 139.319Z" fill="#E2E2E2"/>
<path d="M100.679 153.434C90.5774 154.907 80.378 155.605 70.1701 155.521H66.9586C66.6054 153.915 66.2361 152.31 65.8828 150.704C77.3029 150.991 88.7271 150.325 100.036 148.713C100.245 150.302 100.454 151.86 100.679 153.434Z" fill="#E2E2E2"/>
<path d="M102.667 167.564C91.8782 169.239 80.972 170.039 70.0546 169.956C69.7227 168.351 69.3855 166.745 69.043 165.139C80.083 165.282 91.1155 164.497 102.024 162.795C102.249 164.417 102.458 165.99 102.667 167.564Z" fill="#E2E2E2"/>
<path d="M104.503 181.71C94.0751 183.451 83.5231 184.342 72.9508 184.376C72.6457 182.77 72.3407 181.164 72.0195 179.559C82.7006 179.595 93.3664 178.752 103.909 177.038C104.102 178.643 104.294 180.137 104.503 181.71Z" fill="#E2E2E2"/>
<path d="M106.141 195.889C96.0627 197.652 85.8616 198.618 75.6319 198.779C75.3589 197.173 75.0698 195.568 74.7969 193.962C85.1462 193.85 95.4687 192.883 105.659 191.072L106.141 195.889Z" fill="#E2E2E2"/>
<path d="M107.632 210.083C97.8258 211.886 87.8934 212.917 77.9261 213.166C77.6853 211.561 77.4444 209.955 77.1875 208.429C87.2423 208.206 97.2625 207.17 107.15 205.33C107.327 206.92 107.487 208.51 107.632 210.083Z" fill="#E2E2E2"/>
<path d="M108.982 224.31C99.406 226.118 89.706 227.192 79.9665 227.521C79.7578 225.916 79.549 224.31 79.3242 222.704C89.1356 222.415 98.9082 221.341 108.548 219.493C108.687 221.163 108.832 222.769 108.982 224.31Z" fill="#E2E2E2"/>
<path d="M110.16 238.569C100.753 240.409 91.22 241.536 81.6427 241.941C81.4822 240.335 81.3055 238.729 81.1289 237.204C90.7578 236.816 100.341 235.673 109.791 233.784C109.887 235.389 110.048 236.995 110.16 238.569Z" fill="#E2E2E2"/>
<path d="M111.166 252.86C101.836 254.732 92.378 255.897 82.8728 256.344C82.7604 254.738 82.648 253.133 82.5195 251.607C92.0385 251.156 101.508 249.97 110.844 248.059C110.957 249.68 111.069 251.286 111.166 252.86Z" fill="#E2E2E2"/>
<path d="M112.004 267.199C102.637 269.097 93.1427 270.299 83.5985 270.796C83.5985 269.19 83.4861 267.584 83.4219 265.978C92.9437 265.499 102.414 264.281 111.747 262.333C111.843 264.019 111.923 265.625 112.004 267.199Z" fill="#E2E2E2"/>
<path d="M112.614 281.586C103.083 283.526 93.423 284.761 83.7109 285.279C83.7109 283.673 83.7109 282.068 83.7109 280.462C93.3688 279.951 102.973 278.695 112.437 276.705C112.501 278.407 112.566 280.028 112.614 281.586Z" fill="#E2E2E2"/>
<path d="M112.884 296.037C102.968 298.053 92.9145 299.32 82.8086 299.827C82.9692 298.221 83.0976 296.616 83.21 295.01C93.1748 294.488 103.085 293.199 112.852 291.156C112.868 292.89 112.884 294.512 112.884 296.037Z" fill="#E2E2E2"/>
<path d="M42.7434 301.304C42.7434 301.304 47.9299 302.91 49.4874 305.977C49.4874 305.977 49.4874 325.165 39.8531 333.531C39.8531 333.531 35.0359 321.986 30.2188 310.939L42.7434 301.304Z" fill="#FFAF82"/>
<path d="M22.8856 121.865C22.8856 121.865 3.61699 182.16 1.88281 213.166C1.88281 213.166 1.8828 271.165 30.1756 310.939L42.7483 301.304C42.7483 301.304 26.8999 243.595 26.8999 221.099C26.8999 221.099 42.9571 179.35 45.5904 162.843C45.6547 162.843 34.784 121.865 22.8856 121.865Z" fill="#3EB1A2"/>
<path d="M84.6795 92.9134L84.2574 100.787L83.7379 110.641C83.7379 110.641 81.7736 114.359 72.9421 114.359C64.1105 114.359 62.2923 111.81 62.2923 111.81L61.9351 107.443L60.75 92.8323L84.6795 92.9134Z" fill="#FFAF82"/>
<path d="M84.6795 92.9134L84.2574 100.787C80.5722 103.547 71.8544 108.904 61.9351 107.443L60.75 92.8323L84.6795 92.9134Z" fill="#F88968"/>
<path d="M45.6546 57.1328C45.6546 57.1328 38.901 50.5091 33.4787 54.8275C27.0986 59.9251 33.771 78.3024 45.1026 76.3543L45.6546 57.1328Z" fill="#FFA378"/>
<path d="M41.7048 71.7924C41.4269 71.7851 41.1616 71.6746 40.9606 71.4826C40.7596 71.2906 40.6371 71.0307 40.6171 70.7534C39.9028 61.7108 34.5941 60.1523 34.3831 60.0874C34.0946 60.012 33.8478 59.8252 33.6971 59.5679C33.5464 59.3107 33.5041 59.0041 33.5795 58.7156C33.6548 58.4271 33.8417 58.1804 34.0989 58.0297C34.3562 57.879 34.6628 57.8366 34.9513 57.912C35.2273 57.9932 41.997 59.8601 42.8574 70.5748C42.8708 70.722 42.8549 70.8704 42.8106 71.0115C42.7663 71.1525 42.6946 71.2834 42.5996 71.3966C42.5045 71.5097 42.3879 71.603 42.2567 71.6709C42.1254 71.7389 41.982 71.7801 41.8347 71.7924H41.7048Z" fill="#F88968"/>
<path d="M35.3756 67.1818C35.103 67.1701 34.8437 67.0606 34.6451 66.8734C34.5351 66.7688 34.4475 66.6428 34.3876 66.5033C34.3277 66.3638 34.2969 66.2135 34.2969 66.0617C34.2969 65.9098 34.3277 65.7596 34.3876 65.62C34.4475 65.4805 34.5351 65.3546 34.6451 65.2499C35.4383 64.502 36.4095 63.9692 37.4664 63.7021C38.5234 63.435 39.6311 63.4425 40.6843 63.7239C40.8272 63.7602 40.9614 63.8242 41.0795 63.9123C41.1976 64.0005 41.2972 64.111 41.3726 64.2377C41.448 64.3643 41.4976 64.5045 41.5188 64.6503C41.54 64.7962 41.5323 64.9448 41.496 65.0876C41.4598 65.2304 41.3958 65.3647 41.3076 65.4828C41.2195 65.6009 41.1089 65.7005 40.9823 65.7759C40.8556 65.8513 40.7154 65.901 40.5696 65.9221C40.4237 65.9433 40.2752 65.9356 40.1324 65.8993C39.4656 65.7068 38.7607 65.6878 38.0845 65.844C37.4083 66.0003 36.7833 66.3267 36.2686 66.7922C36.1579 66.9193 36.0204 67.0202 35.866 67.0876C35.7115 67.155 35.544 67.1872 35.3756 67.1818Z" fill="#F88968"/>
<path d="M97.3438 57.1328C97.3438 57.1328 104.113 50.5091 109.52 54.8275C115.9 59.9251 109.227 78.3024 97.8957 76.3543L97.3438 57.1328Z" fill="#FFA378"/>
<path d="M101.337 71.7924C101.615 71.7851 101.88 71.6747 102.081 71.4826C102.282 71.2906 102.405 71.0307 102.425 70.7534C103.139 61.7108 108.448 60.1523 108.675 60.0874C108.963 60.0099 109.209 59.821 109.358 59.5622C109.508 59.3034 109.548 58.9959 109.47 58.7075C109.393 58.419 109.204 58.1731 108.945 58.0239C108.686 57.8748 108.379 57.8345 108.09 57.912C107.814 57.9932 101.045 59.8601 100.184 70.5748C100.171 70.722 100.187 70.8704 100.231 71.0115C100.275 71.1525 100.347 71.2834 100.442 71.3966C100.537 71.5098 100.654 71.603 100.785 71.6709C100.916 71.7389 101.06 71.7801 101.207 71.7924H101.337Z" fill="#F88968"/>
<path d="M107.667 67.1818C107.94 67.1731 108.2 67.0631 108.397 66.8734C108.507 66.7688 108.595 66.6428 108.655 66.5033C108.714 66.3638 108.745 66.2135 108.745 66.0617C108.745 65.9098 108.714 65.7596 108.655 65.62C108.595 65.4805 108.507 65.3546 108.397 65.2499C107.604 64.502 106.633 63.9692 105.576 63.7021C104.519 63.435 103.411 63.4425 102.358 63.7239C102.215 63.7602 102.081 63.8242 101.963 63.9123C101.845 64.0005 101.745 64.111 101.67 64.2377C101.594 64.3643 101.545 64.5045 101.523 64.6503C101.502 64.7962 101.51 64.9448 101.546 65.0876C101.582 65.2304 101.646 65.3647 101.735 65.4828C101.823 65.6009 101.933 65.7005 102.06 65.7759C102.187 65.8513 102.327 65.901 102.473 65.9221C102.618 65.9433 102.767 65.9356 102.91 65.8993C103.577 65.7068 104.281 65.6878 104.958 65.844C105.634 66.0003 106.259 66.3267 106.774 66.7922C106.884 66.9193 107.022 67.0202 107.176 67.0876C107.331 67.155 107.498 67.1872 107.667 67.1818Z" fill="#F88968"/>
<path d="M71.8553 100.641C48.4778 100.641 41.2535 72.8477 39.0943 52.506C38.6223 48.0706 39.0799 43.5855 40.438 39.3368C41.7962 35.0881 44.025 31.1692 46.9823 27.83C49.9396 24.4908 53.5605 21.8047 57.6139 19.943C61.6672 18.0814 66.0642 17.085 70.5241 17.0176H72.1476C76.5723 17.0616 80.9403 18.0191 84.9776 19.8302C89.015 21.6413 92.6347 24.2668 95.6098 27.5422C98.585 30.8177 100.852 34.6724 102.267 38.8648C103.683 43.0571 104.217 47.4967 103.837 51.9053C101.97 72.5068 95.2491 100.641 71.8553 100.641Z" fill="#FFAF82"/>
<path d="M101.854 2.55272C113.721 10.6699 102.99 26.4985 102.99 26.4985C102.99 26.4985 114.809 38.0574 102.649 65.2825L100.474 64.8441C101.505 57.8796 101.505 50.8013 100.474 43.8368C98.8505 38.8691 90.1002 36.2066 90.5385 30.8493C90.5385 30.8493 63.768 39.21 49.2869 30.9954C48.5361 35.1099 46.7794 38.9748 44.173 42.2458C40.845 45.8824 42.7282 58.4803 43.1665 64.0487L40.9424 64.2597C39.6274 58.6751 36.3968 48.6097 36.0721 45.6551C35.861 43.7881 35.0655 36.369 34.7246 31.0441C34.3505 26.4158 35.231 21.7721 37.2734 17.602C38.4318 15.1538 40.1436 13.0085 42.2736 11.3355C50.1148 5.53985 91.0905 -4.8177 101.854 2.55272Z" fill="#32324C"/>
<path d="M87.2406 73.3185C86.953 74.1929 86.589 75.0403 86.1529 75.851C84.8769 78.3009 83.0279 80.4062 80.7631 81.9877C80.4384 82.1987 80.1137 82.4097 79.7728 82.6046C77.6091 83.7873 75.1765 84.3913 72.7108 84.3579C70.4722 84.3878 68.2546 83.9221 66.2171 82.9942C65.9086 82.8481 65.6164 82.6857 65.3242 82.5234C63.0181 81.1923 61.1031 79.2773 59.772 76.9712C59.2447 76.0737 58.8043 75.1278 58.457 74.1464C58.457 74.1464 58.8792 74.39 59.6097 74.7309C63.6377 76.5764 68.0206 77.5183 72.4511 77.4907H72.9868C77.4742 77.339 81.8717 76.1911 85.8607 74.1302C86.7211 73.6594 87.1919 73.351 87.2406 73.3185Z" fill="#920E08"/>
<path d="M79.7784 82.6045C77.6147 83.7873 75.1821 84.3913 72.7164 84.3579C70.4777 84.3878 68.2602 83.9221 66.2227 82.9942C68.3694 81.8961 70.7613 81.3651 73.171 81.4519C75.4253 81.4305 77.6645 81.8211 79.7784 82.6045Z" fill="#F85C66"/>
<path d="M87.2406 73.3185C86.953 74.1929 86.589 75.0403 86.1529 75.851C82.2462 78.2366 77.7423 79.4639 73.1654 79.3901C68.5861 79.4629 64.0366 78.6413 59.772 76.9712C59.2447 76.0737 58.8043 75.1278 58.457 74.1464C58.457 74.1464 58.8792 74.39 59.6097 74.7309C63.6377 76.5764 68.0206 77.5183 72.4511 77.4907H72.9868C77.4742 77.339 81.8717 76.1911 85.8607 74.1302C86.7211 73.6594 87.1919 73.351 87.2406 73.3185Z" fill="white"/>
<path d="M60.9125 57.0841C60.9125 59.4219 59.8736 61.3213 58.591 61.3213C57.3085 61.3213 56.2695 59.4219 56.2695 57.0841C56.2695 54.7463 57.3085 52.8632 58.591 52.8632C59.8736 52.8632 60.9125 54.8275 60.9125 57.0841Z" fill="#32324C"/>
<path d="M50.4258 50.428C50.7924 47.4418 52.2918 44.7104 54.6142 42.7978C56.9043 41.0756 59.7749 40.3128 62.6178 40.6711C62.9546 40.7287 63.2602 40.9038 63.4801 41.1654C63.7001 41.4269 63.8202 41.758 63.8192 42.0997C63.8184 42.3041 63.7743 42.506 63.6898 42.6921C63.6053 42.8782 63.4823 43.0442 63.3288 43.1792C63.1754 43.3142 62.995 43.4152 62.7997 43.4754C62.6044 43.5355 62.3985 43.5536 62.1957 43.5283C59.6145 43.2848 54.1435 43.7394 50.4258 50.428Z" fill="#32324C"/>
<path d="M83.7227 57.0841C83.7227 59.4219 84.7617 61.3213 86.0442 61.3213C87.3267 61.3213 88.382 59.4219 88.382 57.0841C88.382 54.7463 87.343 52.8632 86.0442 52.8632C84.7455 52.8632 83.7227 54.8275 83.7227 57.0841Z" fill="#32324C"/>
<path d="M93.9491 50.7527C93.7367 47.7515 92.3831 44.9457 90.1664 42.9115C87.9685 41.0687 85.1364 40.1596 82.2765 40.3789C81.936 40.4142 81.6199 40.5719 81.387 40.8227C81.1541 41.0735 81.0202 41.4004 81.0102 41.7426C80.9986 41.9404 81.0288 42.1384 81.0987 42.3238C81.1686 42.5091 81.2767 42.6777 81.4161 42.8186C81.5554 42.9595 81.7228 43.0694 81.9074 43.1414C82.092 43.2133 82.2897 43.2456 82.4876 43.2361C85.15 43.1387 90.5885 43.8693 93.9491 50.7527Z" fill="#32324C"/>
<path d="M71.9181 71.4353C71.6619 71.4102 71.4201 71.3056 71.2263 71.1361C71.0326 70.9667 70.8967 70.7409 70.8376 70.4904C70.7786 70.2399 70.7993 69.9772 70.897 69.7391C70.9947 69.5009 71.1644 69.2993 71.3824 69.1625L74.9052 66.987L72.1454 65.9643C71.921 65.8833 71.7249 65.739 71.5808 65.5488C71.4367 65.3586 71.3509 65.1308 71.3337 64.8928L70.8629 56.9542C70.8519 56.7929 70.8731 56.6311 70.9253 56.4781C70.9776 56.3251 71.0597 56.1841 71.167 56.0632C71.2743 55.9423 71.4045 55.844 71.5502 55.774C71.6959 55.704 71.8541 55.6637 72.0155 55.6554C72.1776 55.6444 72.3403 55.6655 72.4942 55.7175C72.6482 55.7696 72.7902 55.8515 72.9124 55.9586C73.0346 56.0657 73.1344 56.1958 73.2062 56.3416C73.2779 56.4874 73.3202 56.6459 73.3305 56.8081L73.7526 63.935L78.1359 65.5584C78.3534 65.6377 78.5442 65.7766 78.6865 65.9593C78.8288 66.1419 78.9168 66.3609 78.9405 66.5912C78.9642 66.8215 78.9226 67.0539 78.8205 67.2617C78.7184 67.4695 78.5599 67.6443 78.3632 67.7663L72.6811 71.2729C72.4524 71.4116 72.1835 71.4688 71.9181 71.4353Z" fill="#F88968"/>
<path d="M72.9927 89.358C70.607 89.4193 68.2533 88.7998 66.2067 87.5723C66.1095 87.5139 66.0247 87.4368 65.9573 87.3456C65.8899 87.2543 65.8413 87.1506 65.8141 87.0405C65.7869 86.9304 65.7818 86.8159 65.799 86.7038C65.8163 86.5917 65.8555 86.4841 65.9145 86.3872C66.0297 86.1924 66.2169 86.0508 66.4356 85.9931C66.6544 85.9353 66.8871 85.9661 67.0834 86.0787C68.8488 87.0684 70.8389 87.5882 72.8628 87.5882C74.8868 87.5882 76.8768 87.0684 78.6423 86.0787C78.7379 86.0201 78.8443 85.9811 78.9552 85.9641C79.066 85.9471 79.1792 85.9523 79.288 85.9795C79.3969 86.0068 79.4992 86.0554 79.589 86.1226C79.6788 86.1898 79.7544 86.2742 79.8112 86.3709C79.8702 86.4678 79.9094 86.5754 79.9266 86.6876C79.9438 86.7997 79.9387 86.9141 79.9115 87.0243C79.8844 87.1344 79.8358 87.2381 79.7684 87.3293C79.701 87.4206 79.6162 87.4977 79.5189 87.556C77.5196 88.6715 75.2812 89.2896 72.9927 89.358Z" fill="#F88968"/>
</svg>
