<svg width="269" height="485" viewBox="0 0 269 485" fill="none" xmlns="http://www.w3.org/2000/svg">
<path opacity="0.1" d="M268.438 361.2C260.301 481.035 109.082 529.616 34.4269 435.498C19.1931 416.292 15.5029 369.935 19.4927 345.495C35.4204 246.977 85.8845 236.901 48.2099 174.587C10.5354 112.272 7.03442 -0.877863 111.116 0.00513765C215.198 0.888138 148.129 167.334 219.929 213.896C252.715 235.199 272.664 298.79 268.438 361.2Z" fill="#30B8B8"/>
<path opacity="0.1" d="M242.204 184.974C238.479 186.238 234.452 186.337 230.668 185.256C226.884 184.174 223.527 181.966 221.05 178.93C212.882 169.09 199.821 149.239 203.705 126.046C209.265 93.0311 251.438 119.398 254.751 156.511C256.408 175.134 249.515 182.368 242.204 184.974Z" fill="#30B8B8"/>
<path opacity="0.1" d="M197.853 98.491C195.897 97.8357 194.193 96.6066 192.972 94.9698C191.75 93.3329 191.07 91.3674 191.024 89.3389C190.813 82.7102 191.83 70.4132 200.942 62.1462C213.967 50.3199 222.945 74.4808 212.279 90.7889C206.946 98.943 201.728 99.828 197.853 98.491Z" fill="#30B8B8"/>
<path opacity="0.1" d="M9.33225 288.913C7.32169 288.615 5.45067 287.704 3.9721 286.302C2.49353 284.9 1.47866 283.076 1.06466 281.076C-0.328958 274.564 -1.57191 262.146 5.71634 252.416C16.1497 238.388 29.2008 260.688 21.856 278.71C18.146 287.721 13.306 289.443 9.33225 288.913Z" fill="#30B8B8"/>
</svg>
