<svg width="475" height="790" viewBox="0 0 475 790" fill="none" xmlns="http://www.w3.org/2000/svg">
<path d="M332.683 220.083C330.986 222.385 328.904 224.376 326.529 225.97C324.356 227.205 321.994 228.075 319.537 228.544C307.699 231.445 295.486 232.529 283.321 231.76C275.749 231.31 267.758 229.83 262.248 224.619C260.796 223.731 259.206 223.09 257.544 222.721C248.103 219.987 227.224 216.288 214.69 212.814C211.562 212.151 208.538 211.069 205.7 209.597L202.156 210.337C198.354 211.012 194.552 211.623 190.75 212.074C186.142 212.653 181.502 213.039 176.83 213.264C166.101 213.746 153.696 212.524 147.574 203.614C142.289 196.054 143.804 185.696 147.348 177.204C150.892 168.712 156.306 161.12 158.497 152.049C160.709 142.686 159.281 132.834 154.501 124.481C152.375 120.814 149.636 117.501 147.799 113.673C145.443 108.569 144.626 102.891 145.447 97.3317C145.899 93.8256 146.82 90.396 148.186 87.1346C152.067 78.896 157.542 71.5056 164.296 65.3892C162.785 64.3217 161.512 62.9524 160.559 61.3683C158.727 58.7067 157.526 55.6642 157.046 52.471C156.566 49.2777 156.82 46.0172 157.788 42.9362C158.854 39.6163 160.465 36.4964 162.556 33.7041C165.507 29.8525 168.927 26.3838 172.738 23.3783C174.253 22.1237 175.96 20.9013 177.507 19.7755C190.543 10.5409 205.48 4.32794 221.227 1.58992C236.975 -1.1481 253.136 -0.342145 268.531 3.94899C276.182 5.84336 283.286 9.4886 289.282 14.5965C292.147 16.9841 294.374 20.0443 295.763 23.5026C297.152 26.961 297.659 30.7093 297.24 34.4118C298.17 34.1692 299.146 34.1692 300.076 34.4118C304.941 35.9236 308.163 44.0621 309.226 48.5334C310.612 54.0662 310.354 59.9851 312.674 65.1962C314.241 68.1088 315.984 70.9233 317.894 73.6241C321.586 80.5264 323.219 88.341 322.598 96.1415C322.305 101.32 321.702 106.476 320.794 111.582C318.699 124.449 316.38 138.088 321.76 149.861C324.983 157.099 330.976 162.729 335.97 169.162C339.519 173.142 342.236 177.79 343.961 182.833C347.924 195.861 341.254 209.597 332.683 220.083Z" fill="#32324C"/>
<g style="mix-blend-mode:multiply" opacity="0.45">
<path d="M344.021 183.279C342.296 178.266 339.577 173.645 336.026 169.688C336.574 173.909 337.025 178.93 337.477 184.878C338.057 192.936 332.866 195.174 325.548 194.471C320.805 193.896 316.243 192.308 312.179 189.816C308.114 187.323 304.643 183.986 302.004 180.035C299.366 176.083 297.622 171.611 296.895 166.926C296.167 162.242 296.473 157.456 297.79 152.9C301.266 140.352 306.154 128.231 312.362 116.766C315.186 111.454 316.554 105.499 316.328 99.4982C315.522 73.3728 290.214 92.6871 290.214 92.6871C288.924 112.417 255.782 128.054 237.535 135.185L232.376 112.801C232.376 112.801 187.531 89.0736 169.348 110.371C169.348 110.371 183.437 125.912 194.56 161.087C196.301 166.39 196.075 172.136 193.924 177.289C191.772 182.443 187.836 186.665 182.824 189.195C180.453 190.535 177.757 191.205 175.028 191.132C172.3 191.059 169.644 190.245 167.35 188.779C165.329 187.383 163.612 185.597 162.303 183.528C160.994 181.459 160.119 179.149 159.731 176.737C159.343 174.325 159.449 171.86 160.044 169.49C160.638 167.119 161.708 164.892 163.191 162.941C164.416 161.31 165.641 159.744 166.898 157.889C176.57 144.522 163.9 119.516 153.712 105.958C151.235 102.31 150.319 97.8358 151.165 93.5185C160.192 74.9077 192.722 46.6717 195.43 44.3374C165.125 68.0965 161.579 49.4537 162.385 35C160.293 37.7758 158.68 40.8772 157.613 44.1775C156.645 47.2403 156.391 50.4814 156.871 53.6558C157.352 56.8302 158.553 59.8547 160.386 62.5005C161.436 64.0317 162.798 65.3279 164.384 66.3058C157.625 72.386 152.147 79.7327 148.264 87.9225C147.656 89.4286 147.128 90.9657 146.684 92.5272L146.491 93.1987C144.418 100.174 144.909 107.654 147.877 114.304C149.715 118.109 152.455 121.403 154.583 125.048C159.352 133.369 160.758 143.175 158.516 152.485C156.324 161.342 150.94 169.081 147.361 177.491C143.783 185.901 142.3 196.23 147.587 203.744C153.712 212.474 166.124 213.689 176.86 213.337C181.535 213.114 186.177 212.73 190.788 212.154C194.592 211.707 198.396 211.099 202.2 210.428L205.747 209.692C208.586 211.156 211.611 212.231 214.741 212.89C227.283 216.343 248.174 220.021 257.62 222.739C259.283 223.105 260.874 223.743 262.327 224.626C267.84 229.806 275.835 231.277 283.411 231.724C295.597 232.548 307.838 231.523 319.713 228.687C322.17 228.221 324.534 227.356 326.709 226.128C329.085 224.544 331.169 222.564 332.866 220.277C341.184 209.756 347.858 196.102 344.021 183.279Z" fill="#4D2733"/>
</g>
<g style="mix-blend-mode:multiply" opacity="0.45">
<path d="M323.014 96C318.004 85.067 312.38 74.4254 306.17 64.126C302.087 58.5352 301.991 38.1641 289.229 38.4211C289.229 38.4211 294.243 16.4756 263.769 10.692C240.174 6.19368 203.464 9.85662 178.133 19.753C191.139 10.5289 206.04 4.32301 221.751 1.58811C237.462 -1.14679 253.585 -0.341756 268.945 3.9445C276.577 5.83671 283.665 9.47782 289.647 14.5799C292.486 16.9523 294.696 19.988 296.081 23.418C297.466 26.848 297.983 30.5665 297.587 34.2441C298.514 34.0018 299.488 34.0018 300.416 34.2441C305.27 35.7543 308.484 43.8834 309.545 48.3496C310.927 53.8762 310.67 59.7883 312.984 64.9935C314.548 67.9028 316.287 70.7141 318.192 73.4119C321.939 80.3213 323.613 88.1638 323.014 96Z" fill="#4D2733"/>
</g>
<path d="M352.653 565H120.604C120.378 561.159 120.604 557.317 120.281 553.572C111.087 466.801 159.768 420.025 171.898 403.207L163.639 388.228C163.477 387.887 163.403 387.51 163.424 387.133C163.446 386.756 163.561 386.39 163.76 386.069C163.959 385.747 164.235 385.481 164.563 385.295C164.892 385.108 165.262 385.007 165.639 385H308.166C308.541 385.009 308.908 385.113 309.233 385.302C309.557 385.491 309.829 385.759 310.022 386.081C310.215 386.403 310.324 386.769 310.338 387.144C310.352 387.52 310.27 387.893 310.102 388.228L301.843 403.174C309.456 413.924 330.716 441.912 343.781 479.842C347.719 491.041 350.656 502.568 352.556 514.286C355.46 531.557 353.653 547.826 352.653 565Z" fill="#455A64"/>
<path d="M176.117 470C183.769 470 191.342 471.522 198.386 474.474C205.43 477.427 211.8 481.75 217.117 487.187C222.435 492.623 226.59 499.062 229.335 506.118C232.081 513.175 233.361 520.705 233.099 528.261L210.723 1171.32L209.422 1206.09L208.901 1220H143.528L143.008 1206.09L141.707 1171.32L119.167 528.261C118.901 520.707 120.177 513.177 122.919 506.121C125.661 499.064 129.813 492.625 135.128 487.189C140.442 481.752 146.811 477.428 153.853 474.475C160.895 471.522 168.467 470 176.117 470Z" fill="#455A64"/>
<path d="M351.443 506C351.443 506 381.141 693.012 380.106 845.967C380.015 858.02 375.427 869.605 367.24 878.459C359.053 887.312 347.855 892.797 335.834 893.841C323.577 894.836 311.402 891.121 301.794 883.454C292.185 875.787 285.867 864.746 284.13 852.585L231.133 530.793L351.443 506Z" fill="#455A64"/>
<g style="mix-blend-mode:multiply" opacity="0.5">
<path d="M344.133 480C328.48 457.396 294.158 411.091 294.158 411.091C294.158 411.091 190.36 406.7 192.156 403.696C193.952 400.693 288.801 403.696 288.801 403.696L300.349 385H308.56C308.934 385.009 309.298 385.113 309.621 385.302C309.944 385.491 310.214 385.759 310.406 386.081C310.598 386.403 310.706 386.769 310.72 387.145C310.733 387.52 310.653 387.893 310.485 388.229L302.338 403.277C309.908 414.062 331.046 442.026 344.133 480Z" fill="#701A36"/>
</g>
<path d="M200.313 190.896C204.483 189.576 191.617 189.834 186.93 190.896C106.792 209.249 113.258 480 113.258 480H125.606C125.606 480 125.412 284.334 158.612 225.927C167.554 209.409 182.459 196.889 200.313 190.896Z" fill="#FFC359"/>
<g style="mix-blend-mode:screen" opacity="0.3">
<path d="M198.133 191.05C195.3 191.094 192.476 191.384 189.693 191.917C110.411 210.024 116.837 480 116.837 480H113.256C113.256 480 106.863 210.088 186.081 191.82C190.06 191.14 194.1 190.881 198.133 191.05Z" fill="#C73271"/>
</g>
<g style="mix-blend-mode:multiply" opacity="0.5">
<path d="M125.133 465.203C125.133 471.966 125.133 476.836 125.133 478.729H115.122H114.003C113.697 478.741 113.398 478.833 113.133 479C113.133 477.208 113.133 472.473 113.133 465.473C113.811 465.161 114.541 465 115.278 465L125.133 465.203Z" fill="#FFD385"/>
</g>
<path d="M470.308 198.391C470.308 198.391 469.828 199.52 469.092 201.165C467.504 205.129 465.487 208.904 463.076 212.422C461.348 214.803 459.174 216.819 456.676 218.357L446.085 248L420.133 238.517L430.085 210.454C430.085 210.196 430.085 209.938 429.829 209.68C429.526 208.628 429.333 207.547 429.253 206.455C428.916 201.246 429.838 196.033 431.941 191.262L432.517 190.811C433.154 190.185 433.646 189.425 433.957 188.585C433.957 188.262 434.149 187.94 434.277 187.617H434.437L434.821 185.553L435.557 181.585L441.509 149.33C441.682 148.357 442.138 147.459 442.821 146.749C443.215 146.34 443.668 145.992 444.165 145.717C444.74 145.32 445.407 145.078 446.102 145.016C446.797 144.954 447.497 145.073 448.133 145.362C449.063 145.824 449.823 146.575 450.301 147.503C450.779 148.432 450.95 149.49 450.788 150.523L447.077 177.779V177.586L461.956 154.716C462.502 153.855 463.289 153.175 464.217 152.762C465.144 152.348 466.173 152.221 467.172 152.394C468.331 152.551 469.386 153.151 470.116 154.071C470.298 154.285 470.449 154.524 470.564 154.781C470.968 155.553 471.163 156.419 471.129 157.291C471.095 158.163 470.834 159.01 470.372 159.748L459.844 178.005L454.756 186.779L460.324 191.036L460.9 191.456L461.124 191.649L461.508 191.94L463.844 193.714L469.796 198.262L470.308 198.391Z" fill="#FFCBA3"/>
<g style="mix-blend-mode:multiply" opacity="0.4">
<path d="M421.22 238L420.133 237.588L429.764 210C429.764 210 439.676 217.198 447.909 216.691C455.552 216.342 425.042 230.738 421.22 238Z" fill="#FFCBA3"/>
</g>
<g style="mix-blend-mode:multiply" opacity="0.4">
<path d="M471.133 196.276C468.975 194.696 466.489 193.56 463.835 192.939C462.447 192.636 461.014 192.564 459.599 192.725H459.013C459.109 192.436 459.175 192.139 459.208 191.837C459.224 191.685 459.224 191.531 459.208 191.378C459.242 190.883 459.147 190.387 458.931 189.934C458.716 189.48 458.386 189.083 457.97 188.776C455.42 187.525 452.668 186.677 449.825 186.266C444.679 185.095 439.361 184.733 434.089 185.195L433.111 185.409C432.069 185.746 431.417 186.205 431.254 186.878C430.994 188.027 431.155 189.224 431.71 190.276C432.786 192.291 434.321 194.057 436.207 195.449L438.129 196.245C441.239 197.508 444.453 198.532 447.74 199.306C453.279 203.102 458.752 207.724 459.078 208C458.482 206.71 457.751 205.48 456.895 204.327C460.153 204.847 465.301 202.092 468.82 199.919C469.569 198.357 470.058 197.286 470.058 197.286C470.481 196.98 470.845 196.607 471.133 196.184V196.276ZM451.943 199.827C452.324 199.803 452.698 199.721 453.051 199.582L453.67 199.306C453.588 199.926 453.588 200.554 453.67 201.174C453.148 200.684 452.562 200.255 451.943 199.827Z" fill="#FFCBA3"/>
</g>
<path d="M455.871 193.768C455.971 193.509 456.048 193.242 456.1 192.968C456.184 192.537 456.105 192.089 455.88 191.713C455.656 191.337 455.301 191.06 454.885 190.935H454.491C450.444 190.09 446.539 188.653 442.899 186.669C441.553 186.002 432.522 182.803 428.285 187.569C421.192 195.501 428.285 210 428.285 210L437.71 196.668C440.518 197.813 443.519 198.391 446.544 198.368C448.383 198.971 450.381 198.829 452.119 197.972C453.857 197.114 455.201 195.608 455.871 193.768Z" fill="#FFCBA3"/>
<g style="mix-blend-mode:multiply" opacity="0.4">
<path d="M449.603 188C449.603 188 451.746 197.423 455.133 195.795C455.133 195.795 444.277 197.99 449.603 188Z" fill="#FFCBA3"/>
</g>
<path d="M466.898 186.846C466.578 187.382 466.173 187.859 465.702 188.257L461.516 191.932L459.721 193.507L458.242 194.82C457.75 195.284 457.212 195.691 456.636 196.034C456.113 196.326 455.565 196.568 455 196.756C454.253 196.997 453.463 197.061 452.69 196.941C451.916 196.822 451.178 196.523 450.53 196.067L449.932 195.608C449.239 195.009 448.716 194.226 448.416 193.342C448.117 192.458 448.053 191.506 448.232 190.587C448.316 190.127 448.442 189.676 448.61 189.241C448.871 188.536 449.209 187.864 449.617 187.24L450.309 186.583L458.273 178.872C458.74 178.394 459.283 178.005 459.879 177.723C461.1 177.07 462.493 176.851 463.845 177.1C464.157 177.157 464.462 177.244 464.758 177.362C466.003 177.878 467.017 178.862 467.6 180.12C468.183 181.378 468.292 182.818 467.906 184.155C467.754 185.116 467.411 186.032 466.898 186.846Z" fill="#FFCBA3"/>
<path d="M471.851 196.527L471.292 196.956L470.042 197.937L464.777 202.075C463.897 203.063 462.663 203.721 461.303 203.929C459.943 204.138 458.548 203.882 457.374 203.209C456.769 202.795 456.261 202.269 455.882 201.664C455.503 201.059 455.261 200.388 455.172 199.693C455.082 198.997 455.147 198.292 455.362 197.621C455.577 196.95 455.937 196.327 456.42 195.791L458.954 193.584L461.027 191.806L462.474 190.549L464.679 188.618C465.368 188.007 466.202 187.556 467.113 187.3C468.338 186.9 469.672 186.9 470.897 187.3C471.29 187.42 471.666 187.584 472.016 187.79C472.861 188.4 473.495 189.228 473.84 190.17C474.186 191.113 474.226 192.129 473.957 193.093C473.681 194.423 472.941 195.63 471.851 196.527Z" fill="#FFCBA3"/>
<g style="mix-blend-mode:multiply" opacity="0.4">
<path d="M438.107 178.797C438.107 178.797 436.62 179.835 435.133 181L440.664 149.525C440.825 148.576 441.25 147.7 441.884 147.007C442.25 146.608 442.671 146.268 443.133 146C442.151 151.036 436.858 175.618 438.107 178.797Z" fill="#FFCBA3"/>
</g>
<g style="mix-blend-mode:multiply" opacity="0.4">
<path d="M470.133 152.817C465.638 157.968 450.302 175.526 446.997 178.971C446.997 178.971 445.84 179.372 446.204 177.198L461.572 153.486C462.136 152.593 462.949 151.887 463.907 151.459C464.865 151.031 465.927 150.898 466.96 151.078C467.576 151.142 468.174 151.328 468.718 151.627C469.263 151.925 469.743 152.33 470.133 152.817Z" fill="#FFCBA3"/>
</g>
<g style="mix-blend-mode:multiply" opacity="0.4">
<path d="M466.92 186.561C465.588 187.637 464.001 188.808 462.51 189.726L460.892 190.834C460.353 191.246 459.813 191.626 459.306 191.942L456.133 194C457.268 193.258 458.33 192.41 459.306 191.467L460.289 190.423C461.964 188.664 463.165 186.511 463.781 184.163C464.397 181.816 464.407 179.352 463.811 177C464.125 177.055 464.433 177.14 464.731 177.253C465.986 177.751 467.008 178.7 467.596 179.914C468.183 181.127 468.293 182.516 467.904 183.806C467.783 184.785 467.447 185.726 466.92 186.561Z" fill="#FFCBA3"/>
</g>
<g style="mix-blend-mode:multiply" opacity="0.4">
<path d="M471.71 196.533L471.133 197C472.558 193.855 472.845 190.327 471.948 187C472.82 187.663 473.475 188.563 473.831 189.588C474.187 190.613 474.229 191.718 473.951 192.767C473.656 194.233 472.866 195.56 471.71 196.533Z" fill="#FFCBA3"/>
</g>
<path d="M387.666 452.755C388.838 450.691 389.847 448.539 390.686 446.318L394.702 433.443C394.702 433.25 394.702 433.089 394.702 432.895L456.133 233.652L418.446 222L410.381 236.806L404.341 247.976C392.342 269.918 382.021 292.741 373.465 316.246L372.855 317.952C367.457 333.242 363.055 348.821 359.168 364.56L349.272 404.956L341.786 433.056V433.314C340.385 439.279 341.255 445.554 344.226 450.911C347.197 456.268 352.055 460.323 357.85 462.283L359.071 462.702C364.289 464.467 369.946 464.431 375.141 462.599C380.335 460.767 384.768 457.245 387.73 452.595L387.666 452.755Z" fill="#3EB1A2"/>
<path d="M293.137 237.568V238.785C293.105 240.389 293.255 241.991 293.583 243.561L297.599 259.361L297.854 260.322L342.471 444.315C343.048 446.829 343.982 449.247 345.243 451.494C357.991 474.409 393.972 463.544 392.059 437.424C391.974 436.348 391.825 435.278 391.613 434.219L385.59 404.766L382.403 389.255L376.189 358.68C374.499 350.347 372.523 342.111 370.675 333.842C368.827 325.574 367.138 317.209 365.64 308.876C362.698 291.982 358.89 275.251 354.231 258.752C351.394 248.689 348.303 238.529 344.861 228.658C344.418 227.635 343.896 226.649 343.299 225.71C340.439 220.62 336.014 216.602 330.687 214.26C325.361 211.918 319.423 211.379 313.765 212.723C308.108 214.068 303.038 217.224 299.318 221.716C295.598 226.208 293.429 231.793 293.137 237.632V237.568Z" fill="#3EB1A2"/>
<g style="mix-blend-mode:multiply" opacity="0.5">
<path d="M335.29 405.773V406L297.133 259C299.472 266.682 316.08 320.588 337.894 360.814C341.732 367.811 343.522 375.718 343.062 383.656C342.603 391.594 339.912 399.251 335.29 405.773Z" fill="#FF8780"/>
</g>
<path d="M180.706 388H291.736C293.36 368.012 300.362 348.835 311.999 332.503C322.841 316.919 328.133 297.237 328.133 275.877C328.106 261.79 324.846 247.897 318.604 235.268C312.363 222.639 303.306 211.612 292.131 203.034C280.957 194.456 267.962 188.557 254.149 185.792C240.336 183.026 226.072 183.467 212.456 187.082C172.833 197.019 146.051 232.77 144.341 273.554C142.941 294.579 148.621 315.468 160.475 332.89C172.168 349.045 179.169 368.117 180.706 388Z" fill="#3EB1A2"/>
<path d="M261.798 187L236.633 187.475L211.435 187C211.435 187 144.715 209.188 135.133 218H338.133C328.647 209.188 261.798 187 261.798 187Z" fill="#3EB1A2"/>
<g style="mix-blend-mode:multiply" opacity="0.5">
<path d="M219.133 304H254.133C239.676 292.75 219.133 304 219.133 304Z" fill="#FF8780"/>
</g>
<path d="M262.133 126H210.133V208H262.133V126Z" fill="#FFCBA3"/>
<g style="mix-blend-mode:multiply" opacity="0.5">
<path d="M262.133 143.032V153.161C254.991 159.496 245.731 163 236.133 163C226.535 163 217.275 159.496 210.133 153.161V143C217.278 149.328 226.537 152.828 236.133 152.828C245.729 152.828 254.987 149.328 262.133 143V143.032Z" fill="#FFCBA3"/>
</g>
<path d="M191.133 118.949C183.589 123.53 175.464 119.872 169.951 113.545C164.438 107.217 161.279 97.8912 164.309 91.9263C164.634 91.2471 165.046 90.6154 165.535 90.0479C166.848 88.1382 168.801 86.7878 171.024 86.2532C173.246 85.7186 175.584 86.037 177.592 87.1479C178.311 87.5282 179.011 87.9462 179.688 88.4002C180.058 88.6652 180.413 88.9513 180.752 89.257L181.783 90.1797C182.841 91.182 183.801 92.2856 184.653 93.4752L186.716 101.615L190.81 117.796L191.068 118.784L191.133 118.949Z" fill="#FFCBA3"/>
<path d="M282.133 119.004L282.367 118.202L288.82 94.1823C289.731 93.0171 290.761 91.9427 291.896 90.9754C295.674 87.7684 302.362 83.9201 308.614 90.9754C309.772 92.2615 310.546 93.8238 310.854 95.4972C313.496 107.459 296.845 127.374 282.133 119.004Z" fill="#FFCBA3"/>
<path d="M293.117 81.1381C293.096 84.2881 292.857 87.4329 292.401 90.5505C290.938 100.043 287.88 109.229 283.353 117.728C283.227 118.04 283.075 118.341 282.897 118.627C272.678 137.677 255.786 153 236.649 153C217.512 153 200.425 137.548 190.238 118.37C190.043 118.049 189.913 117.76 189.75 117.438C185.318 109.016 182.316 99.9326 180.865 90.5505C180.407 87.4223 180.168 84.2667 180.149 81.106C179.968 73.672 181.296 66.2774 184.053 59.3572C186.81 52.4369 190.942 46.1309 196.205 40.81C201.468 35.4892 207.755 31.2609 214.698 28.374C221.641 25.4872 229.099 24 236.633 24C244.167 24 251.624 25.4872 258.567 28.374C265.51 31.2609 271.798 35.4892 277.061 40.81C282.324 46.1309 286.455 52.4369 289.213 59.3572C291.97 66.2774 293.297 73.672 293.117 81.106V81.1381Z" fill="#FFCBA3"/>
<g style="mix-blend-mode:multiply" opacity="0.5">
<path d="M288.661 64.6801L247.557 20C247.557 20 211.871 40.038 194.774 49.9597C191.984 52.6022 188.954 54.9794 185.722 57.0605C185.236 63.8371 184.133 88.3171 184.133 88.3171C184.133 88.3171 189.032 99.7303 189.648 102C190.401 97.4778 190.781 92.9015 190.783 88.3171C190.783 88.3171 224.426 67.5658 235.424 46.4903C235.424 46.4903 238.409 77.0336 258.133 77.6497L253.981 70.8731C257.741 75.4318 262.377 79.1919 267.614 81.9317C272.852 84.6715 278.585 86.3355 284.476 86.8256C284.476 86.8256 281.232 97.3634 284.931 99.7952L292.133 87.7335C289.091 80.4529 287.898 72.5331 288.661 64.6801Z" fill="#FFCBA3"/>
</g>
<g style="mix-blend-mode:screen" opacity="0.3">
<path d="M283.123 118.466C272.982 137.605 256.222 153 237.232 153C218.243 153 201.289 137.476 191.18 118.207V118.466C183.624 122.952 175.485 119.369 169.963 113.172C164.441 106.976 161.276 97.8418 164.311 92C165.216 98.455 168.413 112.398 179.328 116.013C179.328 116.013 183.301 109.332 189.437 117.562L190.631 117.271H190.858L192.02 116.981C192.02 116.981 219.018 163.199 258.805 141.93C265.103 138.466 270.543 133.635 274.726 127.793C277.2 124.123 280.07 120.735 283.284 117.691C283.358 117.666 283.437 117.666 283.51 117.691C285.674 117.271 309.055 114.463 310.864 94.8402C313.415 106.847 297.332 126.889 283.123 118.466Z" fill="#FFCBA3"/>
</g>
<g style="mix-blend-mode:multiply" opacity="0.5">
<path d="M183.312 98.1714C182.414 96.4891 181.027 95.128 179.341 94.2727C177.759 93.4829 176.028 93.0501 174.266 93.0041C172.503 92.9581 170.752 93.2999 169.133 94.0062C172.12 94.519 175.038 95.3799 177.831 96.5719C176.792 97.0193 175.854 97.6769 175.074 98.5046C173.691 99.8547 172.869 101.691 172.776 103.636C172.756 105.541 173.395 107.392 174.581 108.868C175.164 109.531 175.789 110.155 176.452 110.734C177.164 111.193 177.898 111.616 178.652 112C177.831 110.467 177.01 109.101 176.387 107.735C175.795 106.487 175.481 105.121 175.468 103.736C175.769 101.237 176.85 98.9021 178.553 97.0718C179.629 97.6651 180.595 98.443 181.409 99.371C182.426 100.612 183.286 101.978 183.969 103.436C184.326 101.656 184.096 99.8054 183.312 98.1714Z" fill="#FFCBA3"/>
</g>
<path d="M186.133 118.967C186.138 119.957 185.908 120.927 185.471 121.754C185.035 122.58 184.412 123.226 183.682 123.61C182.951 123.993 182.146 124.097 181.369 123.908C180.591 123.719 179.876 123.245 179.314 122.547C178.752 121.849 178.368 120.958 178.212 119.988C178.055 119.017 178.133 118.01 178.435 117.094C178.737 116.179 179.249 115.396 179.908 114.845C180.566 114.294 181.34 114 182.133 114C183.189 114 184.202 114.522 184.952 115.453C185.701 116.383 186.126 117.647 186.133 118.967Z" fill="#3EB1A2"/>
<g style="mix-blend-mode:multiply" opacity="0.5">
<path d="M296.421 96.5782C299.219 95.3836 302.142 94.5212 305.133 94.0079C303.517 93.3005 301.77 92.958 300.012 93.0041C298.253 93.0502 296.526 93.4838 294.948 94.275C293.282 95.1321 291.92 96.4973 291.051 98.1805C290.218 99.7875 289.941 101.634 290.265 103.421C290.935 101.962 291.782 100.594 292.786 99.3488C293.613 98.4347 294.574 97.6576 295.636 97.0455C297.356 98.8677 298.448 101.211 298.747 103.722C298.733 105.109 298.42 106.477 297.83 107.727C297.208 109.096 296.389 110.464 295.537 112C296.304 111.623 297.047 111.199 297.764 110.732C298.424 110.159 299.037 109.534 299.598 108.862C300.78 107.381 301.427 105.531 301.432 103.621C301.336 101.697 300.543 99.8766 299.205 98.5143C298.415 97.6842 297.468 97.0257 296.421 96.5782Z" fill="#FFCBA3"/>
</g>
<path d="M286.133 118.968C286.127 119.954 286.412 120.92 286.953 121.744C287.494 122.569 288.267 123.214 289.175 123.601C290.082 123.987 291.083 124.096 292.052 123.915C293.022 123.733 293.916 123.27 294.622 122.581C295.328 121.893 295.815 121.012 296.022 120.048C296.228 119.083 296.145 118.08 295.783 117.163C295.421 116.246 294.795 115.456 293.985 114.894C293.176 114.331 292.217 114.02 291.232 114.001C290.57 113.988 289.911 114.106 289.296 114.35C288.68 114.593 288.118 114.956 287.644 115.419C287.169 115.881 286.792 116.432 286.532 117.042C286.273 117.651 286.137 118.306 286.133 118.968Z" fill="#3EB1A2"/>
<path d="M294.371 80.4896L297.076 80.074L296.561 87.5868C294.403 88.6099 291.859 91.5191 290.764 91.647C288.435 93.808 286.37 96.233 284.612 98.8721C284.277 94.1326 284.98 89.3773 286.673 84.9334C264.45 82.4078 252.082 70.6429 245.254 57.8551C246.349 60.7323 247.67 63.5137 249.055 66.2951C250.85 69.4408 252.84 72.473 255.013 75.3744C251.449 73.7897 248.26 71.4797 245.652 68.5939C243.045 65.7081 241.077 62.311 239.876 58.6224C238.568 55.0105 237.788 51.232 237.557 47.401C237.396 45.1623 237.461 42.9133 237.75 40.6874C237.716 40.497 237.716 40.3023 237.75 40.1119C227.315 52.4202 204.447 77.996 187.538 86.7237C188.844 90.6786 189.347 94.8509 189.02 99C186.44 95.1347 183.165 91.775 179.357 89.0894C178.688 88.5806 177.989 88.1109 177.264 87.6827C177.069 87.0738 176.908 86.4548 176.781 85.8285L176.394 80.074C176.394 80.074 176.394 73.68 176.137 69.8437C175.654 62.6825 220.261 8.39806 236.623 22.9123C236.623 21.4417 236.623 20.5785 236.623 20.5785C257.976 5.9364 302.133 58.4305 302.133 58.4305L294.371 80.4896Z" fill="#32324C"/>
<g style="mix-blend-mode:multiply" opacity="0.45">
<path d="M237.057 40.2962C226.709 52.3634 203.823 77.9703 186.899 86.7087C188.206 90.6684 188.71 94.8459 188.382 99C185.801 95.13 182.522 91.7662 178.712 89.0773C178.041 88.5679 177.342 88.0976 176.616 87.6689C176.422 87.0592 176.26 86.4395 176.133 85.8124C203.21 77.8103 233.35 36.007 233.35 36.007C236.38 35.879 237.443 37.5114 237.057 40.2962Z" fill="#4D2733"/>
</g>
<g style="mix-blend-mode:multiply" opacity="0.45">
<path d="M289.834 91.7978C287.531 93.952 285.489 96.3692 283.75 99C283.419 94.2756 284.114 89.5354 285.789 85.1055C263.812 82.5879 251.582 70.8605 244.83 58.1132C245.913 60.9813 247.219 63.7539 248.588 66.5264C250.363 69.6621 252.331 72.6847 254.48 75.5769C250.956 73.9972 247.802 71.6945 245.223 68.8179C242.645 65.9413 240.699 62.5549 239.511 58.878C238.218 55.2777 237.446 51.5111 237.218 47.6923C237.059 45.4607 237.123 43.2189 237.409 41C237.918 43.6132 240.594 57.2209 242.951 60.822C243.107 57.7546 243.576 54.7112 244.352 51.7396C244.352 51.7396 270.756 82.5879 286.457 76.1187C289.543 80.722 290.75 86.3318 289.834 91.7978Z" fill="#4D2733"/>
</g>
<path d="M218.838 76.0141C216.28 76.2617 213.781 76.8906 211.436 77.877C210.193 78.3289 209.063 79.016 208.117 79.8952C207.041 80.8511 206.053 81.8897 205.163 83C205.03 81.4716 205.34 79.9379 206.059 78.5601C206.804 77.0885 207.948 75.8252 209.378 74.8964C210.786 73.989 212.393 73.3872 214.081 73.1347C215.769 72.8822 217.496 72.9856 219.137 73.4371C219.315 73.4901 219.481 73.5755 219.625 73.6884C219.768 73.8013 219.886 73.9396 219.973 74.0953C220.059 74.251 220.112 74.4211 220.128 74.5958C220.144 74.7706 220.123 74.9465 220.066 75.1137C219.988 75.3398 219.844 75.541 219.651 75.6946C219.457 75.8482 219.222 75.9482 218.971 75.9831L218.838 76.0141Z" fill="#4D2733"/>
<path d="M250.428 76.0141C252.987 76.2617 255.487 76.8906 257.833 77.877C259.073 78.3351 260.203 79.0214 261.154 79.8952C262.23 80.8511 263.219 81.8897 264.109 83C264.225 81.4725 263.916 79.943 263.213 78.5601C262.442 77.104 261.302 75.8463 259.892 74.8964C258.484 73.989 256.876 73.3872 255.187 73.1347C253.498 72.8822 251.77 72.9856 250.13 73.4371C249.951 73.4901 249.785 73.5755 249.641 73.6884C249.498 73.8013 249.379 73.9396 249.293 74.0953C249.207 74.251 249.154 74.4211 249.138 74.5958C249.122 74.7706 249.143 74.9465 249.2 75.1137C249.277 75.3398 249.421 75.541 249.615 75.6946C249.809 75.8482 250.044 75.9482 250.295 75.9831L250.428 76.0141Z" fill="#4D2733"/>
<path opacity="0.5" d="M270.133 126C276.76 126 282.133 120.627 282.133 114C282.133 107.373 276.76 102 270.133 102C263.505 102 258.133 107.373 258.133 114C258.133 120.627 263.505 126 270.133 126Z" fill="#F9AE8F"/>
<path opacity="0.5" d="M203.633 126C209.984 126 215.133 120.627 215.133 114C215.133 107.373 209.984 102 203.633 102C197.282 102 192.133 107.373 192.133 114C192.133 120.627 197.282 126 203.633 126Z" fill="#F9AE8F"/>
<path d="M221.133 93.0148C221.133 96.8626 219.753 100 218.133 100C216.513 100 215.133 96.8626 215.133 93.0148C215.133 89.167 216.513 86 218.133 86C219.753 86 221.133 89.1374 221.133 93.0148Z" fill="#4D2733"/>
<path d="M248.133 93.0148C248.133 96.8626 249.513 100 251.133 100C252.753 100 254.133 96.8626 254.133 93.0148C254.133 89.167 252.753 86 251.133 86C249.513 86 248.133 89.1374 248.133 93.0148Z" fill="#4D2733"/>
<g style="mix-blend-mode:multiply" opacity="0.5">
<path d="M232.724 108C232.37 107.844 232.048 107.596 231.78 107.272C231.512 106.948 231.304 106.556 231.171 106.124C231.082 105.54 231.15 104.936 231.366 104.405C231.582 103.873 231.933 103.443 232.365 103.18C233.647 102.365 235.075 101.96 236.517 102.003C237.946 101.961 239.362 102.353 240.639 103.144C241.03 103.378 241.369 103.723 241.629 104.152C241.889 104.581 242.062 105.081 242.133 105.609C242.138 106.084 242.044 106.553 241.861 106.971C241.679 107.39 241.412 107.744 241.087 108C241.087 107.154 241.296 106.381 241.087 105.976C240.779 105.628 240.395 105.398 239.982 105.314C238.876 105.093 237.756 105.007 236.637 105.057C235.528 105.024 234.418 105.11 233.321 105.314C232.843 105.314 232.604 105.535 232.485 105.94C232.383 106.64 232.466 107.363 232.724 108Z" fill="#FFCBA3"/>
</g>
<path d="M251.133 118.5C251.133 118.5 236.643 124.29 223.133 118.247C225.248 117.129 227.523 116.298 229.888 115.78C234.702 114.67 239.74 114.746 244.513 116.001C246.812 116.602 249.032 117.44 251.133 118.5Z" fill="#FF8780"/>
<g style="mix-blend-mode:multiply" opacity="0.3">
<path d="M251.133 118.606C251.133 118.606 236.643 124.151 223.133 118.363C225.248 117.292 227.523 116.497 229.888 116C231.927 117.539 234.494 118.4 237.158 118.438C239.822 118.477 242.42 117.691 244.513 116.212C246.812 116.787 249.032 117.59 251.133 118.606Z" fill="#FF8780"/>
</g>
<g style="mix-blend-mode:screen" opacity="0.5">
<path d="M236.133 116C236.685 116 237.133 115.776 237.133 115.5C237.133 115.224 236.685 115 236.133 115C235.581 115 235.133 115.224 235.133 115.5C235.133 115.776 235.581 116 236.133 116Z" fill="#FF8780"/>
</g>
<path d="M229.133 129.871C229.133 129.871 237.394 123.221 245.133 130.164C244.037 131.389 242.689 132.387 241.171 133.093C239.87 133.727 238.423 134.037 236.963 133.996C235.503 133.955 234.078 133.564 232.818 132.859C231.427 132.061 230.182 131.052 229.133 129.871Z" fill="#FF8780"/>
<g style="mix-blend-mode:multiply" opacity="0.5">
<path d="M231.133 134C234.707 135.226 238.559 135.226 242.133 134C241.512 134.927 240.688 135.683 239.731 136.205C238.774 136.727 237.711 137 236.633 137C235.554 137 234.492 136.727 233.535 136.205C232.578 135.683 231.754 134.927 231.133 134Z" fill="#FFCBA3"/>
</g>
<path d="M254.133 116C253.919 117.723 253.493 119.413 252.865 121.033C252.414 122.378 251.786 123.658 250.996 124.84C249.551 127.415 247.413 129.541 244.82 130.979C242.227 132.418 239.283 133.112 236.315 132.985C236.315 132.985 229.275 133.25 223.836 124.675C223.098 123.547 222.451 122.362 221.901 121.132C221.204 119.46 220.613 117.746 220.133 116C220.133 116 233.179 122.622 254.133 116Z" fill="white"/>
<path d="M225.133 124.598L223.601 126C222.659 124.408 221.833 122.736 221.133 121C222.319 122.384 223.664 123.593 225.133 124.598Z" fill="#E3E3E3"/>
<path d="M252.133 121C251.719 122.767 251.143 124.448 250.419 126C250.013 125.455 249.583 124.947 249.133 124.478C250.23 123.5 251.238 122.331 252.133 121Z" fill="#E3E3E3"/>
<path d="M191.786 193.567C182.539 197.73 167.537 202.588 160.133 208H315.133C307.858 202.657 291.175 197.592 281.313 193.428C252.621 180.809 220.445 180.859 191.786 193.567Z" fill="#FFCBA3"/>
<path d="M197.943 190.896C193.82 189.576 206.54 189.834 211.174 190.896C290.401 209.253 284.009 480 284.009 480H271.801C271.801 480 271.993 284.291 239.171 225.871C230.318 209.374 215.584 196.875 197.943 190.896Z" fill="#FFC359"/>
<g style="mix-blend-mode:screen" opacity="0.3">
<path d="M284.007 480H280.757C280.757 480 287.258 210.149 206.681 191.885C203.863 191.352 201.002 191.062 198.133 191.019C202.074 190.92 206.016 191.211 209.899 191.885C290.508 210.085 284.007 480 284.007 480Z" fill="#C73271"/>
</g>
<g style="mix-blend-mode:multiply" opacity="0.5">
<path d="M283.834 465C283.834 472 283.834 477.04 283.834 479H271.133C271.133 476.9 271.133 472 271.133 465H284.133H283.834Z" fill="#C73271"/>
</g>
<path d="M290.133 484.388V567.612C290.133 568.325 289.99 569.031 289.713 569.689C289.436 570.346 289.03 570.943 288.518 571.444C288.006 571.946 287.399 572.341 286.732 572.608C286.065 572.875 285.352 573.008 284.632 573H114.633C113.915 573.004 113.203 572.868 112.538 572.599C111.873 572.331 111.268 571.935 110.757 571.435C110.246 570.935 109.84 570.339 109.561 569.683C109.283 569.027 109.137 568.323 109.133 567.612V484.388C109.137 483.677 109.283 482.973 109.561 482.317C109.84 481.661 110.246 481.065 110.757 480.565C111.268 480.065 111.873 479.669 112.538 479.401C113.203 479.132 113.915 478.996 114.633 479H284.632C285.352 478.992 286.065 479.125 286.732 479.392C287.399 479.659 288.006 480.054 288.518 480.556C289.03 481.057 289.436 481.654 289.713 482.311C289.99 482.969 290.133 483.675 290.133 484.388Z" fill="#FFC359"/>
<path d="M221.772 553H177.493C168.516 553 159.627 551.235 151.333 547.807C143.039 544.379 135.503 539.354 129.155 533.019C122.807 526.685 117.772 519.164 114.336 510.888C110.901 502.611 109.133 493.74 109.133 484.782C109.133 484.023 109.283 483.271 109.574 482.569C109.865 481.868 110.292 481.23 110.83 480.693C111.368 480.157 112.006 479.731 112.709 479.44C113.412 479.15 114.166 479 114.927 479H284.339C285.876 479 287.349 479.609 288.436 480.693C289.522 481.778 290.133 483.248 290.133 484.782C290.133 502.874 282.931 520.226 270.11 533.019C257.29 545.813 239.903 553 221.772 553Z" fill="#FFD386"/>
<g style="mix-blend-mode:screen" opacity="0.3">
<path d="M290.133 484.588C290.116 502.738 282.905 520.139 270.085 532.966C257.266 545.794 239.886 553 221.765 553H177.502C168.527 553.008 159.638 551.245 151.343 547.811C143.049 544.377 135.512 539.339 129.162 532.985C122.813 526.632 117.776 519.087 114.339 510.783C110.903 502.479 109.134 493.577 109.134 484.588C109.122 484.047 109.21 483.509 109.393 483C110.788 500.103 118.546 516.057 131.131 527.701C143.715 539.345 160.208 545.83 177.34 545.87H221.765C238.897 545.83 255.39 539.345 267.974 527.701C280.559 516.057 288.317 500.103 289.712 483C289.951 483.498 290.093 484.037 290.133 484.588Z" fill="#C73271"/>
</g>
<g style="mix-blend-mode:multiply">
<path d="M290.129 489.701C290.129 507.55 282.927 524.667 270.108 537.289C257.288 549.91 239.901 557 221.772 557H177.516C159.387 557 142 549.91 129.18 537.289C116.361 524.667 109.159 507.55 109.159 489.701C109.124 489.468 109.124 489.232 109.159 489C110.118 506.199 117.729 522.383 130.43 534.23C143.13 546.076 159.956 552.685 177.451 552.7H221.772C239.269 552.693 256.099 546.086 268.802 534.238C281.504 522.39 289.113 506.201 290.064 489C290.121 489.229 290.143 489.465 290.129 489.701Z" fill="#FFE9C3"/>
</g>
<path d="M284.154 489.924C281.013 489.908 277.878 489.664 274.775 489.194C271.01 488.56 264.747 484.245 261.534 483.008C255.919 480.787 251.798 478.915 251.798 478.915L227.133 474.981L232.455 443L260.235 447.41L266.337 443.984L278.864 446.268C279.448 446.427 281.46 447.347 283.732 448.425L289.379 451.154L291.586 452.233L292.527 452.677C296.635 454.497 300.256 457.223 303.107 460.64C303.137 460.978 303.137 461.318 303.107 461.655C303.124 461.684 303.133 461.717 303.133 461.751C303.133 461.784 303.124 461.817 303.107 461.846C302.938 463.349 302.416 464.793 301.581 466.065C300.516 467.681 299.655 469.418 299.018 471.237C299.018 471.554 298.79 471.871 298.693 472.22C298.239 473.648 297.719 475.076 297.2 476.504C296.409 478.685 295.455 480.805 294.344 482.849C291.78 487.481 288.535 490.527 284.154 489.924Z" fill="#FFCBA3"/>
<path d="M302.202 462.932L285.159 460.103C284.559 460.015 283.979 459.821 283.445 459.531C282.524 459.068 281.736 458.368 281.159 457.501C280.582 456.634 280.235 455.629 280.152 454.584C280.069 453.539 280.253 452.49 280.686 451.539C281.118 450.588 281.785 449.768 282.62 449.159L283.016 448.89C284.228 448.13 285.668 447.843 287.071 448.082L304.114 450.91C305.674 451.167 307.071 452.045 307.998 453.351C308.925 454.658 309.306 456.287 309.059 457.881C308.91 458.866 308.512 459.794 307.906 460.575C307.575 461.082 307.149 461.517 306.653 461.854C305.63 462.617 304.392 463.019 303.125 462.999H302.202V462.932Z" fill="#FFCBA3"/>
<path d="M298.32 472.946L283.035 470.461C282.643 470.399 282.257 470.303 281.881 470.174H281.625C280.423 469.661 279.433 468.758 278.816 467.611C278.199 466.465 277.991 465.145 278.228 463.866C278.485 462.357 279.324 461.008 280.567 460.106C281.508 459.445 282.621 459.069 283.772 459.023C284.177 458.992 284.584 458.992 284.99 459.023L300.275 461.508C300.88 461.603 301.465 461.796 302.005 462.082H302.23L302.55 462.305C303.481 462.902 304.214 463.758 304.659 464.766C305.103 465.775 305.239 466.891 305.05 467.976C304.894 469.074 304.402 470.098 303.64 470.907C303.377 471.231 303.064 471.511 302.71 471.735C302.101 472.225 301.396 472.584 300.641 472.793C299.886 473.001 299.096 473.053 298.32 472.946Z" fill="#FFCBA3"/>
<path d="M293.534 482.953L277.049 480.505C276.29 480.394 275.562 480.147 274.908 479.779C274.254 479.41 273.686 478.927 273.236 478.357C272.786 477.787 272.464 477.142 272.288 476.458C272.112 475.774 272.085 475.066 272.21 474.372C272.463 473.036 273.258 471.836 274.436 471.011C275.508 470.294 276.819 469.94 278.146 470.008H278.759L295.244 472.456C295.725 472.535 296.192 472.674 296.632 472.868C296.717 472.852 296.805 472.852 296.89 472.868L297.245 473.045C298.266 473.584 299.082 474.395 299.584 475.371C300.086 476.346 300.249 477.438 300.051 478.5C299.896 479.355 299.52 480.164 298.954 480.859C298.601 481.281 298.176 481.65 297.696 481.95C297.109 482.359 296.439 482.659 295.725 482.831C295.011 483.003 294.266 483.044 293.534 482.953Z" fill="#FFCBA3"/>
<path d="M291.647 492.76L275.074 489.918C273.84 489.7 272.738 488.971 272.011 487.892C271.284 486.813 270.991 485.472 271.197 484.164C271.294 483.519 271.514 482.902 271.841 482.349C272.168 481.796 272.598 481.318 273.103 480.945C274.114 480.182 275.364 479.863 276.592 480.054L293.166 482.931C294.399 483.141 295.503 483.862 296.236 484.934C296.968 486.006 297.27 487.343 297.075 488.65C296.892 490.015 296.206 491.246 295.169 492.075C294.441 492.608 293.594 492.927 292.713 493C292.352 492.953 291.995 492.873 291.647 492.76Z" fill="#FFCBA3"/>
<path d="M284.652 474H285.551C286.022 474.002 286.477 473.831 286.828 473.519C287.178 473.207 287.399 472.777 287.447 472.312C287.462 472.164 287.462 472.014 287.447 471.866C287.5 467.356 288.237 462.88 289.631 458.586C290.049 457.026 291.623 446.708 285.68 443.109C275.786 437.122 262.133 445.784 262.133 445.784L277.841 455.338C277.187 458.575 277.187 461.909 277.841 465.147C278.066 471.07 281.696 473.713 284.652 474Z" fill="#FFCBA3"/>
<path d="M28.7277 384C31.0962 384.086 33.4536 384.367 35.7764 384.839L48.9405 388.258C49.1063 388.337 49.2786 388.402 49.4555 388.452L251.133 441.742L241.091 480L224.225 479.032L211.576 478.258C186.53 476.941 161.62 473.706 137.066 468.581L135.295 468.194C119.492 464.71 103.914 460.226 88.4971 455.29L48.9727 442.387L21.1318 433.903H20.8743C15.0725 431.933 10.2105 427.868 7.23545 422.501C4.26045 417.134 3.38558 410.849 4.78132 404.871L5.10317 403.581C6.36197 398.203 9.38241 393.403 13.6822 389.947C17.982 386.491 23.3131 384.579 28.8242 384.516L28.7277 384Z" fill="#3EB1A2"/>
<path d="M174.555 250.269C174.415 250.654 174.255 251.032 174.076 251.4C173.509 252.915 172.769 254.357 171.871 255.699L162.285 268.884L161.71 269.66L50.1597 423.946C48.6624 426.063 46.8766 427.957 44.8554 429.569C24.4689 446.051 -4.89649 421.942 6.79856 398.35C7.30251 397.373 7.85715 396.424 8.46015 395.506L25.3317 370.363L34.1829 357.145L51.5976 331.032C56.3268 323.922 61.1837 317.006 66.1366 310.025C71.0894 303.044 75.7227 295.902 80.292 288.695C89.4467 274.074 99.3443 259.943 109.945 246.359C116.336 238.085 123.11 229.812 130.044 221.959C130.846 221.166 131.712 220.442 132.632 219.793C137.218 216.159 142.846 214.128 148.671 214.006C154.496 213.884 160.203 215.678 164.934 219.118C169.664 222.557 173.163 227.457 174.904 233.081C176.645 238.704 176.534 244.747 174.587 250.301L174.555 250.269Z" fill="#3EB1A2"/>
<g style="mix-blend-mode:multiply" opacity="0.5">
<path d="M72.1004 390.677V391L162.133 270C157.117 276.192 121.747 319.535 86.8593 348.431C80.7505 353.42 76.1381 360.008 73.5331 367.464C70.9281 374.921 70.4322 382.955 72.1004 390.677Z" fill="#FF8780"/>
</g>
</svg>
