<svg viewBox="0 0 123 38" fill="none" xmlns="http://www.w3.org/2000/svg">
<g clip-path="url(#clip0_73_779)">
<path d="M13.7213 9.76501H2.75316H0V25.8483H2.75316V12.2439H13.7213V25.8483H16.4745V9.76501H13.7213Z" fill="#333333"/>
<path d="M16.7188 19.9107C16.7188 15.7174 19.1231 13.09 23.7315 13.09C28.3548 13.09 30.7369 15.7174 30.7369 19.9107C30.7369 24.0819 28.3548 26.6795 23.7315 26.6795C19.1231 26.6795 16.7188 24.0744 16.7188 19.9107ZM28.2583 19.9107C28.2583 16.8455 26.5515 15.3537 23.7241 15.3537C20.919 15.3537 19.2122 16.8529 19.2122 19.9107C19.2122 22.9315 20.919 24.4233 23.7241 24.4233C26.5441 24.4233 28.2583 22.924 28.2583 19.9107Z" fill="#333333"/>
<path d="M38.293 19.9108C38.293 15.7174 40.6974 13.0901 45.2983 13.0901C49.9216 13.0901 52.3037 15.7174 52.3037 19.9108C52.3037 24.0819 49.9216 26.6796 45.2983 26.6796C40.6974 26.6796 38.293 24.0745 38.293 19.9108ZM49.8325 19.9108C49.8325 16.8455 48.1257 15.3537 45.2983 15.3537C42.4932 15.3537 40.7864 16.853 40.7864 19.9108C40.7864 22.9315 42.5006 24.4233 45.2983 24.4233C48.1183 24.4233 49.8325 22.9241 49.8325 19.9108Z" fill="#333333"/>
<path d="M64.3594 19.9107C64.3594 15.7174 66.7638 13.09 71.3722 13.09C75.9954 13.09 78.3775 15.7174 78.3775 19.9107C78.3775 24.0819 75.9954 26.6795 71.3722 26.6795C66.7712 26.6795 64.3594 24.0744 64.3594 19.9107ZM75.8989 19.9107C75.8989 16.8455 74.1921 15.3537 71.3647 15.3537C68.5596 15.3537 66.8528 16.8529 66.8528 19.9107C66.8528 22.9315 68.5596 24.4233 71.3647 24.4233C74.1921 24.4233 75.8989 22.924 75.8989 19.9107Z" fill="#333333"/>
<path d="M64.2966 22.6495C64.2966 24.8538 62.3597 26.0116 59.473 26.0116H52.668V13.758H58.9683C61.6621 13.758 63.599 14.8639 63.599 16.8752C63.599 18.2779 62.612 19.5397 60.8087 19.6584C62.7085 19.7846 64.2966 20.6604 64.2966 22.6495ZM55.1317 18.7901H58.3598C60.0073 18.7901 61.1056 18.5526 61.1056 17.2092C61.1056 15.8658 60.0073 15.7768 58.3598 15.7768H55.1317V18.7901ZM61.7438 22.4416C61.7438 21.0612 60.638 20.7569 58.8051 20.7569H55.1391V24.1264H58.8051C60.638 24.1264 61.7438 23.8221 61.7438 22.4416Z" fill="#333333"/>
<path d="M31.0508 26.0116V13.758H36.0228H39.2138V15.7768H33.522V21.3209V26.0116H31.0508Z" fill="#333333"/>
<path d="M81.2883 23.6959V30.3311H78.6836V13.6689H80.049L81.2883 15.8509C82.3347 14.3146 83.7669 13.2235 86.3717 13.2235C90.3344 13.2235 92.9615 15.8064 92.9615 19.7697C92.9615 23.7107 90.3344 26.3158 86.3717 26.3158C83.7669 26.3232 82.3347 25.2322 81.2883 23.6959ZM81.2883 19.265V20.2966C81.5703 23.1021 83.6779 24.0967 85.7038 24.0967C88.3753 24.0967 90.4235 22.5603 90.4235 19.7771C90.4235 16.9939 88.1824 15.4353 85.7038 15.4353C83.6779 15.4279 81.6074 16.7341 81.2883 19.265Z" fill="#333333"/>
<path d="M107.01 13.8173V26.0189H105.384L104.405 23.6588C103.336 25.3955 101.333 26.4642 98.8391 26.4642C95.1212 26.4642 93.2734 24.0818 93.2734 20.7865V13.8173H95.8559V20.6084C95.8559 23.0131 97.0804 24.3045 99.507 24.3045C101.6 24.3045 103.358 23.3248 104.405 21.3209V13.8173H107.01Z" fill="#333333"/>
<path d="M120.947 13.8025V26.0338H118.587V17.313L112.769 25.6924H112.643L106.825 17.1794V26.0338H105.519L104.539 23.6662V13.8025H107.07L112.747 22.1299L118.424 13.8025H120.947Z" fill="#333333"/>
<path d="M82.3767 35.5383C82.3767 36.941 81.2413 38.0766 79.8387 38.0766C78.4362 38.0766 77.3008 36.941 77.3008 35.5383C77.3008 34.1356 78.4362 33 79.8387 33C81.2413 33 82.3767 34.1356 82.3767 35.5383Z" fill="#333333"/>
<path d="M112.922 2.41745H114.124V6.20263H119.742V2.41745H120.944V11.6132H119.742V7.2417H114.124V11.6132H112.922V2.41745Z" fill="#333333"/>
<path d="M78.6328 2.41745H79.835V6.20263H85.4526V2.41745H86.6548V11.6132H85.4526V7.2417H79.835V11.6132H78.6328V2.41745Z" fill="#333333"/>
<path d="M105.769 11.524C105.22 11.6725 104.982 11.7096 104.656 11.7096C103.869 11.7096 103.454 11.1826 103.454 10.151C102.252 11.4498 101.235 11.8803 99.4316 11.8803C97.2127 11.8803 95.8398 10.8486 95.8398 9.19354C95.8398 8.10252 96.3296 7.3529 97.3463 6.90016C97.8138 6.69235 98.4594 6.54391 99.6394 6.39547L101.561 6.13571C103.008 5.92789 103.439 5.64586 103.439 4.87398C103.439 3.80522 102.482 3.23373 100.708 3.23373C98.5633 3.23373 97.5838 3.87202 97.4353 5.40094H96.2109C96.3593 4.4064 96.5523 3.91655 96.9975 3.4267C97.7693 2.52123 98.875 2.16498 100.76 2.16498C102.437 2.16498 103.506 2.5435 104.107 3.36733C104.522 3.91655 104.597 4.30991 104.597 5.73492V9.87635C104.597 10.4256 104.782 10.6853 105.198 10.6853C105.331 10.6853 105.502 10.6482 105.762 10.574V11.524H105.769ZM103.454 7.27126C103.454 6.95212 103.476 6.81852 103.491 6.48454C103.001 6.82594 102.623 6.95212 101.346 7.15993L99.6319 7.4197C97.6357 7.73884 97.0346 8.1322 97.0346 9.1119C97.0346 10.2252 97.9771 10.8635 99.5948 10.8635C100.931 10.8635 102.118 10.3736 102.927 9.46815C103.32 9.00057 103.431 8.75564 103.431 8.22869L103.454 7.27126Z" fill="#333333"/>
<path d="M78.2698 7.10039C78.2698 9.8465 76.1846 11.8801 73.3423 11.8801C70.4482 11.8801 68.4297 9.90587 68.4297 7.06328C68.4297 4.14646 70.463 2.14996 73.3943 2.14996C76.2736 2.15739 78.2698 4.16873 78.2698 7.10039ZM69.6319 7.01132C69.6319 9.23048 71.1903 10.8113 73.3943 10.8113C75.4796 10.8113 77.0454 9.21563 77.0454 7.0707C77.0454 4.82928 75.5241 3.23356 73.3794 3.23356C71.2125 3.22614 69.6319 4.82928 69.6319 7.01132Z" fill="#333333"/>
<path d="M92.07 2.41736L96.2851 11.6205H94.9716L92.3001 5.71269C92.0923 5.24511 91.9216 4.84433 91.417 3.54549C91.0014 4.65878 90.7936 5.18574 90.5339 5.78691L87.9366 11.6205H86.6602L90.8159 2.41736H92.07Z" fill="#333333"/>
<path d="M113.02 11.6204V9.68328C112.589 10.3438 112.307 10.6407 111.832 10.9598C111.083 11.4868 110.007 11.7911 108.938 11.7911C106.586 11.7911 105.398 10.7001 105.398 8.53288V2.41721H106.623V8.26569C106.623 9.98015 107.432 10.752 109.22 10.752C110.742 10.752 112.062 10.0766 112.641 9.00046C112.827 8.64421 112.923 8.19147 112.923 7.60514V2.40979H114.125V11.613H113.02V11.6204Z" fill="#333333"/>
</g>
<defs>
<clipPath id="clip0_73_779">
<rect width="123" height="38" fill="white"/>
</clipPath>
</defs>
</svg>
