<svg viewBox="0 0 60 60" fill="none" xmlns="http://www.w3.org/2000/svg">
<mask id="mask0_73_1184" style="mask-type:alpha" maskUnits="userSpaceOnUse" x="0" y="0" width="60" height="60">
<circle cx="30" cy="30" r="30" fill="#FFDD2D"/>
</mask>
<g mask="url(#mask0_73_1184)">
<g clip-path="url(#clip0_73_1184)">
<path d="M35.0172 13.7711C36.5021 13.1928 38.1202 13.0454 39.6852 13.346C41.2502 13.6466 42.6985 14.3829 43.8636 15.4702C47.9012 19.2695 45.0485 21.8087 48.6159 23.6896C52.1833 25.5705 49.5751 30.7742 53.7319 33.1441C57.8886 35.514 55.1488 41.3636 50.873 42.1912C50.873 42.1912 48.8165 47.6081 44.3087 47.0877C44.3087 47.0877 40.1394 51.7272 32.014 48.7805L29.0234 47.5266L35.0172 13.7711Z" fill="#32324C"/>
<path d="M18.5621 15.3698C18.5621 15.3698 13.1577 16.0657 12.1107 20.8682C11.0637 25.6707 11.4461 24.5297 8.47433 26.9748C5.50254 29.42 9.2643 32.1849 6.90693 34.63C5.70317 35.8839 5.13891 36.8996 5.02605 38.072C4.95593 39.0803 5.24111 40.0814 5.83206 40.9014C6.42301 41.7214 7.28246 42.3086 8.26118 42.561C9.62795 42.9497 10.769 44.2413 11.559 46.003C13.1703 49.4952 18.9383 47.978 18.9383 47.978C18.9383 47.978 24.3866 51.1504 27.7157 48.793C31.0449 46.4356 26.023 13.9717 26.023 13.9717L18.5621 15.3698Z" fill="#32324C"/>
<path d="M39.7388 14.0345C39.7388 14.0345 37.5506 9.0188 29.6698 9.0188C21.7889 9.0188 19.3438 16.7241 19.3438 16.7241L30.8108 22.9937L39.7388 14.0345Z" fill="#32324C"/>
<path d="M22.4778 31.9279C23.2176 33.5768 23.8446 36.0157 21.5938 36.8182C20.0202 37.3824 18.1644 35.2821 17.4308 33.6395C16.6973 31.9969 17.1424 30.5611 18.6847 29.9718C20.2271 29.3824 21.7129 30.279 22.4778 31.9279Z" fill="#FFAF82"/>
<path d="M18.625 31.953C18.625 31.953 20.5059 31.4452 21.252 34.0408" stroke="#995342" stroke-width="0.48" stroke-linecap="round" stroke-linejoin="round"/>
<path d="M40.6613 31.9279C39.9215 33.5768 39.9842 36.2288 41.5453 36.8182C43.1064 37.4075 44.9748 35.2821 45.7083 33.6395C46.4418 31.9969 45.9967 30.5611 44.4544 29.9718C42.9121 29.3824 41.376 30.279 40.6613 31.9279Z" fill="#995342"/>
<path d="M45.926 25.5831C45.926 32.5612 40.1015 38.2226 32.9103 38.2226C25.7191 38.2226 19.1172 32.279 19.1172 25.2947C19.1172 18.3104 25.7065 12.9436 32.9103 12.9436C40.1141 12.9436 45.926 18.605 45.926 25.5831Z" fill="#32324C"/>
<path d="M28.0263 40.975L26.3711 56.743H36.183L34.4902 40.812L28.0263 40.975Z" fill="#FFAF82"/>
<path d="M27.8086 42.9186L35.4324 49.6647L34.5986 41.7336L27.8086 42.9186Z" fill="#995342"/>
<path d="M33.0741 14.4231C26.9863 14.4231 21.6133 19.1316 21.6133 24.9372L21.9644 31.909C21.9644 31.909 22.0898 41.7899 31.4691 44.7993C32.5133 45.1317 33.6349 45.1317 34.6791 44.7993C44.0835 41.7899 44.1901 31.909 44.1901 31.909L44.5412 24.9372C44.5412 19.1316 39.1619 14.4231 33.0741 14.4231Z" fill="#FFAF82"/>
<path d="M35.4451 33.4639L35.7147 35.0814L34.5234 35.094" stroke="#995342" stroke-width="0.48" stroke-linecap="round" stroke-linejoin="round"/>
<path d="M31.8838 31.094C31.8838 31.094 31.0938 29.0814 29.1628 28.9937C28.5735 28.9843 27.9899 29.1087 27.4556 29.3574C26.9213 29.606 26.4504 29.9726 26.0781 30.4294C26.0781 30.4294 26.5672 32.1347 28.912 32.2476C31.2568 32.3604 31.8838 31.094 31.8838 31.094Z" fill="white"/>
<mask id="mask1_73_1184" style="mask-type:luminance" maskUnits="userSpaceOnUse" x="26" y="28" width="6" height="5">
<path d="M31.8838 31.094C31.8838 31.094 31.0938 29.0814 29.1628 28.9937C28.5735 28.9843 27.9899 29.1087 27.4556 29.3574C26.9213 29.606 26.4504 29.9726 26.0781 30.4294C26.0781 30.4294 26.5672 32.1347 28.912 32.2476C31.2568 32.3604 31.8838 31.094 31.8838 31.094Z" fill="white"/>
</mask>
<g mask="url(#mask1_73_1184)">
<path d="M27.0605 30.5486C27.0436 30.9287 27.1397 31.3054 27.3367 31.6309C27.5337 31.9564 27.8228 32.2163 28.1674 32.3776C28.5121 32.5389 28.8968 32.5944 29.273 32.5371C29.6491 32.4799 29.9999 32.3124 30.281 32.0559C30.562 31.7994 30.7607 31.4653 30.852 31.0959C30.9432 30.7265 30.9229 30.3383 30.7937 29.9804C30.6644 29.6225 30.4319 29.311 30.1257 29.0852C29.8194 28.8593 29.4532 28.7293 29.0731 28.7116C28.82 28.699 28.567 28.7366 28.3286 28.8223C28.0902 28.9079 27.8711 29.04 27.684 29.2107C27.4969 29.3815 27.3455 29.5877 27.2384 29.8173C27.1314 30.0469 27.0709 30.2955 27.0605 30.5486Z" fill="black"/>
</g>
<path d="M31.8838 31.094C31.8838 31.094 31.1628 29.0125 29.1628 28.9937C28.5745 28.9907 27.9929 29.1178 27.4596 29.3661C26.9263 29.6143 26.4546 29.9774 26.0781 30.4294" stroke="black" stroke-width="0.38" stroke-linecap="round" stroke-linejoin="round"/>
<path d="M37 31.094C37 31.094 37.7461 29.0815 39.5706 28.9937C40.1336 28.991 40.6895 29.1193 41.1944 29.3685C41.6993 29.6177 42.1393 29.9809 42.4797 30.4294C42.2821 30.9748 41.9178 31.444 41.4383 31.7704C40.9588 32.0969 40.3886 32.2638 39.8088 32.2476C37.5956 32.3605 37 31.094 37 31.094Z" fill="white"/>
<mask id="mask2_73_1184" style="mask-type:luminance" maskUnits="userSpaceOnUse" x="37" y="28" width="6" height="5">
<path d="M37 31.094C37 31.094 37.7461 29.0815 39.5706 28.9937C40.1336 28.991 40.6895 29.1193 41.1944 29.3685C41.6993 29.6177 42.1393 29.9809 42.4797 30.4294C42.2821 30.9748 41.9178 31.444 41.4383 31.7704C40.9588 32.0969 40.3886 32.2638 39.8088 32.2476C37.5956 32.3605 37 31.094 37 31.094Z" fill="white"/>
</mask>
<g mask="url(#mask2_73_1184)">
<path d="M41.5659 30.5487C41.562 30.9047 41.4537 31.2518 41.2543 31.5468C41.0549 31.8418 40.7733 32.0718 40.4444 32.2082C40.1155 32.3447 39.7537 32.3815 39.4041 32.3142C39.0544 32.2468 38.7322 32.0783 38.4775 31.8295C38.2227 31.5807 38.0467 31.2626 37.9711 30.9146C37.8955 30.5666 37.9238 30.2041 38.0524 29.8721C38.181 29.54 38.4043 29.2531 38.6945 29.0468C38.9848 28.8405 39.3292 28.724 39.6851 28.7117C40.1764 28.7115 40.6482 28.9037 40.9997 29.247C41.3512 29.5903 41.5545 30.0575 41.5659 30.5487Z" fill="black"/>
</g>
<path d="M37 31.094C37 31.094 37.6834 29.0125 39.5706 28.9937C40.1327 28.9962 40.6868 29.1268 41.1909 29.3756C41.695 29.6244 42.1357 29.9848 42.4797 30.4294" stroke="black" stroke-width="0.36" stroke-linecap="round" stroke-linejoin="round"/>
<path d="M28.3275 23.0063C27.3249 23.1278 26.3487 23.4116 25.4372 23.8464C24.8541 24.2101 24.8667 24.8809 25.5689 25.1003C26.5157 25.2537 27.481 25.2537 28.4278 25.1003C30.4466 24.8684 31.7883 24.116 31.6567 23.4953C31.4936 22.6866 29.3745 22.8182 28.3275 23.0063Z" fill="black"/>
<path d="M40.0792 23.0063C41.0315 23.1289 41.9559 23.413 42.8127 23.8464C42.9364 23.9068 43.0387 24.0037 43.1054 24.1241C43.1722 24.2445 43.2003 24.3826 43.1859 24.5195C43.1715 24.6564 43.1153 24.7856 43.025 24.8895C42.9347 24.9934 42.8146 25.067 42.681 25.1003C41.7889 25.2537 40.8772 25.2537 39.9851 25.1003C38.1042 24.8684 36.8127 24.116 36.9381 23.4953C37.0948 22.6866 39.076 22.8182 40.0792 23.0063Z" fill="black"/>
<path d="M31.5469 37.0188C31.5469 37.0188 31.8604 39.489 34.2867 39.489C36.713 39.489 37.0265 37.0188 37.0265 37.0188H31.5469Z" fill="#DE5A62"/>
<path d="M37.0265 37.0187C36.1606 36.6483 35.2285 36.4573 34.2867 36.4573C33.3448 36.4573 32.4128 36.6483 31.5469 37.0187C31.5469 37.0187 34.55 38.0031 37.0265 37.0187Z" fill="#DE5A62"/>
<path d="M31.5469 37.0063H37.0265C37.0265 37.0063 36.8384 38.7681 34.2867 38.7681C33.6993 38.8199 33.1113 38.675 32.6153 38.356C32.1193 38.0371 31.7435 37.5623 31.5469 37.0063Z" fill="white"/>
<path d="M40.0665 14.0345C40.0665 14.0345 39.5336 19.5455 33.3204 20.4169C26.9881 21.3072 28.3612 25.0063 20.6684 24.1223C20.6684 24.1223 17.8847 20.0972 22.0101 15.9718C24.7374 13.2194 30.0665 10.9248 33.8847 11.3072C35.17 11.4389 38.217 13.6646 40.0665 14.0345Z" fill="#32324C"/>
<path d="M39.2589 14.4231C39.2589 14.4231 35.3153 18.3917 46.2495 25.583C46.4979 24.0208 46.2501 22.4201 45.5411 21.0062C44.3624 18.6927 39.2589 14.4231 39.2589 14.4231Z" fill="#32324C"/>
<path d="M57.7592 67.1755C57.4639 65.7288 56.8162 64.3774 55.8734 63.2411C54.9307 62.1047 53.7221 61.2186 52.3548 60.6614C52.1854 60.5595 52.007 60.4734 51.8219 60.4043L31.0256 52.8181L12.0664 60.4858C11.7666 60.5865 11.4735 60.7059 11.1886 60.8432H11.1447C9.8921 61.4345 8.79389 62.3085 7.93657 63.3965C7.07925 64.4844 6.48623 65.7566 6.20429 67.1128L5.82812 68.9372H58.1604L57.7592 67.1755Z" fill="white"/>
<path d="M17.4648 58.3228L31.3144 52.6802L43.2266 57.2319C43.2266 57.2319 46.6937 63.9968 36.0291 64.8745C22.6435 65.9842 17.4648 58.3228 17.4648 58.3228Z" fill="#FFAF82"/>
</g>
</g>
<defs>
<clipPath id="clip0_73_1184">
<rect width="53.1348" height="60" fill="white" transform="translate(5 9)"/>
</clipPath>
</defs>
</svg>
