<svg width="38" height="33" viewBox="0 0 38 33" fill="none" xmlns="http://www.w3.org/2000/svg">
<path d="M35.2815 32.397C35.5429 31.9078 36.6002 26.856 36.9455 24.3909C37.3467 21.5312 37.3951 20.0136 37.1323 19.4769C36.8685 18.9239 36.4181 18.7577 35.9646 19.0476C35.7925 19.1564 35.6475 19.1821 35.6434 19.1172C35.6392 19.0524 35.5079 19.2889 35.3353 19.642C35.179 19.9941 35.0906 20.3907 35.1477 20.5173C35.2047 20.6439 35.1755 20.6946 35.0912 20.6512C34.9908 20.6089 34.9269 20.6293 34.9332 20.7266C34.9385 20.8077 34.9035 21.0217 34.8653 21.187C34.8 21.4355 34.8173 21.4507 34.9658 21.2294C35.1143 21.008 35.1316 21.0232 35.0662 21.2717C35.0281 21.437 34.9941 21.6672 35.0004 21.7645C35.0088 21.8943 34.9602 21.8974 34.8534 21.7578C34.7639 21.6333 34.6076 21.9854 34.433 22.811C34.2663 23.5057 34.1743 24.098 34.2099 24.1445C34.2607 24.1738 34.3945 23.7254 34.5189 23.1311C34.627 22.5378 34.7598 22.0732 34.8106 22.1025C34.8462 22.1491 34.7542 22.7413 34.6037 23.435C34.3528 24.5913 34.3084 24.6593 34.1069 24.314C33.9808 24.1268 33.752 23.3599 33.6085 22.6526C33.0021 19.8256 31.4883 15.5591 30.184 13.0215C28.2272 9.20711 25.087 5.72984 22.4098 4.37229C21.2985 3.80908 18.8662 3.21737 17.6101 3.18467C16.5172 3.1577 16.434 3.13051 15.454 2.33081C12.4987 -0.0510194 8.93241 -0.0481894 5.4534 2.31038C4.56469 2.92161 1.8773 5.68494 1.89619 5.97685C1.90144 6.05794 1.98358 6.06891 2.0929 5.99669C2.20223 5.92447 2.2195 5.93964 2.16302 6.07358C2.10445 6.17508 1.99408 6.23108 1.89362 6.18873C1.7241 6.0857 0.845516 7.60826 0.427216 8.69389C0.0523229 9.69528 0.166634 10.9582 0.648014 11.3504C0.870389 11.5152 1.20839 11.705 1.40614 11.7411C1.72058 11.8184 1.8278 11.7138 2.15252 10.9436C3.60985 7.54334 6.6461 4.38287 9.56924 3.24911C11.2526 2.58645 12.3889 2.5292 13.0895 3.03756C13.3799 3.24676 13.6237 3.49154 13.6279 3.55641C13.6332 3.6375 13.199 3.97502 12.6503 4.30368C11.2087 5.17869 9.45236 7.23033 9.09216 8.45877C8.93114 8.99033 8.81095 9.64953 8.82879 9.92523C8.93481 11.5632 10.9932 13.1725 12.8258 13.0539C15.08 12.908 17.3907 9.85963 17.432 6.97443L17.4396 5.83396L18.7532 5.74893C19.8895 5.69168 20.2018 5.7366 21.1718 6.12981C22.7953 6.80644 24.3541 8.49695 26.077 11.4634C27.4507 13.8173 29.0974 18.1241 29.7394 20.9976C30.3322 23.6138 30.4809 24.4022 30.4972 24.9059C30.4999 25.1989 30.59 25.5839 30.6978 25.7398C30.7894 25.8967 30.8386 26.1541 30.7983 26.287C30.7309 26.5031 30.5127 26.4032 29.742 25.818C28.2351 24.6778 27.7328 24.466 26.6949 24.5332C25.138 24.634 25.1689 24.86 26.9449 26.6341C27.7973 27.4747 28.9872 28.7493 29.602 29.4424C32.1164 32.3088 32.5773 32.6372 34.1976 32.7603C34.9823 32.8073 35.0623 32.7858 35.2815 32.397ZM36.6551 21.4132C36.6953 21.2803 36.7471 21.3258 36.7587 21.5042C36.7864 21.6815 36.7441 21.782 36.6912 21.7202C36.6394 21.6747 36.6138 21.5298 36.6551 21.4132ZM15.225 10.6187C15.5493 10.0928 15.963 9.69147 15.7622 10.1116C15.6178 10.3978 15.0619 11.1178 14.9808 11.123C14.9321 11.1262 15.0482 10.9069 15.225 10.6187ZM12.4599 9.41335C12.8474 8.60657 13.7825 7.45492 14.042 7.43812C14.4961 7.40873 13.387 9.64649 12.6453 10.2645C12.0432 10.7757 11.9694 10.3897 12.4599 9.41335ZM13.5256 9.52352C13.5235 9.49109 13.6448 9.35295 13.7834 9.22998C14.0293 9.00235 14.0465 9.01752 13.8525 9.29065C13.6585 9.56378 13.534 9.65326 13.5256 9.52352ZM12.1598 8.04851C12.2618 7.86277 12.4449 7.67178 12.5877 7.61368C12.7132 7.54041 12.6578 7.69057 12.4617 7.93126C12.0239 8.46444 11.9125 8.50423 12.1598 8.04851ZM9.95195 7.14914C9.94985 7.11671 10.0712 6.97857 10.2098 6.8556C10.4556 6.62798 10.4729 6.64315 10.2789 6.91627C10.0848 7.1894 9.96035 7.27888 9.95195 7.14914ZM3.44499 7.26087C3.44289 7.22844 3.67146 6.98565 3.92931 6.69211L4.43405 6.18716L3.99838 6.75278C3.57578 7.26869 3.45339 7.39061 3.44499 7.26087Z" fill="#3EB0A1"/>
</svg>
