<svg viewBox="0 0 241 214" fill="none" xmlns="http://www.w3.org/2000/svg">
<path d="M33.8244 78.8979C25.4563 64.245 30.9835 44.894 46.3555 35.1055C61.7275 25.3171 85.2427 26.1496 99.588 36.9966C99.6443 30.1816 104.342 23.7471 110.896 19.7627C117.435 15.7903 125.635 14.0657 133.693 13.8992C149.122 13.5661 164.62 18.835 175.478 28.1121C186.349 37.3891 192.27 55.4556 191.736 68.5029C200.343 67.3611 212.888 74.3665 218.204 80.1943C232.156 95.4539 233.745 118.016 222.044 134.572C210.343 151.128 186.096 160.631 163.594 157.467C157.223 172.679 139.839 184.157 120.839 185.703C101.838 187.249 82.1908 178.793 72.5006 164.877C70.4754 161.975 68.7455 158.752 65.5108 156.778C61.8119 154.518 56.9598 154.351 52.4593 153.733C33.29 151.092 16.821 137.783 12.8127 121.715C8.8185 105.647 17.5523 87.8539 33.8244 78.8979Z" fill="white"/>
<path d="M50.2937 186.308C44.8814 186.308 40.4938 181.92 40.4938 176.508C40.4938 171.095 44.8814 166.708 50.2937 166.708C55.7061 166.708 60.0937 171.095 60.0937 176.508C60.0937 181.92 55.7061 186.308 50.2937 186.308Z" fill="white"/>
<path d="M27.2858 200.56C24.2917 200.56 21.8645 198.133 21.8645 195.139C21.8645 192.145 24.2917 189.718 27.2858 189.718C30.2798 189.718 32.707 192.145 32.707 195.139C32.707 198.133 30.2798 200.56 27.2858 200.56Z" fill="white"/>
</svg>
