<svg viewBox="0 0 342 275" fill="none" xmlns="http://www.w3.org/2000/svg">
<path d="M219.824 355.248C219.824 355.248 188.714 338.903 187.253 337.549C173.652 324.948 161.346 312.855 154.004 306.961C139.319 295.163 128.509 273.967 122.915 257.973C117.322 241.979 101.609 219.268 106.542 216.374C111.475 213.48 121.239 236.817 140.496 243.557C159.753 250.297 188.125 258.897 214.538 283.3C228.921 296.586 236.255 298.043 245.451 302.58L219.824 355.248Z" fill="url(#paint0_linear_166_195)"/>
<path d="M132.082 140.741C132.082 140.741 157.419 163.092 162.995 173.69C170.244 184.263 178.709 193.394 182.271 204.021C184.353 210.233 192.587 225.228 198.127 237.25C200.367 246.336 207.699 254.908 215.618 271.879C223.536 288.85 228.369 295.898 229.61 312.966C230.851 330.034 226.27 344.339 228.236 365.667C227.429 396.579 210.987 396.818 210.987 396.818L193.902 399.209C193.902 399.209 201.084 380.301 205.73 362.435C206.381 337.509 206.492 333.236 207.012 313.295C207.533 293.354 198.819 279.06 197.216 272.147C195.613 265.234 184.384 245.34 183.851 239.593C183.319 233.847 177.171 215.424 171.397 204.179C165.623 192.935 160.17 185.833 152.121 173.848C144.073 161.863 119.535 140.923 119.535 140.923L132.082 140.741Z" fill="url(#paint1_linear_166_195)"/>
<path d="M150.012 164.884C143.121 171.736 131.022 160.977 123.639 150.717C129.934 149.05 141.081 142.53 141.081 142.53C141.081 142.53 158.625 156.32 150.012 164.884Z" fill="url(#paint2_linear_166_195)"/>
<path d="M133.1 92.3892C133.1 92.3892 128.349 79.1158 129.933 69.6878C131.518 60.2598 132.806 55.16 134.369 54.302C135.932 53.4439 149.261 66.8137 152.396 71.9578C155.531 77.1019 161.171 100.377 161.171 100.377L144.893 108.772L133.1 92.3892Z" fill="url(#paint3_linear_166_195)"/>
<path d="M112.291 103.83C112.291 103.83 106.998 89.5018 108.286 79.4973C109.574 69.4928 110.424 63.8944 112.268 63.2313C114.112 62.5683 127.867 77.1173 131.225 82.6938C134.582 88.2703 141.136 113.322 141.136 113.322L124.858 121.716L112.291 103.83Z" fill="url(#paint4_linear_166_195)"/>
<path d="M96.289 118.709C96.289 118.709 86.892 106.678 85.0732 96.752C83.2544 86.8255 82.6944 81.3425 83.8997 80.0445C85.1049 78.7464 102.979 88.5142 107.872 92.8038C112.765 97.0935 126.61 118.965 126.61 118.965L113.69 131.9L96.289 118.709Z" fill="url(#paint5_linear_166_195)"/>
<path d="M63.3333 143.943C63.3333 143.943 53.9337 131.908 52.1175 121.987C50.3014 112.066 49.6111 107.182 50.9493 105.29C52.2875 103.398 70.0289 113.759 74.9219 118.049C79.815 122.339 93.6592 144.21 93.6592 144.21L80.7365 157.14L63.3333 143.943Z" fill="url(#paint6_linear_166_195)"/>
<path d="M79.0179 132.109C79.0179 132.109 69.6183 120.074 67.8021 110.152C65.986 100.231 65.3237 94.9712 66.6287 93.4579C67.9337 91.9446 85.7083 101.928 90.6014 106.217C95.4945 110.507 109.344 132.376 109.344 132.376L96.4237 145.311L79.0179 132.109Z" fill="url(#paint7_linear_166_195)"/>
<path d="M141.198 101.299C141.198 101.299 142.326 84.6165 146.493 73.1073C150.661 61.5982 151.404 55.7013 153.459 56.41C155.514 57.1186 151.763 66.6446 156.582 71.6497C161.401 76.6549 173.589 101.068 170.314 112.859C167.039 124.65 156.595 145.024 152.318 148.324C148.041 151.624 146.347 133.817 146.376 124.435C146.404 115.054 141.198 101.299 141.198 101.299Z" fill="url(#paint8_linear_166_195)"/>
<path d="M85.901 135.06C85.901 135.06 70.2111 129.323 58.0152 128.468C45.8192 127.612 39.0429 126.197 39.9453 128.062C40.8477 129.927 49.9782 130.665 52.589 137.102C55.1997 143.539 72.532 164.595 84.6311 166.399C96.7302 168.204 119.577 166.888 124.368 164.32C129.158 161.752 113.544 152.967 104.973 149.187C96.4019 145.407 85.901 135.06 85.901 135.06Z" fill="url(#paint9_linear_166_195)"/>
<path d="M147.34 153.371C147.34 153.371 159.508 145.103 158.703 128.075C157.898 111.047 154.631 102.754 146.81 92.3334C138.99 81.9133 133.687 68.9353 129.696 70.7544C125.705 72.5736 129.533 89.7796 127.611 95.7601C125.689 101.741 128.021 104.251 129.445 118.602C130.869 132.952 135.522 159.466 135.522 159.466L147.34 153.371Z" fill="url(#paint10_linear_166_195)"/>
<path d="M123.74 165.542C123.74 165.542 109.95 170.66 96.5665 160.119C83.183 149.579 78.3332 142.101 74.3971 129.678C70.4609 117.254 63.7611 103.181 66.7735 103.204C69.786 103.228 82.3438 114.116 88.3243 116.021C94.3048 117.926 95.0159 121.278 105.868 130.767C116.72 140.255 135.581 159.442 135.581 159.442L123.74 165.542Z" fill="url(#paint11_linear_166_195)"/>
<path d="M101.259 85.4217C103.373 81.9132 120.024 96.4636 128.063 104.1C136.103 111.737 144.025 123.492 145.723 131.149C147.421 138.806 148.539 150.416 145.709 155.126C142.879 159.835 135.929 159.355 131.614 157.516C127.299 155.677 112.62 134.406 108.965 120.04C105.31 105.674 99.1445 88.9301 101.259 85.4217Z" fill="url(#paint12_linear_166_195)"/>
<path d="M87.8834 103.008C91.2323 103.121 101.699 114.603 110.079 119.263C118.459 123.923 126.583 143.358 128.398 146.884C130.212 150.41 142.36 158.019 142.36 158.019C142.36 158.019 128.282 161.162 120.838 160.507C113.394 159.852 96.9576 149.986 91.2584 135.704C85.5592 121.421 84.5345 102.894 87.8834 103.008Z" fill="url(#paint13_linear_166_195)"/>
<path d="M207.869 322.781C215.124 283.953 205.867 262.675 205.671 241.491C205.444 217.051 218.542 187.63 217.071 171.868C215.601 156.106 221.43 133.166 227.803 120.453C234.175 107.741 249.54 86.1023 254.159 87.4029C258.777 88.7034 250.414 108.225 257.583 123.825C264.751 139.424 276.126 161.623 276.83 191.862C277.535 222.1 288.405 214.654 286.01 256.883C283.616 299.112 286.887 336.986 275.642 369.2C272.092 379.402 263.906 396.065 259.678 403.539L237.279 410.807C237.279 410.807 204.377 354.074 207.869 322.781Z" fill="url(#paint14_linear_166_195)"/>
<defs>
<linearGradient id="paint0_linear_166_195" x1="229.865" y1="347.886" x2="80.0378" y2="210.691" gradientUnits="userSpaceOnUse">
<stop offset="0.03" stop-color="#22494A"/>
<stop offset="1" stop-color="#83BC7E"/>
</linearGradient>
<linearGradient id="paint1_linear_166_195" x1="173.431" y1="213.386" x2="196.451" y2="202.673" gradientUnits="userSpaceOnUse">
<stop stop-color="#47734B"/>
<stop offset="0.5625" stop-color="#8EAF7C"/>
<stop offset="1" stop-color="#5C8559"/>
</linearGradient>
<linearGradient id="paint2_linear_166_195" x1="141.613" y1="166.471" x2="154.764" y2="153.058" gradientUnits="userSpaceOnUse">
<stop stop-color="#426E49"/>
<stop offset="0.807292" stop-color="#81A574"/>
</linearGradient>
<linearGradient id="paint3_linear_166_195" x1="125.01" y1="77.1383" x2="161.886" y2="88.1985" gradientUnits="userSpaceOnUse">
<stop offset="0.06" stop-color="#8EC0B5"/>
<stop offset="0.42" stop-color="#3B665E"/>
<stop offset="0.79" stop-color="#214849"/>
</linearGradient>
<linearGradient id="paint4_linear_166_195" x1="102.515" y1="87.6516" x2="142.125" y2="99.533" gradientUnits="userSpaceOnUse">
<stop offset="0.06" stop-color="#8EC0B5"/>
<stop offset="0.42" stop-color="#3B665E"/>
<stop offset="0.79" stop-color="#214849"/>
</linearGradient>
<linearGradient id="paint5_linear_166_195" x1="85.9626" y1="86.0959" x2="112.377" y2="117.969" gradientUnits="userSpaceOnUse">
<stop stop-color="#8EC0B5"/>
<stop offset="0.32" stop-color="#407A7F"/>
<stop offset="0.79" stop-color="#1E4542"/>
</linearGradient>
<linearGradient id="paint6_linear_166_195" x1="53.005" y1="111.332" x2="79.415" y2="143.201" gradientUnits="userSpaceOnUse">
<stop stop-color="#8EC0B5"/>
<stop offset="0.32" stop-color="#407A7F"/>
<stop offset="0.79" stop-color="#1E4542"/>
</linearGradient>
<linearGradient id="paint7_linear_166_195" x1="68.6887" y1="99.497" x2="95.0986" y2="131.366" gradientUnits="userSpaceOnUse">
<stop stop-color="#8EC0B5"/>
<stop offset="0.32" stop-color="#407A7F"/>
<stop offset="0.79" stop-color="#1E4542"/>
</linearGradient>
<linearGradient id="paint8_linear_166_195" x1="162.584" y1="52.8769" x2="151.226" y2="142.188" gradientUnits="userSpaceOnUse">
<stop offset="0.06" stop-color="#8EC0B5"/>
<stop offset="0.54" stop-color="#3F7E7E"/>
<stop offset="0.79" stop-color="#214849"/>
</linearGradient>
<linearGradient id="paint9_linear_166_195" x1="32.6207" y1="135.2" x2="118.782" y2="161.04" gradientUnits="userSpaceOnUse">
<stop offset="0.06" stop-color="#8EC0B5"/>
<stop offset="0.54" stop-color="#3F7E7E"/>
<stop offset="0.79" stop-color="#214849"/>
</linearGradient>
<linearGradient id="paint10_linear_166_195" x1="148.325" y1="68.6576" x2="137.542" y2="153.481" gradientUnits="userSpaceOnUse">
<stop offset="0.06" stop-color="#8EC0B5"/>
<stop offset="0.54" stop-color="#3F7E7E"/>
<stop offset="0.79" stop-color="#204D4A"/>
</linearGradient>
<linearGradient id="paint11_linear_166_195" x1="54.2541" y1="117.171" x2="129.535" y2="157.578" gradientUnits="userSpaceOnUse">
<stop offset="0.06" stop-color="#8EC0B5"/>
<stop offset="0.54" stop-color="#3F7E7E"/>
<stop offset="0.79" stop-color="#204D4A"/>
</linearGradient>
<linearGradient id="paint12_linear_166_195" x1="128.312" y1="85.3694" x2="119.869" y2="151.75" gradientUnits="userSpaceOnUse">
<stop offset="0.06" stop-color="#8EC0B5"/>
<stop offset="0.54" stop-color="#3F7E7E"/>
<stop offset="0.79" stop-color="#214849"/>
</linearGradient>
<linearGradient id="paint13_linear_166_195" x1="118.446" y1="104.188" x2="111.91" y2="155.603" gradientUnits="userSpaceOnUse">
<stop offset="0.06" stop-color="#8EC0B5"/>
<stop offset="0.54" stop-color="#3F7E7E"/>
<stop offset="0.79" stop-color="#346669"/>
</linearGradient>
<linearGradient id="paint14_linear_166_195" x1="297.662" y1="125.033" x2="253.726" y2="391.52" gradientUnits="userSpaceOnUse">
<stop stop-color="#669474"/>
<stop offset="1" stop-color="#22494A"/>
</linearGradient>
</defs>
</svg>
