<svg viewBox="0 0 266 176" fill="none" xmlns="http://www.w3.org/2000/svg">
<path d="M118.818 199.756C118.818 199.756 131.021 191.516 132.977 189.783C134.934 188.05 141.109 180.866 143.414 177.352C150.434 170.095 161.684 167.674 165.348 166.041C169.012 164.408 176.584 158.76 181.063 155.488C185.542 152.216 190.319 151.47 192.374 150.162C194.429 148.855 199.459 144.409 200.864 143.474C202.27 142.538 204.321 145.562 199.5 150.618C194.679 155.674 190.06 159.531 186.693 163.938C182.203 169.816 176.805 182.959 171.949 187.871C167.093 192.783 161.632 200.311 156.192 203.536C152.716 205.639 123.776 216.71 120.669 219.431L118.818 199.756Z" fill="url(#paint0_linear_166_138)"/>
<path d="M114.733 221.748C116.773 222.108 118.843 222.217 120.899 222.074C126.509 221.605 141.301 210.348 155.969 210.13C170.638 209.913 176.143 202.621 187.604 197.899C199.064 193.176 205.019 179.861 210.995 177.39C216.972 174.918 222.736 170.442 225.561 167.559C228.387 164.675 232.999 160.757 237.032 160.781C241.066 160.804 243.412 160.202 242.757 159.695C242.101 159.187 238.423 160.618 235.394 159.501C232.365 158.383 228.593 158.613 225.965 158.699C223.338 158.786 218.357 157.081 215.223 157.941C212.089 158.801 196.952 165.109 190.653 169.677C188.058 171.558 181.633 174.493 174.917 178.001C172.333 179.352 111.7 221.236 114.733 221.748Z" fill="url(#paint1_linear_166_138)"/>
<path d="M88.9921 166.262C91.7668 142.227 95.2101 126.971 94.0601 114.193C92.733 99.4512 91.1428 73.8802 89.4379 64.4798C87.7329 55.0795 90.971 43.1343 94.4421 34.9426C97.9133 26.7509 99.7124 12.6471 102.736 13.0599C105.76 13.4726 101.342 25.9373 106.693 34.7798C112.043 43.6222 120.41 56.111 122.323 74.3159C124.237 92.5208 130.846 87.1467 131.353 112.843C131.859 138.54 132.736 165.124 127.083 185.487C125.301 191.935 123.91 198.683 121.561 203.538L107.551 209.734C107.551 209.734 88.5686 169.959 88.9921 166.262Z" fill="url(#paint2_linear_166_138)"/>
<path d="M113.734 213.18C113.734 213.18 131.947 188.672 132.58 187.062C138.483 172.083 143.562 157.99 147.091 150.614C154.146 135.854 154.617 115.209 152.963 100.597C151.308 85.9859 155.049 62.3078 150.09 61.9063C145.132 61.5049 146.29 83.4286 133.741 95.9595C121.193 108.49 102.203 125.912 90.7143 154.948C84.4577 170.758 79.2596 174.663 73.7658 181.677L113.734 213.18Z" fill="url(#paint3_linear_166_138)"/>
<path d="M148.39 115.456C148.39 115.456 143.882 97.8746 147.296 86.0753C150.709 74.276 155.411 68.4511 157.488 69.7655C159.565 71.0799 160.921 69.9248 164.569 66.1778C168.218 62.4308 173.236 60.9645 173.236 60.9645C173.236 60.9645 182.656 55.2988 183.902 56.0889L185.149 56.879C185.149 56.879 193.174 52.3062 194.952 54.8277C196.73 57.3491 196.992 55.6558 200.047 54.3356C203.101 53.0153 207.323 51.5118 207.022 53.9847C206.72 56.4575 205.029 57.4918 205.029 57.4918C205.029 57.4918 209.091 56.2227 210.759 55.0718C212.427 53.9208 216.427 58.5114 216.572 58.7548L217.66 55.0216C217.66 55.0216 224.389 58.93 223.732 65.0915C223.074 71.253 226.258 63.7 227.252 67.7176C228.246 71.7351 227.157 72.906 227.157 72.906C227.157 72.906 232.743 76.2229 231.17 79.9894C230.208 82.2949 229.405 84.6636 228.766 87.0788C228.766 87.0788 232.839 86.1692 231.834 92.1699C230.829 98.1706 225.929 104.954 225.929 104.954C225.929 104.954 229.65 105.595 226.667 110.437C223.683 115.28 213.132 121.629 213.132 121.629C213.132 121.629 217.011 124.418 210.646 128.244L201.46 133.771C201.46 133.771 203.922 138.702 197.628 140.193C191.335 141.683 177.34 143.164 170.879 137.552C166.993 134.183 163.345 130.55 159.961 126.678C159.961 126.678 150.402 122.945 148.39 115.456Z" fill="url(#paint4_linear_166_138)"/>
<path d="M193.844 125.779C193.844 125.779 201.702 122.614 209.027 119.261C213.088 117.401 216.988 115.483 219.288 114.014C222.56 111.928 224.698 110.643 226.012 109.883C226.279 109.731 226.511 109.525 226.694 109.278C226.876 109.031 227.006 108.749 227.074 108.45C227.142 108.15 227.148 107.84 227.09 107.539C227.032 107.237 226.912 106.951 226.737 106.698C226.137 105.844 225.3 105.203 224.261 105.822C223.222 106.441 217.403 110.657 211.778 113.825C205.416 117.408 199.153 120.047 197.306 122.035L193.844 125.779Z" fill="url(#paint5_linear_166_138)"/>
<path d="M200.906 116.691C200.906 116.691 223.156 105.028 227.827 100.5C232.497 95.9719 232.652 88.5843 230.93 87.1561C229.208 85.728 223.64 92.2498 219.506 97.6005C211.429 108.019 205.59 111.441 204.629 111.846C203.669 112.251 200.906 116.691 200.906 116.691Z" fill="url(#paint6_linear_166_138)"/>
<path d="M163.523 127.379C163.523 127.379 166.805 106.982 168.163 100.633C169.521 94.284 177.51 78.7721 176.873 76.2142C176.236 73.6562 173.559 71.3426 169.288 74.7219C165.017 78.1012 158.495 91.6124 158.16 98.5475C157.825 105.483 156.777 114.196 158.785 121.411C160.793 128.626 163.523 127.379 163.523 127.379Z" fill="url(#paint7_linear_166_138)"/>
<path d="M208.334 84.054C208.334 84.054 220.171 70.1587 221.192 65.4457C222.212 60.7326 220.511 57.307 217.654 55.0319C214.615 52.6049 215.963 62.1877 213.241 67.4899C210.52 72.7922 207.409 80.1 206.945 80.8168C197.349 95.5133 208.334 84.054 208.334 84.054Z" fill="url(#paint8_linear_166_138)"/>
<path d="M161.35 130.939C161.35 130.939 169.992 138.978 185.324 135.51C200.656 132.042 221.291 119.964 222.762 121.592C224.232 123.221 224.366 126.831 219.408 130.865C214.45 134.898 193.573 142.115 185.555 142.123C177.537 142.132 175.839 142.271 171.574 139.557C167.309 136.842 158.102 131.957 161.35 130.939Z" fill="url(#paint9_linear_166_138)"/>
<path d="M193.063 77.6258C193.063 77.6258 206.128 60.1543 209.883 58.3017C213.573 56.4721 215.458 57.533 215.458 57.533L213.398 55.7019C212.215 54.6429 210.67 54.0765 209.082 54.1187C207.494 54.1609 205.982 54.8087 204.857 55.929C203.564 57.2239 201.929 58.9723 199.871 61.3369C191.702 70.6897 184.357 86.1319 182.336 91.614L187.377 85.529L193.063 77.6258Z" fill="url(#paint10_linear_166_138)"/>
<path d="M174.441 119.22C174.441 119.22 179.495 104.59 185.933 96.2013C192.371 87.8122 201.473 81.4047 200.758 79.7806C200.043 78.1565 190.818 83.8115 185.451 88.879C180.084 93.9465 171.229 113.394 169.796 117.389C168.362 121.384 172.28 124.838 174.441 119.22Z" fill="url(#paint11_linear_166_138)"/>
<path d="M216.323 98.3201C216.323 98.3201 230.885 85.0996 231.592 81.224C232.299 77.3485 228.969 74.3773 228.041 73.5151C227.113 72.6529 226.872 77.4551 224.347 81.3267C222.113 84.7414 212.351 95.4366 212.351 95.4366L216.323 98.3201Z" fill="url(#paint12_linear_166_138)"/>
<path d="M216.64 89.1198C216.64 89.1198 224.527 78.8429 226.208 75.3889C227.89 71.9349 227.716 67.9002 226.912 66.8784C226.107 65.8566 223.593 66.0539 223.593 66.0539C223.593 66.0539 221.695 73.703 219.13 77.8785C216.565 82.054 213.56 86.4579 213.56 86.4579L216.64 89.1198Z" fill="url(#paint13_linear_166_138)"/>
<path d="M181.789 77.4649C181.789 77.4649 194.401 62.5796 201.442 58.3446C208.483 54.1095 206.145 53.1464 205.15 52.5635C204.155 51.9805 195.986 54.7205 191.929 57.7535C187.872 60.7865 181.425 68.903 179.556 71.951C177.686 74.9989 181.789 77.4649 181.789 77.4649Z" fill="url(#paint14_linear_166_138)"/>
<path d="M166.266 74.783C166.266 74.783 192.655 56.5274 189.187 56.0712C185.719 55.6149 179.115 61.2973 173.458 65.5316C167.802 69.7658 166.266 74.783 166.266 74.783Z" fill="url(#paint15_linear_166_138)"/>
<path d="M157.465 75.7825C157.465 75.7825 176.758 61.8041 173.888 60.9821C171.019 60.1602 166.332 64.6963 162.236 67.9917C159.79 69.9579 158.104 72.7117 157.465 75.7825Z" fill="url(#paint16_linear_166_138)"/>
<path d="M168.801 131.645C168.801 131.645 184.853 132.416 196.182 121.376C207.512 110.335 214.223 104.038 212.033 102.26C209.843 100.481 200.474 105.548 193.935 112.019C187.396 118.489 183.216 123.763 177.689 126.269C172.161 128.776 164.811 126.555 162.803 127.763C160.795 128.971 162.62 132.634 168.801 131.645Z" fill="url(#paint17_linear_166_138)"/>
<path d="M159.778 131.035C159.778 131.035 161.233 141.994 176.526 147.714C191.819 153.434 213.602 148.565 215.945 145.613C218.288 142.661 219.258 137.446 213.963 138.056C208.668 138.666 189.27 142.532 175.215 136.153C169.285 133.46 163.676 127.406 162.266 128.253C160.857 129.099 159.778 131.035 159.778 131.035Z" fill="url(#paint18_linear_166_138)"/>
<path d="M161.772 123.245C161.772 123.245 154.371 117.929 154.675 105.81C154.979 93.6902 161.002 76.2559 159.545 75.3906C158.089 74.5254 155.333 74.9714 153.028 79.3317C150.724 83.6921 148.421 100.573 149.629 106.638C150.838 112.702 150.99 114.007 153.693 116.821C156.396 119.635 161.493 125.856 161.772 123.245Z" fill="url(#paint19_linear_166_138)"/>
<path d="M150.484 125.878C150.484 125.878 144.419 99.8819 147.093 91.201C149.768 82.5201 149.763 78.6981 150.514 72.2908C151.264 65.8835 146.51 61.8154 145.118 66.4896C143.726 71.1639 138.416 87.9488 140.388 97.9787C142.36 108.008 150.484 125.878 150.484 125.878Z" fill="url(#paint20_linear_166_138)"/>
<path d="M162.633 124.607C163.505 126.488 160.705 130.017 158.397 130.213C155.898 130.416 150.887 129.33 145.349 126.034C133.303 118.901 128.531 101.572 128.064 93.995C127.597 86.4177 130.235 79.8441 132.126 80.6427C134.017 81.4414 134.702 82.6163 141.285 96.988C147.867 111.36 153.718 115.201 157.098 118.57C158.85 120.322 161.861 122.95 162.633 124.607Z" fill="url(#paint21_linear_166_138)"/>
<path d="M121.483 226.411C121.483 226.411 131.523 193.988 133.615 181.324C135.707 168.661 139.429 161.853 144.801 154.816C150.174 147.779 164.124 132.204 163.953 128.574C163.783 124.945 159.78 125.01 159.657 127.563C159.534 130.116 157.474 135.304 150.862 141.791C144.25 148.278 136.931 150.221 131.799 164.899C126.667 179.578 117.932 214.676 108.758 228.642L121.483 226.411Z" fill="url(#paint22_linear_166_138)"/>
<defs>
<linearGradient id="paint0_linear_166_138" x1="147.398" y1="191.527" x2="193.798" y2="172.34" gradientUnits="userSpaceOnUse">
<stop stop-color="#699E67"/>
<stop offset="1" stop-color="#58875B"/>
</linearGradient>
<linearGradient id="paint1_linear_166_138" x1="131.673" y1="188.07" x2="242.648" y2="174.242" gradientUnits="userSpaceOnUse">
<stop offset="0.03" stop-color="#3B6246"/>
<stop offset="1" stop-color="#699E66"/>
</linearGradient>
<linearGradient id="paint2_linear_166_138" x1="117.423" y1="94.2118" x2="75.8602" y2="-100.472" gradientUnits="userSpaceOnUse">
<stop stop-color="#6B9C63"/>
<stop offset="1" stop-color="#5D6A51"/>
<stop offset="1" stop-color="#5F9460"/>
</linearGradient>
<linearGradient id="paint3_linear_166_138" x1="103.085" y1="211.213" x2="131.343" y2="58.4288" gradientUnits="userSpaceOnUse">
<stop offset="0.03" stop-color="#3A5D45"/>
<stop offset="1" stop-color="#6A9D66"/>
</linearGradient>
<linearGradient id="paint4_linear_166_138" x1="145.936" y1="125.179" x2="263.138" y2="49.4959" gradientUnits="userSpaceOnUse">
<stop offset="0.14" stop-color="#FFC153"/>
<stop offset="0.9" stop-color="#FFE0A9"/>
</linearGradient>
<linearGradient id="paint5_linear_166_138" x1="191.803" y1="121.264" x2="195.112" y2="95.2544" gradientUnits="userSpaceOnUse">
<stop stop-color="#FFC45B"/>
<stop offset="0.9" stop-color="#FFECC4"/>
</linearGradient>
<linearGradient id="paint6_linear_166_138" x1="197.443" y1="107.668" x2="214.751" y2="68.9943" gradientUnits="userSpaceOnUse">
<stop stop-color="#FFC45B"/>
<stop offset="0.9" stop-color="#FFECC4"/>
</linearGradient>
<linearGradient id="paint7_linear_166_138" x1="151.718" y1="108.137" x2="187.425" y2="66.3803" gradientUnits="userSpaceOnUse">
<stop stop-color="#FFC45B"/>
<stop offset="0.9" stop-color="#FFECC4"/>
</linearGradient>
<linearGradient id="paint8_linear_166_138" x1="198.58" y1="75.3335" x2="225.35" y2="47.9762" gradientUnits="userSpaceOnUse">
<stop stop-color="#FFC45B"/>
<stop offset="0.9" stop-color="#FFECC4"/>
</linearGradient>
<linearGradient id="paint9_linear_166_138" x1="185.157" y1="145.664" x2="221.153" y2="103.019" gradientUnits="userSpaceOnUse">
<stop stop-color="#FFC45B"/>
<stop offset="0.9" stop-color="#FFECC4"/>
</linearGradient>
<linearGradient id="paint10_linear_166_138" x1="177.584" y1="78.6906" x2="205.261" y2="33.2807" gradientUnits="userSpaceOnUse">
<stop stop-color="#FFC45B"/>
<stop offset="0.9" stop-color="#FFECC4"/>
</linearGradient>
<linearGradient id="paint11_linear_166_138" x1="164.603" y1="109.489" x2="190.225" y2="59.8283" gradientUnits="userSpaceOnUse">
<stop stop-color="#FFC45B"/>
<stop offset="0.9" stop-color="#FFECC4"/>
</linearGradient>
<linearGradient id="paint12_linear_166_138" x1="210.187" y1="89.7833" x2="230.607" y2="64.2286" gradientUnits="userSpaceOnUse">
<stop stop-color="#FFC45B"/>
<stop offset="0.9" stop-color="#FFECC4"/>
</linearGradient>
<linearGradient id="paint13_linear_166_138" x1="211.384" y1="80.5175" x2="230.535" y2="60.4869" gradientUnits="userSpaceOnUse">
<stop stop-color="#FFC45B"/>
<stop offset="0.9" stop-color="#FFECC4"/>
</linearGradient>
<linearGradient id="paint14_linear_166_138" x1="177.265" y1="69.9914" x2="192.832" y2="36.7786" gradientUnits="userSpaceOnUse">
<stop stop-color="#FFC45B"/>
<stop offset="0.9" stop-color="#FFECC4"/>
</linearGradient>
<linearGradient id="paint15_linear_166_138" x1="164.173" y1="69.5928" x2="172.255" y2="44.0148" gradientUnits="userSpaceOnUse">
<stop stop-color="#FFC45B"/>
<stop offset="0.9" stop-color="#FFECC4"/>
</linearGradient>
<linearGradient id="paint16_linear_166_138" x1="155.731" y1="71.3369" x2="163.752" y2="51.2163" gradientUnits="userSpaceOnUse">
<stop stop-color="#FFC45B"/>
<stop offset="0.9" stop-color="#FFECC4"/>
</linearGradient>
<linearGradient id="paint17_linear_166_138" x1="160.379" y1="127.069" x2="169.511" y2="82.2217" gradientUnits="userSpaceOnUse">
<stop stop-color="#FFC45B"/>
<stop offset="0.9" stop-color="#FFECC4"/>
</linearGradient>
<linearGradient id="paint18_linear_166_138" x1="163.385" y1="145.71" x2="195.761" y2="88.9298" gradientUnits="userSpaceOnUse">
<stop stop-color="#FFC45B"/>
<stop offset="0.9" stop-color="#FFECC4"/>
</linearGradient>
<linearGradient id="paint19_linear_166_138" x1="147.007" y1="107.475" x2="173.796" y2="73.7408" gradientUnits="userSpaceOnUse">
<stop stop-color="#FFC45B"/>
<stop offset="0.9" stop-color="#FFECC4"/>
</linearGradient>
<linearGradient id="paint20_linear_166_138" x1="136.813" y1="102.349" x2="168.637" y2="69.5817" gradientUnits="userSpaceOnUse">
<stop stop-color="#FFC45B"/>
<stop offset="0.9" stop-color="#FFECC4"/>
</linearGradient>
<linearGradient id="paint21_linear_166_138" x1="127.69" y1="106.176" x2="177.226" y2="85.2726" gradientUnits="userSpaceOnUse">
<stop stop-color="#FFC45B"/>
<stop offset="0.9" stop-color="#FFECC4"/>
</linearGradient>
<linearGradient id="paint22_linear_166_138" x1="190.182" y1="119.095" x2="66.2515" y2="229.872" gradientUnits="userSpaceOnUse">
<stop stop-color="#6D9B60"/>
<stop offset="1" stop-color="#3C6446"/>
</linearGradient>
</defs>
</svg>
