<svg width="111" height="99" viewBox="0 0 111 99" fill="none" xmlns="http://www.w3.org/2000/svg">
<path d="M24.098 26.5825C25.0527 28.8099 25.0644 31.0453 24.2722 32.7037C23.2271 35.0776 20.6668 36.8194 16.9784 38.0724C17.8613 40.7671 18.5422 43.268 19.1349 45.4448C19.2862 46.0006 18.9491 46.5898 18.3471 46.7537C17.6987 46.9303 17.202 46.568 17.0507 46.0122C16.4581 43.8355 15.7771 41.3345 14.9784 38.7661C11.627 39.4299 6.24681 39.4023 4.03846 35.1283C3.23922 33.6545 2.57091 31.1999 3.58227 28.8849C4.57255 26.6751 6.87199 24.7059 10.7541 23.2509C19.9541 19.9501 23.1559 24.4013 24.098 26.5825ZM6.37503 34.9399C7.98223 37.1886 11.5142 37.3712 14.474 36.9136C13.0067 32.4378 10.6268 25.5242 10.6268 25.5242C8.29417 26.4578 6.21393 27.7704 5.48068 29.4624C4.91596 30.8599 4.9235 32.8974 6.37503 34.9399ZM22.4327 32.1598C23.0731 31.0403 23.0275 29.411 22.3167 27.7141C21.3116 25.3015 18.8877 22.9766 13.6079 24.4141C13.2837 24.5023 12.9721 24.6369 12.6016 24.7378C13.0432 25.8115 15.0445 31.883 16.5118 36.3587C19.657 35.3034 21.5353 33.7971 22.4327 32.1598ZM38.6803 51.8636C38.0235 52.1917 37.489 51.6905 37.3292 51.2863C35.9832 48.7177 34.5491 45.2776 33.1276 41.8838C31.378 37.8331 29.7 33.8625 28.6566 32.4054C28.3452 31.9927 28.2613 31.3191 28.6825 30.8562C28.9563 30.5827 29.4657 30.444 29.853 30.5873C30.1224 30.6632 30.3033 30.9622 30.3033 30.9622C30.6951 30.2088 31.8617 29.1947 32.6449 28.7824C33.5418 28.2398 34.7123 27.9708 35.7816 27.8787C37.6635 27.6648 40.2397 28.3563 41.4133 30.4744C42.2252 31.9945 42.4854 33.8638 41.7859 35.4969C40.5975 38.2581 37.3929 40.3743 35.0772 41.0048C36.406 44.4238 37.8908 47.5018 39.2199 50.3735C39.5227 50.9378 39.3035 51.5944 38.6803 51.8636ZM34.3075 39.2742C36.1137 38.7824 38.7541 36.9691 39.6181 34.8435C40.0606 33.728 39.9769 32.5071 39.3753 31.5765C38.5465 30.3595 36.989 29.9378 35.6502 29.9541C33.5916 30.0669 31.8229 31.2449 31.174 32.516C32.0111 34.1287 33.2015 36.491 34.3075 39.2742ZM53.7133 24.8371C55.7837 26.9598 57.654 34.0122 54.9584 37.0842C54.1834 37.8922 52.7644 38.5273 51.4213 38.8929C49.9393 39.2965 48.4868 39.4432 47.6112 39.3333C47.085 39.2279 46.6095 38.7604 46.7149 38.2342C46.7741 37.7206 47.4058 37.2999 47.932 37.4054C49.4727 37.5828 52.3609 37.0452 53.3044 35.9426C54.2016 34.8527 54.2025 32.6635 53.8118 30.6805C53.4876 30.7688 48.5405 31.9665 48.0774 32.0926C47.5216 32.2439 46.945 31.9531 46.7811 31.3511C46.6297 30.7953 46.9668 30.2061 47.5225 30.0547C47.8467 29.9665 52.5623 28.8318 53.257 28.6427C52.9796 27.6238 52.4958 26.7605 52.0203 26.293C48.4267 22.5952 46.077 23.8319 44.523 25.25C44.1607 25.7466 43.4029 25.7042 43.0453 25.3041C42.6876 24.904 42.73 24.1462 43.1301 23.7885C45.358 21.7393 49.1939 20.297 53.7133 24.8371ZM67.4085 20.5115C67.8748 22.7724 70.1193 31.0163 70.2832 31.6184C70.3967 32.0352 70.1901 32.7382 69.4954 32.9273C68.8007 33.1164 68.3041 32.7542 68.115 32.0595C67.9889 31.5963 66.9423 27.7523 66.8162 27.2891L61.4142 29.0086C61.9059 30.8149 62.2842 32.2043 62.4353 33.3074C62.5025 33.7368 62.4011 34.4609 61.5675 34.6878C60.9191 34.8644 60.3762 34.5147 60.2712 33.9463C59.8848 31.6139 57.4046 23.2352 57.3331 23.1551C57.1144 22.7172 57.4136 21.989 58.062 21.8125C58.6641 21.6486 59.2533 21.9856 59.4172 22.5877C59.4424 22.6803 60.1277 24.8319 60.7834 27.2402L66.3244 25.4829C65.883 23.8619 65.4039 22.1019 65.2065 21.0115C65.0889 20.3968 65.4848 19.8413 66.0869 19.6773C66.8153 19.4293 67.2572 19.9557 67.4085 20.5115ZM75.1293 30.5477C74.502 30.619 74.0013 30.0589 73.9678 29.5705C73.5194 24.8174 69.8341 18.9556 69.7962 18.8167C69.5523 18.2861 69.5988 17.7262 70.1505 17.377C70.5884 17.1583 71.1357 17.1586 71.5649 17.6387C72.1961 18.3125 73.2308 20.4684 73.9122 21.8748L74.0511 21.837C74.2492 21.2856 74.5232 20.4648 74.8646 19.5261C76.07 16.4618 77.1613 14.0753 77.431 13.6039C77.6543 13.1451 78.3238 12.8634 78.7826 13.0867C79.3003 13.3437 79.3716 13.971 79.2198 14.5098C79.1987 14.615 78.5118 16.2945 77.61 18.2812C77.5004 18.6095 76.8978 19.868 76.822 20.1374L76.8935 20.2174C77.5123 20.2977 78.7541 20.656 79.2718 20.9131C82.2097 22.2025 84.162 24.8051 84.5575 25.3441C84.8225 25.7694 84.9779 26.5231 84.4978 26.9523C84.0177 27.3815 83.1632 27.1664 82.8519 26.7537C81.2403 24.8544 77.9789 22.0113 75.9539 22.0651C75.4988 23.1343 75.17 24.1192 75.0645 24.6454C75.5859 26.1949 76.1198 27.7906 76.1402 29.3273C76.1737 29.8156 75.8366 30.4049 75.1293 30.5477ZM33.6262 82.4082C33.8701 82.9387 34.0634 83.8313 33.2676 84.1972C32.5307 84.5968 31.8825 84.2261 31.5923 83.7081C30.5995 81.889 29.325 79.4004 27.8233 76.6255C26.4086 76.9112 21.6594 78.1047 20.4089 78.4452C20.2942 80.7648 20.2084 84.4694 20.0685 86.6964C20.0809 87.29 19.6008 87.7192 18.9735 87.7905C18.3925 87.8492 17.9718 87.2175 17.9846 86.7165C18.1977 80.7386 18.6924 65.9285 18.8112 63.8067C18.9846 62.0681 19.6752 61.6811 20.4288 61.5257C21.334 61.3787 22.1926 61.7917 22.8573 62.9539C25.8903 68.247 33.6262 82.4082 33.6262 82.4082ZM20.4603 76.4413C22.0813 76 25.2684 75.2814 26.8431 74.8527C24.8955 71.3535 23.4779 68.7048 21.8205 65.7235C21.627 65.3782 21.2147 64.595 20.9456 63.9718L20.8529 63.9971C20.8612 64.3928 20.8525 65.0916 20.8522 65.6389C20.7419 67.6091 20.7194 70.998 20.4603 76.4413ZM43.7237 68.4161C44.1901 70.677 46.4346 78.9209 46.5985 79.523C46.712 79.9398 46.5054 80.6427 45.8107 80.8319C45.116 81.021 44.6194 80.6588 44.4302 79.9641C44.3041 79.5009 43.2575 75.6569 43.1314 75.1937L37.7294 76.9132C38.2212 78.7195 38.5995 80.1089 38.7506 81.212C38.8177 81.6414 38.7164 82.3654 37.8827 82.5924C37.2343 82.769 36.6914 82.4193 36.5864 81.8509C36.2001 79.5185 33.7199 71.1398 33.6484 71.0597C33.4296 70.6218 33.7288 69.8936 34.3772 69.7171C34.9793 69.5532 35.5686 69.8902 35.7325 70.4923C35.7577 70.5849 36.443 72.7365 37.0987 75.1448L42.6397 73.3875C42.1983 71.7665 41.7191 70.0065 41.5217 68.9161C41.4041 68.3014 41.8001 67.7459 42.4022 67.5819C43.1306 67.3339 43.5724 67.8603 43.7237 68.4161ZM55.1747 78.0834C52.7453 78.8444 50.4724 77.6225 49.3238 76.1444C47.2032 73.2891 46.9644 70.7673 47.2934 69.2351C47.652 67.446 48.5409 65.9603 49.9643 64.9758C51.5014 63.8609 53.2739 63.428 54.7135 63.7823C56.3047 64.145 57.6556 65.2696 58.6105 66.9498C58.9008 67.4677 58.7153 68.0654 58.21 68.402C57.5194 68.789 56.8375 68.4772 56.6188 68.0393C55.9541 66.8771 55.2136 65.9842 54.1612 65.7733C53.214 65.5834 52.2162 65.7556 51.1845 66.534C50.1864 67.2535 49.4997 68.3856 49.314 69.5306C49.0691 71.1892 49.6535 72.9703 51.0335 74.9326C51.6941 75.897 52.7042 76.3184 53.6473 76.3104C55.2302 76.2774 56.9651 75.1583 58.1363 73.2475C58.4523 72.7635 59.2018 72.4102 59.8036 72.7936C60.3592 73.1896 60.422 73.9684 60.0471 74.4187C58.7329 76.1695 57.0146 77.5327 55.1747 78.0834ZM67.2591 73.7486C64.6999 72.7539 63.148 69.2464 62.122 66.3917C61.4535 64.4843 58.0224 54.6233 58.3231 50.6114C58.6363 46.6459 60.6448 45.8005 62.0383 45.6201C65.057 45.1962 66.3354 48.4299 66.4986 50.6739C66.6912 53.2083 66.4708 56.6014 66.1074 59.8344C66.0143 60.9542 65.7272 62.8233 65.6258 63.5473L65.7437 63.6147C66.2745 62.8235 68.418 61.1952 70.9648 61.5962C73.2674 62.014 75.8216 64.9999 76.0476 68.0227C76.1856 70.174 75.1997 72.0343 73.0438 73.0691C70.7152 74.2005 68.3745 74.1911 67.2591 73.7486ZM64.7319 67.0243C65.148 68.5527 66.3888 71.1002 67.7862 71.6649C68.8301 72.0274 70.0804 72.2342 71.9373 71.3804C73.3437 70.699 74.0852 69.4027 73.93 68.1018C73.7709 66.0557 72.1719 64.2027 70.6945 63.7095C68.7371 63.0982 65.6967 65.2692 64.7319 67.0243ZM62.2605 47.8978C61.1911 47.9899 60.6097 49.1432 60.55 50.7513C60.4516 54.4097 63.096 62.8432 63.5669 64.2074L63.7185 64.2159C63.8116 63.0961 63.9345 61.1722 64.0528 60.1451C64.2647 56.9035 64.384 53.6872 64.1451 51.1654C64.0825 49.8393 63.6203 47.7762 62.2605 47.8978ZM85.9369 69.509C83.5411 70.211 80.923 69.1826 79.7829 67.5529C77.6371 64.6051 77.794 62.075 78.203 60.4712C78.7006 58.6444 80.1368 57.1589 81.9348 56.2714C84.6801 55.0264 87.6224 55.9665 89.0405 57.5206C89.84 58.4471 90.0248 59.4912 89.6455 60.2909C88.9671 61.8188 84.3687 64.6627 81.5307 65.9329C81.9764 67.2045 83.7695 67.7609 84.5021 67.7107C86.1987 67.5473 87.7989 66.6639 89.0794 64.9721C89.408 64.5344 90.0774 64.2526 90.6541 64.5433C91.1381 64.8593 91.3061 65.6592 90.9312 66.1095C89.617 67.8603 87.8231 68.9456 85.9369 69.509ZM82.6959 58.1535C81.5085 58.7256 80.5861 59.7229 80.2614 60.9057C80.059 61.8066 80.1427 63.0275 80.5379 64.1138C82.7821 63.4033 86.4753 60.7063 87.3599 59.57C87.4736 59.4396 87.4443 59.1491 87.3012 58.9891C87.0992 58.7953 86.8257 58.5216 86.4721 58.3193C85.34 57.6326 84.0223 57.5437 82.6959 58.1535ZM102.061 76.0634C101.404 76.3915 100.869 75.8903 100.71 75.4861C99.3635 72.9175 97.9294 69.4774 96.5079 66.0836C94.7584 62.033 93.0803 58.0623 92.0369 56.6052C91.7256 56.1925 91.6417 55.5189 92.0628 55.056C92.3366 54.7825 92.8461 54.6438 93.2333 54.7871C93.5027 54.863 93.6836 55.162 93.6836 55.162C94.0754 54.4086 95.242 53.3945 96.0252 52.9823C96.9222 52.4396 98.0926 52.1706 99.162 52.0785C101.044 51.8646 103.62 52.5561 104.794 54.6742C105.606 56.1943 105.866 58.0636 105.166 59.6967C103.978 62.4579 100.773 64.5741 98.4575 65.2046C99.7863 68.6236 101.271 71.7016 102.6 74.5733C102.903 75.1376 102.684 75.7942 102.061 76.0634ZM97.6878 63.474C99.4941 62.9822 102.134 61.1689 102.998 59.0433C103.441 57.9278 103.357 56.7069 102.756 55.7763C101.927 54.5593 100.369 54.1376 99.0306 54.1539C96.9719 54.2667 95.2032 55.4447 94.5544 56.7158C95.3914 58.3285 96.5818 60.6908 97.6878 63.474Z" fill="#333333"/>
</svg>
