<svg viewBox="0 0 160 160" fill="none" xmlns="http://www.w3.org/2000/svg">
<mask id="mask0_88_1565" style="mask-type:alpha" maskUnits="userSpaceOnUse" x="0" y="0" width="160" height="160">
<circle cx="80" cy="80" r="80" fill="#D9D9D9"/>
</mask>
<g mask="url(#mask0_88_1565)">
<circle cx="80" cy="80" r="80" fill="white"/>
<path opacity="0.1" d="M185.071 198.199C181.759 199.323 178.18 199.41 174.816 198.449C171.453 197.488 168.469 195.526 166.267 192.827C159.007 184.08 147.397 166.435 150.849 145.819C155.791 116.472 193.279 139.909 196.224 172.899C197.696 189.452 191.57 195.882 185.071 198.199Z" fill="#30B8B8"/>
<path d="M141.486 207.575C134.563 147.999 121.09 124.149 121.09 124.149C108.886 174.033 118.406 201.152 122.517 214.154C126.628 227.157 164.309 274.101 164.309 274.101C166.952 270.636 170.656 268.13 174.856 266.965C174.856 266.965 162.896 245.784 158.656 237.933C154.417 230.083 141.486 207.575 141.486 207.575Z" fill="#2E998B"/>
<path d="M138.643 283.407C132.737 286.185 126.653 288.569 120.431 290.544C118.761 291.058 117.063 291.557 115.35 291.971C106.334 294.465 97.0411 295.818 87.6886 295.996C71.5683 296.42 55.6701 292.166 41.9149 283.75L51.7776 225.073L35.4492 129.644L59.8847 121.265L61.1978 120.823L63.6099 119.995L64.6233 119.638L66.6929 118.939L71.0462 117.512L96.8947 120.966L98.4505 121.165L101.105 121.522L102.533 121.722L121.088 124.191L138.643 283.407Z" fill="#3EB1A2"/>
<path d="M115.358 291.985C106.342 294.48 97.0491 295.832 87.6966 296.01C88.1248 293.384 88.4673 290.663 88.7242 287.846C88.867 286.419 88.9812 284.992 89.0811 283.564C89.2666 280.71 89.4093 277.855 89.4664 274.886C89.4664 273.459 89.4664 272.032 89.4664 270.604C89.4664 267.75 89.4664 264.895 89.3665 261.969C89.3665 260.542 89.2666 259.115 89.2095 257.687C89.0953 254.833 88.9241 251.978 88.7242 249.123C88.6243 247.696 88.5244 246.269 88.4102 244.913C88.1819 242.058 87.9107 239.204 87.6252 236.349C87.4825 234.922 87.3254 233.494 87.1684 232.139C86.8544 229.284 86.5119 226.429 86.1408 223.575C85.9552 222.147 85.7697 220.72 85.5699 219.293C85.1797 216.438 84.7658 213.584 84.3281 210.729C84.114 209.302 83.8999 207.874 83.6716 206.518C83.2148 203.664 82.7296 200.809 82.2443 197.955C82.0016 196.527 81.7447 195.1 81.502 193.673C80.9692 190.818 80.4363 187.963 79.9035 185.109C79.6323 183.681 79.3611 182.254 79.0756 180.827C78.5047 177.915 77.9243 175.061 77.3343 172.263C77.0394 170.836 76.7396 169.408 76.4351 167.981C75.8071 165.041 75.1791 162.158 74.5368 159.417C74.2228 157.99 73.8945 156.563 73.5805 155.135C72.8954 152.157 72.2151 149.279 71.5395 146.5C71.1969 145.073 70.8544 143.646 70.5118 142.218C69.7553 139.15 69.0845 136.252 68.328 133.555C67.9569 132.127 67.5858 130.7 67.229 129.273C66.2441 125.519 65.345 122.207 64.5742 119.453L66.6438 118.753L70.9971 117.326L96.8456 120.78L98.4014 120.98C98.8771 123.425 99.3529 125.871 99.8287 128.316C100.086 129.744 100.328 131.1 100.571 132.484C101.056 135.267 101.541 138.065 101.998 140.848C102.241 142.275 102.469 143.631 102.683 145.03C103.14 147.885 103.568 150.611 103.996 153.394C104.21 154.821 104.41 156.177 104.61 157.576C105.029 160.374 105.428 163.162 105.809 165.94C106.009 167.367 106.194 168.795 106.38 170.136C106.765 172.991 107.122 175.731 107.479 178.515C107.65 179.942 107.822 181.369 108.007 182.711C108.35 185.566 108.678 188.32 108.992 191.089L109.463 195.371C109.777 198.226 110.077 201.023 110.362 203.764C110.519 205.191 110.662 206.618 110.79 208.046C111.076 210.9 111.347 213.755 111.604 216.452C111.728 217.88 111.856 219.307 111.989 220.734C112.246 223.589 112.475 226.444 112.703 229.155C112.817 230.583 112.931 232.01 113.031 233.437C113.26 236.292 113.464 239.104 113.645 241.873C113.745 243.3 113.845 244.727 113.93 246.155C114.13 249.009 114.287 251.864 114.444 254.619C114.53 256.046 114.601 257.473 114.673 258.9C114.83 261.855 114.958 264.695 115.058 267.393C115.058 268.82 115.172 270.248 115.215 271.675C115.315 274.744 115.386 277.598 115.429 280.239C115.429 281.752 115.429 283.193 115.429 284.521C115.472 287.404 115.429 289.93 115.358 291.985Z" fill="white"/>
<path d="M100.57 132.627C93.1025 133.542 85.5845 133.98 78.0613 133.94C74.9498 133.94 71.7241 133.94 68.3842 133.754C68.0131 132.327 67.642 130.9 67.2852 129.472C78.142 130.042 89.0274 129.703 99.8277 128.459C100.085 129.844 100.327 131.242 100.57 132.627Z" fill="#E2E2E2"/>
<path d="M102.681 145.173C94.4305 146.28 86.1125 146.805 77.7886 146.743C75.7761 146.743 73.7065 146.743 71.5941 146.671C71.2515 145.244 70.909 143.817 70.5664 142.39C81.0548 142.787 91.5581 142.31 101.967 140.962C102.238 142.39 102.467 143.774 102.681 145.173Z" fill="#E2E2E2"/>
<path d="M104.605 157.719C95.6265 159.029 86.5604 159.649 77.4867 159.574H74.6321C74.318 158.147 73.9898 156.72 73.6758 155.292C83.827 155.548 93.9818 154.956 104.035 153.523C104.22 154.936 104.406 156.32 104.605 157.719Z" fill="#E2E2E2"/>
<path d="M35.4543 129.658C35.4543 129.658 18.3266 183.253 16.7852 210.815C16.7852 210.815 16.7851 262.369 41.9343 297.723L53.1101 289.159C53.1101 289.159 39.0226 237.862 39.0226 217.865C39.0226 217.865 53.2956 180.756 55.6364 166.083C55.6935 166.083 46.0306 129.658 35.4543 129.658Z" fill="#3EB1A2"/>
<path d="M90.3801 103.923L90.0049 110.922L89.5431 119.681C89.5431 119.681 87.797 122.986 79.9468 122.986C72.0965 122.986 70.4803 120.72 70.4803 120.72L70.1628 116.838L69.1094 103.851L90.3801 103.923Z" fill="#FFAF82"/>
<path d="M90.3801 103.923L90.0049 110.922C86.7291 113.375 78.9799 118.137 70.1628 116.838L69.1094 103.851L90.3801 103.923Z" fill="#F88968"/>
<path d="M55.6903 72.118C55.6903 72.118 49.6872 66.2303 44.8674 70.0689C39.1962 74.6001 45.1272 90.9355 55.1997 89.2038L55.6903 72.118Z" fill="#FFA378"/>
<path d="M52.1807 85.1488C51.9337 85.1423 51.6979 85.0441 51.5192 84.8734C51.3405 84.7027 51.2317 84.4717 51.2139 84.2252C50.5789 76.1874 45.8601 74.8021 45.6725 74.7443C45.4161 74.6774 45.1968 74.5113 45.0628 74.2826C44.9289 74.0539 44.8912 73.7814 44.9582 73.5249C45.0252 73.2685 45.1913 73.0492 45.42 72.9153C45.6486 72.7813 45.9212 72.7437 46.1776 72.8106C46.4229 72.8828 52.4405 74.5423 53.2053 84.0665C53.2172 84.1973 53.203 84.3293 53.1637 84.4546C53.1243 84.58 53.0606 84.6963 52.9761 84.7969C52.8916 84.8975 52.788 84.9804 52.6713 85.0408C52.5546 85.1012 52.4271 85.1379 52.2962 85.1488H52.1807Z" fill="#F88968"/>
<path d="M46.5526 81.0505C46.3103 81.04 46.0798 80.9427 45.9033 80.7763C45.8055 80.6833 45.7276 80.5714 45.6744 80.4473C45.6212 80.3233 45.5938 80.1898 45.5938 80.0548C45.5938 79.9198 45.6212 79.7863 45.6744 79.6622C45.7276 79.5382 45.8055 79.4263 45.9033 79.3333C46.6083 78.6684 47.4716 78.1948 48.4111 77.9574C49.3506 77.72 50.3353 77.7267 51.2715 77.9768C51.3984 78.009 51.5178 78.0659 51.6228 78.1443C51.7277 78.2226 51.8163 78.3209 51.8833 78.4334C51.9503 78.546 51.9944 78.6706 52.0133 78.8003C52.0321 78.9299 52.0252 79.062 51.993 79.189C51.9608 79.3159 51.9039 79.4353 51.8255 79.5403C51.7472 79.6452 51.6489 79.7338 51.5363 79.8008C51.4238 79.8678 51.2991 79.9119 51.1695 79.9308C51.0399 79.9496 50.9078 79.9427 50.7808 79.9105C50.1882 79.7394 49.5616 79.7224 48.9605 79.8613C48.3595 80.0002 47.8039 80.2904 47.3464 80.7042C47.248 80.8171 47.1258 80.9068 46.9885 80.9667C46.8512 81.0266 46.7023 81.0552 46.5526 81.0505Z" fill="#F88968"/>
<path d="M101.637 72.118C101.637 72.118 107.654 66.2303 112.46 70.0689C118.131 74.6001 112.2 90.9355 102.127 89.2038L101.637 72.118Z" fill="#FFA378"/>
<path d="M105.185 85.1488C105.432 85.1422 105.668 85.0441 105.846 84.8734C106.025 84.7027 106.134 84.4717 106.152 84.2252C106.787 76.1874 111.506 74.802 111.708 74.7443C111.964 74.6754 112.182 74.5075 112.315 74.2775C112.448 74.0474 112.484 73.7741 112.415 73.5177C112.346 73.2613 112.178 73.0427 111.948 72.9101C111.718 72.7775 111.444 72.7417 111.188 72.8106C110.943 72.8828 104.925 74.5423 104.16 84.0665C104.148 84.1973 104.163 84.3292 104.202 84.4546C104.241 84.58 104.305 84.6963 104.39 84.7969C104.474 84.8975 104.578 84.9804 104.694 85.0408C104.811 85.1012 104.939 85.1379 105.069 85.1488H105.185Z" fill="#F88968"/>
<path d="M110.811 81.0505C111.054 81.0427 111.285 80.945 111.46 80.7763C111.558 80.6833 111.636 80.5714 111.689 80.4473C111.742 80.3233 111.77 80.1898 111.77 80.0548C111.77 79.9198 111.742 79.7863 111.689 79.6622C111.636 79.5382 111.558 79.4263 111.46 79.3333C110.755 78.6684 109.892 78.1948 108.952 77.9574C108.013 77.72 107.028 77.7267 106.092 77.9768C105.965 78.009 105.846 78.0659 105.741 78.1443C105.636 78.2226 105.547 78.3209 105.48 78.4334C105.413 78.546 105.369 78.6706 105.35 78.8003C105.331 78.9299 105.338 79.062 105.37 79.189C105.403 79.3159 105.46 79.4353 105.538 79.5403C105.616 79.6452 105.715 79.7338 105.827 79.8008C105.94 79.8678 106.064 79.9119 106.194 79.9308C106.324 79.9496 106.456 79.9427 106.583 79.9105C107.175 79.7394 107.802 79.7224 108.403 79.8613C109.004 80.0002 109.56 80.2904 110.017 80.7042C110.115 80.8171 110.238 80.9068 110.375 80.9667C110.512 81.0266 110.661 81.0552 110.811 81.0505Z" fill="#F88968"/>
<path d="M78.9803 110.792C58.2003 110.792 51.7787 86.0868 49.8594 68.0053C49.4398 64.0627 49.8466 60.0759 51.0539 56.2993C52.2611 52.5227 54.2423 49.0392 56.871 46.0711C59.4997 43.1029 62.7182 40.7153 66.3213 39.0605C69.9243 37.4057 73.8327 36.52 77.7971 36.4601H79.2401C83.1732 36.4992 87.0558 37.3503 90.6446 38.9601C94.2334 40.57 97.4509 42.9038 100.095 45.8153C102.74 48.7268 104.755 52.1532 106.013 55.8798C107.272 59.6063 107.747 63.5526 107.409 67.4714C105.749 85.7838 99.7748 110.792 78.9803 110.792Z" fill="#FFAF82"/>
<path d="M105.644 23.6024C116.192 30.8177 106.654 44.8875 106.654 44.8875C106.654 44.8875 117.159 55.1621 106.351 79.3622L104.417 78.9725C105.333 72.7819 105.333 66.49 104.417 60.2994C102.974 55.8836 95.1958 53.517 95.5854 48.7549C95.5854 48.7549 71.7894 56.1867 58.9173 48.8848C58.25 52.5421 56.6884 55.9776 54.3717 58.8852C51.4134 62.1176 53.0874 73.3158 53.477 78.2654L51.5 78.453C50.3312 73.4889 47.4595 64.542 47.1709 61.9156C46.9833 60.2561 46.2761 53.6613 45.9731 48.9281C45.6405 44.814 46.4232 40.6863 48.2387 36.9795C49.2684 34.8034 50.79 32.8964 52.6833 31.4093C59.6533 26.2576 96.0761 17.0509 105.644 23.6024Z" fill="#32324C"/>
<path d="M92.6558 86.5053C92.4 87.2826 92.0765 88.0359 91.6889 88.7565C90.5547 90.9342 88.9111 92.8055 86.898 94.2112C86.6094 94.3988 86.3207 94.5864 86.0177 94.7596C84.0943 95.811 81.9321 96.3478 79.7404 96.3181C77.7504 96.3447 75.7793 95.9307 73.9681 95.1059C73.6939 94.9761 73.4342 94.8318 73.1745 94.6874C71.1246 93.5042 69.4224 91.8021 68.2392 89.7522C67.7704 88.9544 67.379 88.1136 67.0703 87.2413C67.0703 87.2413 67.4455 87.4577 68.0949 87.7608C71.6753 89.4012 75.5713 90.2385 79.5095 90.214H79.9857C83.9745 90.0791 87.8833 89.0587 91.4291 87.2268C92.194 86.8084 92.6125 86.5342 92.6558 86.5053Z" fill="#920E08"/>
<path d="M86.0222 94.7596C84.0989 95.8109 81.9366 96.3478 79.7449 96.3181C77.755 96.3447 75.7838 95.9307 73.9727 95.1059C75.8809 94.1298 78.007 93.6579 80.1489 93.735C82.1528 93.716 84.1432 94.0632 86.0222 94.7596Z" fill="#F85C66"/>
<path d="M92.6558 86.5053C92.4 87.2826 92.0765 88.0359 91.6889 88.7565C88.2162 90.877 84.2128 91.9679 80.1444 91.9023C76.0739 91.967 72.0299 91.2367 68.2392 89.7522C67.7704 88.9544 67.379 88.1136 67.0703 87.2413C67.0703 87.2413 67.4455 87.4577 68.0949 87.7608C71.6753 89.4012 75.5713 90.2385 79.5095 90.214H79.9857C83.9745 90.0791 87.8833 89.0587 91.4291 87.2268C92.194 86.8084 92.6125 86.5342 92.6558 86.5053Z" fill="white"/>
<path d="M69.2521 72.0747C69.2521 74.1527 68.3286 75.8411 67.1886 75.8411C66.0485 75.8411 65.125 74.1527 65.125 72.0747C65.125 69.9967 66.0485 68.3228 67.1886 68.3228C68.3286 68.3228 69.2521 70.0689 69.2521 72.0747Z" fill="#32324C"/>
<path d="M59.9297 66.1582C60.2556 63.5038 61.5883 61.0759 63.6528 59.3758C65.6884 57.845 68.24 57.1669 70.767 57.4854C71.0665 57.5366 71.3381 57.6922 71.5336 57.9247C71.7291 58.1572 71.8358 58.4515 71.8349 58.7553C71.8343 58.9369 71.7951 59.1164 71.7199 59.2818C71.6448 59.4472 71.5355 59.5948 71.3991 59.7148C71.2627 59.8349 71.1024 59.9246 70.9287 59.9781C70.7551 60.0316 70.5721 60.0476 70.3919 60.0252C68.0974 59.8087 63.2343 60.2128 59.9297 66.1582Z" fill="#32324C"/>
<path d="M89.5273 72.0747C89.5273 74.1527 90.4509 75.8411 91.591 75.8411C92.731 75.8411 93.669 74.1527 93.669 72.0747C93.669 69.9967 92.7454 68.3228 91.591 68.3228C90.4365 68.3228 89.5273 70.0689 89.5273 72.0747Z" fill="#32324C"/>
<path d="M98.6205 66.4468C98.4318 63.7791 97.2286 61.285 95.2582 59.4768C93.3044 57.8388 90.787 57.0307 88.2449 57.2257C87.9423 57.257 87.6613 57.3972 87.4543 57.6202C87.2472 57.8431 87.1282 58.1337 87.1193 58.4378C87.109 58.6136 87.1358 58.7896 87.198 58.9544C87.2601 59.1192 87.3562 59.2691 87.4801 59.3943C87.6039 59.5195 87.7527 59.6173 87.9168 59.6812C88.0809 59.7451 88.2566 59.7738 88.4325 59.7654C90.7991 59.6789 95.6334 60.3282 98.6205 66.4468Z" fill="#32324C"/>
<path d="M79.0366 84.8313C78.8089 84.809 78.5939 84.716 78.4217 84.5654C78.2494 84.4148 78.1286 84.2141 78.0761 83.9915C78.0236 83.7688 78.0421 83.5352 78.1289 83.3236C78.2158 83.1119 78.3666 82.9327 78.5604 82.8111L81.6918 80.8773L79.2386 79.9682C79.0391 79.8962 78.8648 79.7679 78.7368 79.5989C78.6087 79.4299 78.5324 79.2273 78.5171 79.0158L78.0986 71.9593C78.0888 71.8159 78.1077 71.6721 78.1541 71.5361C78.2005 71.4001 78.2735 71.2747 78.3689 71.1673C78.4643 71.0598 78.5801 70.9724 78.7096 70.9102C78.8391 70.848 78.9797 70.8121 79.1231 70.8048C79.2672 70.795 79.4119 70.8138 79.5487 70.86C79.6855 70.9063 79.8118 70.9791 79.9204 71.0743C80.029 71.1695 80.1178 71.2852 80.1815 71.4148C80.2453 71.5443 80.2829 71.6852 80.292 71.8294L80.6672 78.1644L84.5635 79.6075C84.7569 79.678 84.9264 79.8014 85.0529 79.9638C85.1794 80.1261 85.2577 80.3208 85.2787 80.5255C85.2998 80.7302 85.2628 80.9367 85.1721 81.1215C85.0813 81.3062 84.9404 81.4616 84.7655 81.57L79.7148 84.687C79.5115 84.8103 79.2725 84.8612 79.0366 84.8313Z" fill="#F88968"/>
<path d="M79.9892 100.763C77.8686 100.817 75.7763 100.267 73.9572 99.1753C73.8707 99.1234 73.7954 99.055 73.7355 98.9738C73.6756 98.8927 73.6323 98.8006 73.6082 98.7026C73.5841 98.6047 73.5795 98.503 73.5948 98.4034C73.6101 98.3037 73.645 98.208 73.6975 98.1219C73.7998 97.9488 73.9662 97.8229 74.1607 97.7716C74.3551 97.7203 74.562 97.7476 74.7364 97.8477C76.3057 98.7275 78.0747 99.1895 79.8737 99.1895C81.6728 99.1895 83.4417 98.7275 85.011 97.8477C85.0961 97.7956 85.1906 97.761 85.2891 97.7459C85.3877 97.7307 85.4883 97.7354 85.585 97.7596C85.6818 97.7838 85.7727 97.827 85.8525 97.8867C85.9324 97.9465 85.9995 98.0215 86.05 98.1075C86.1025 98.1936 86.1373 98.2893 86.1526 98.3889C86.168 98.4886 86.1634 98.5903 86.1393 98.6882C86.1151 98.7861 86.0719 98.8783 86.012 98.9594C85.9521 99.0405 85.8767 99.109 85.7903 99.1609C84.013 100.152 82.0234 100.702 79.9892 100.763Z" fill="#F88968"/>
</g>
</svg>
