<svg viewBox="0 0 207 37" fill="none" xmlns="http://www.w3.org/2000/svg">
<path d="M20.631 0.470886V19.1727C20.631 20.0472 19.9501 20.6527 19.133 20.6527H16.8859C16.7497 20.6527 16.6816 20.7873 16.6816 20.8545V36.5291C17.2264 36.5291 17.7711 36.6636 18.3839 36.6636C28.5297 36.6636 36.7688 28.5236 36.7688 18.5C36.7688 9.28361 29.7553 1.54725 20.631 0.470886ZM20.2224 28.4563C18.9287 28.4563 17.9754 27.38 17.9754 26.2363C17.9754 24.9582 19.0649 24.0163 20.2224 24.0163C21.5162 24.0163 22.4695 25.0927 22.4695 26.2363C22.6057 27.4473 21.5162 28.4563 20.2224 28.4563ZM25.6017 28.4563C24.308 28.4563 23.3547 27.38 23.3547 26.2363C23.3547 24.9582 24.4441 24.0163 25.6017 24.0163C26.8955 24.0163 27.8487 25.0927 27.8487 26.2363C27.8487 27.38 26.9635 28.4563 25.6017 28.4563ZM31.0491 28.4563C29.7553 28.4563 28.802 27.38 28.802 26.2363C28.802 24.9582 29.8915 24.0163 31.0491 24.0163C32.3428 24.0163 33.2961 25.0927 33.2961 26.2363C33.2961 27.38 32.3428 28.4563 31.0491 28.4563Z" fill="#00B956"/>
<path d="M18.3849 0.403625C8.23915 0.403625 0 8.54363 0 18.5673C0 27.38 6.19638 34.5782 14.5036 36.26V19.9127C14.5036 19.1727 15.1845 18.5673 15.8655 18.4327H16.6145H18.1125C18.2487 18.4327 18.3168 18.2982 18.3168 18.2309L18.3849 0.403625ZM14.8441 15.3382C13.5503 15.3382 12.597 14.2618 12.597 13.1182C12.597 11.84 13.6865 10.8982 14.8441 10.8982C16.1378 10.8982 17.0911 11.9745 17.0911 13.1182C17.0911 14.2618 16.0697 15.3382 14.8441 15.3382Z" fill="#00B956"/>
<path d="M202.437 10.2927V17.1545H193.177V10.2927H188.479V28.4563H193.177V21.1236H202.437V28.4563H207V10.2927H202.437Z" fill="#00B956"/>
<path d="M125.9 12.3782C125.151 10.7636 123.653 9.88907 122.155 9.88907C120.657 9.88907 119.091 10.7636 118.41 12.3782L110.988 28.5236H115.891L117.525 24.6891H127.058L128.692 28.5236H133.595L125.9 12.3782ZM118.819 21.0563L121.611 14.3963C121.747 14.1945 121.815 14.1945 121.951 14.1945C122.087 14.1945 122.292 14.1945 122.292 14.3963L125.083 21.0563H118.819Z" fill="#00B956"/>
<path d="M71.1553 7.06361C68.9763 7.06361 67.6145 8.20725 66.5931 10.4945L60.6691 24.1509L54.677 10.4272C53.7237 8.20725 52.2938 6.99634 50.1148 6.99634C48.0721 6.99634 46.0293 8.34179 46.0293 11.5036V28.3891H50.5915V12.1091L56.6517 25.6309C57.4007 27.5818 58.8306 28.7254 60.6691 28.7254C62.6438 28.7254 63.9375 27.5818 64.6865 25.6309L70.7467 12.1091V28.5909H75.3089V11.7054C75.2408 8.54361 73.198 7.06361 71.1553 7.06361Z" fill="#00B956"/>
<path d="M83.3438 24.6218C83.1395 24.6218 82.8671 24.42 82.8671 24.1509V20.9218H94.3066V17.2218H82.8671V14.4636C82.8671 14.2618 83.0714 13.9927 83.3438 13.9927H94.7152V10.1581H81.0967C79.4625 10.1581 78.373 11.4363 78.373 12.8491V25.5636C78.373 26.9091 79.5306 28.2545 81.0967 28.2545H94.7152V24.42H83.3438V24.6218Z" fill="#00B956"/>
<path d="M102.41 28.4563V14.5981C102.41 14.3963 102.614 14.1272 102.887 14.1272H114.258V10.2927H100.64C99.0055 10.2927 97.916 11.5709 97.916 12.9836V28.3891L102.41 28.4563Z" fill="#00B956"/>
<path d="M185.482 19.4418C185.482 13.1181 182.69 10.1581 175.744 10.1581H174.11C167.165 10.1581 164.373 13.1854 164.373 19.4418C164.373 25.6309 167.165 28.7254 174.11 28.7254H175.608C182.69 28.5909 185.482 25.6309 185.482 19.4418ZM175.608 24.8909H174.11C170.365 24.8909 168.799 23.2091 168.799 19.4418C168.799 15.8091 170.093 13.9927 174.11 13.9927H175.608C179.489 13.9927 180.919 15.8091 180.919 19.4418C180.919 23.1418 179.489 24.8909 175.608 24.8909Z" fill="#00B956"/>
<path d="M151.64 7.46725H142.515C135.706 7.46725 132.982 10.8982 132.982 16.7509C132.982 17.6927 133.119 18.5673 133.187 19.3073C133.936 23.4782 136.455 26.0345 142.788 26.0345H144.83V28.3891H149.393V26.0345H151.367C157.768 26.0345 160.287 23.4782 160.968 19.3073C161.104 18.5673 161.173 17.6927 161.173 16.7509C161.104 10.8982 158.313 7.46725 151.64 7.46725ZM144.694 22.2673H142.651C139.519 22.2673 138.43 21.1236 137.749 19.24C137.545 18.5673 137.545 17.6254 137.545 16.6836C137.545 12.8491 139.383 11.2345 141.971 11.2345H144.762V22.2673H144.694ZM156.406 19.4418C155.725 21.2582 154.568 22.4691 151.503 22.4691H149.461V11.3691H152.252C154.84 11.3691 156.678 12.9836 156.678 16.8182C156.61 17.8273 156.61 18.6345 156.406 19.4418Z" fill="#00B956"/>
</svg>
