<svg viewBox="0 0 126 45" fill="none" xmlns="http://www.w3.org/2000/svg">
<path d="M62.7316 20.7998C61.8622 20.466 60.725 20.3661 59.4875 20.3661H52.5976V18.23H64.4373V14.5588H47.748V30.4453H59.0528C60.6247 30.4453 61.7949 30.3119 62.6649 29.9778C64.5043 29.277 65.7418 27.575 65.7418 25.3389C65.7418 23.0695 64.5712 21.5007 62.7316 20.7998ZM60.3235 26.3068C60.0561 26.4069 59.6882 26.4402 59.2197 26.4402H52.5976V23.9036H59.2197C59.7551 23.9036 60.1897 23.9372 60.5243 24.104C60.9255 24.3043 61.1263 24.6714 61.1263 25.1385C61.1263 25.6058 60.8922 26.1065 60.3235 26.3068Z" fill="#333333"/>
<path d="M79.3388 14.5588H72.2485L65.7266 30.4453H71.2117L72.1146 28.1424H79.4725L80.4091 30.4453H85.8608L79.3388 14.5588ZM73.3185 24.6379L75.6266 18.23H75.9944L78.302 24.6379H73.3185Z" fill="#333333"/>
<path d="M92.1033 24.5381V30.4454H87.2539V14.5588H92.1033V20.3662H99.8961V14.5588H104.746V30.4454H99.8961V24.5381H92.1033Z" fill="#333333"/>
<path d="M112.422 24.4381V30.4454H107.572V14.5588H112.422V20.5331H113.76L119.613 14.5588H125.699L117.94 22.1683L126.001 30.4454H119.546L113.76 24.4381H112.422Z" fill="#333333"/>
<path d="M0 5.29413H38.4632V23.2741C38.4632 28.2227 35.8177 32.7956 31.5233 35.2701L19.2317 42.353L6.93989 35.2701C2.64543 32.7956 4.40837e-06 28.2227 4.40837e-06 23.2741L0 5.29413Z" fill="#FFDD2D"/>
<path fill-rule="evenodd" clip-rule="evenodd" d="M10.6113 14.5588V20.5249C11.4289 19.6036 12.9153 18.9802 14.6149 18.9802H16.4618V25.9156C16.4618 27.7608 15.9594 29.5675 15.214 30.4559H23.2479C22.5041 29.5666 22.0029 27.7621 22.0029 25.9192V18.9802H23.8499C25.5495 18.9802 27.0359 19.6036 27.8534 20.5249V14.5588H10.6113Z" fill="#333333"/>
</svg>
