<svg viewBox="0 0 96 30" fill="none" xmlns="http://www.w3.org/2000/svg">
<g clip-path="url(#clip0_11_187)">
<mask id="mask0_11_187" style="mask-type:luminance" maskUnits="userSpaceOnUse" x="0" y="0" width="96" height="29">
<path d="M96.0008 0.000244141H0.0273438V28.9855H96.0008V0.000244141Z" fill="white"/>
</mask>
<g mask="url(#mask0_11_187)">
<path d="M10.7728 8.02832H2.18174H0.0253906V20.6536H2.18174V9.97427H10.7728V20.6536H12.9292V8.02832H10.7728Z" fill="black"/>
<path d="M13.1211 15.9928C13.1211 12.701 15.0041 10.6385 18.6137 10.6385C22.2347 10.6385 24.1003 12.701 24.1003 15.9928C24.1003 19.2671 22.2347 21.3063 18.6137 21.3063C15.0041 21.3063 13.1211 19.2613 13.1211 15.9928ZM22.1593 15.9928C22.1593 13.5866 20.8221 12.4155 18.6077 12.4155C16.4107 12.4155 15.074 13.5924 15.074 15.9928C15.074 18.364 16.4107 19.5351 18.6077 19.5351C20.8166 19.5351 22.1593 18.3582 22.1593 15.9928Z" fill="black"/>
<path d="M30.0156 15.9928C30.0156 12.701 31.8986 10.6385 35.5023 10.6385C39.1237 10.6385 40.9893 12.701 40.9893 15.9928C40.9893 19.2671 39.1237 21.3063 35.5023 21.3063C31.8986 21.3063 30.0156 19.2613 30.0156 15.9928ZM39.0538 15.9928C39.0538 13.5866 37.7171 12.4155 35.5023 12.4155C33.3052 12.4155 31.9685 13.5924 31.9685 15.9928C31.9685 18.364 33.3112 19.5351 35.5023 19.5351C37.7112 19.5351 39.0538 18.3582 39.0538 15.9928Z" fill="black"/>
<path d="M50.4355 15.9928C50.4355 12.701 52.3185 10.6385 55.9281 10.6385C59.5491 10.6385 61.4152 12.701 61.4152 15.9928C61.4152 19.2671 59.5491 21.3063 55.9281 21.3063C52.3245 21.3063 50.4355 19.2613 50.4355 15.9928ZM59.4737 15.9928C59.4737 13.5866 58.137 12.4155 55.9222 12.4155C53.7251 12.4155 52.3885 13.5924 52.3885 15.9928C52.3885 18.364 53.7251 19.5351 55.9222 19.5351C58.137 19.5351 59.4737 18.3582 59.4737 15.9928Z" fill="black"/>
<path d="M50.3835 18.1425C50.3835 19.8729 48.8663 20.7818 46.6052 20.7818H41.2754V11.1627H46.2103C48.32 11.1627 49.8368 12.0309 49.8368 13.6097C49.8368 14.7109 49.0637 15.7014 47.6516 15.7945C49.1396 15.8936 50.3835 16.5811 50.3835 18.1425ZM43.205 15.1129H45.7335C47.024 15.1129 47.8839 14.9264 47.8839 13.8719C47.8839 12.8174 47.024 12.7474 45.7335 12.7474H43.205V15.1129ZM48.384 17.9794C48.384 16.8957 47.5177 16.6568 46.0823 16.6568H43.2109V19.3019H46.0823C47.5177 19.3019 48.384 19.063 48.384 17.9794Z" fill="black"/>
<path d="M24.3457 20.7819V11.1628H28.2401H30.7393V12.7476H26.2812V17.0998V20.7819H24.3457Z" fill="black"/>
<path d="M63.6945 18.964V24.1726H61.6543V11.0928H62.724L63.6945 12.8057C64.5142 11.5997 65.636 10.7433 67.6762 10.7433C70.7798 10.7433 72.8374 12.7708 72.8374 15.882C72.8374 18.9756 70.7798 21.0207 67.6762 21.0207C65.636 21.0265 64.5142 20.1701 63.6945 18.964ZM63.6945 15.4858V16.2957C63.9153 18.4979 65.5661 19.2787 67.1528 19.2787C69.2452 19.2787 70.8497 18.0726 70.8497 15.8878C70.8497 13.703 69.0943 12.4795 67.1528 12.4795C65.5661 12.4736 63.9446 13.4991 63.6945 15.4858Z" fill="black"/>
<path d="M83.8385 11.2094V20.7876H82.5658L81.7983 18.9348C80.9612 20.2982 79.3919 21.1372 77.4389 21.1372C74.5269 21.1372 73.0801 19.2669 73.0801 16.6801V11.2094H75.1025V16.5403C75.1025 18.428 76.0616 19.4417 77.9624 19.4417C79.6012 19.4417 80.9791 18.6727 81.7983 17.0996V11.2094H83.8385Z" fill="black"/>
<path d="M94.7555 11.1976V20.7992H92.9068V13.9534L88.35 20.5312H88.2513L83.6945 13.8485V20.7992H82.6714L81.9043 18.9406V11.1976H83.886L88.3326 17.7346L92.7793 11.1976H94.7555Z" fill="black"/>
<path d="M90.4133 24.1727C90.4133 25.2739 89.5237 26.1653 88.4252 26.1653C87.3266 26.1653 86.4375 25.2739 86.4375 24.1727C86.4375 23.0716 87.3266 22.1802 88.4252 22.1802C89.5237 22.1802 90.4133 23.0716 90.4133 24.1727Z" fill="#B8362D"/>
<path d="M95.9987 24.1726C95.9987 25.2737 95.1096 26.1651 94.0111 26.1651C92.9126 26.1651 92.0234 25.2737 92.0234 24.1726C92.0234 23.0715 92.9126 22.1801 94.0111 22.1801C95.1096 22.1801 95.9987 23.0715 95.9987 24.1726Z" fill="black"/>
<path d="M84.8234 24.1727C84.8234 25.2739 83.9343 26.1653 82.8358 26.1653C81.7373 26.1653 80.8477 25.2739 80.8477 24.1727C80.8477 23.0716 81.7373 22.1802 82.8358 22.1802C83.9343 22.1802 84.8234 23.0716 84.8234 24.1727Z" fill="#64AB8A"/>
<path d="M88.4727 2.26038H89.4144V5.23172H93.8144V2.26038H94.7561V9.47904H93.8144V6.0474H89.4144V9.47904H88.4727V2.26038Z" fill="black"/>
<path d="M61.6133 2.26038H62.555V5.23172H66.955V2.26038H67.8962V9.47904H66.955V6.0474H62.555V9.47904H61.6133V2.26038Z" fill="black"/>
<path d="M82.8687 9.40907C82.4385 9.52561 82.2525 9.55471 81.9969 9.55471C81.3807 9.55471 81.0552 9.14107 81.0552 8.33121C80.1135 9.3508 79.3172 9.68871 77.9051 9.68871C76.167 9.68871 75.0918 8.87889 75.0918 7.57966C75.0918 6.72321 75.4753 6.13475 76.2717 5.77934C76.6379 5.61621 77.1434 5.49971 78.0678 5.38316L79.5732 5.17925C80.7064 5.01611 81.0433 4.79475 81.0433 4.18881C81.0433 3.34984 80.2936 2.90122 78.9048 2.90122C77.2248 2.90122 76.4577 3.40228 76.3412 4.60248H75.3825C75.4986 3.82176 75.6495 3.43723 75.9983 3.05271C76.6031 2.34191 77.4689 2.06226 78.9455 2.06226C80.2589 2.06226 81.0959 2.35939 81.5668 3.0061C81.8923 3.43723 81.9503 3.74602 81.9503 4.86466V8.11566C81.9503 8.5468 82.0957 8.75071 82.4212 8.75071C82.5258 8.75071 82.6593 8.72157 82.8628 8.6633V9.40907H82.8687ZM81.0552 6.07066C81.0552 5.82016 81.0726 5.71525 81.084 5.45311C80.7005 5.72111 80.4042 5.82016 79.4045 5.9833L78.0618 6.18721C76.4984 6.43771 76.0276 6.74652 76.0276 7.51557C76.0276 8.38948 76.7658 8.89052 78.0326 8.89052C79.079 8.89052 80.0088 8.50602 80.6424 7.79521C80.9505 7.42816 81.0378 7.23589 81.0378 6.82225L81.0552 6.07066Z" fill="black"/>
<path d="M61.3266 5.93661C61.3266 8.09229 59.6932 9.68865 57.4669 9.68865C55.2004 9.68865 53.6191 8.13888 53.6191 5.90747C53.6191 3.61778 55.2118 2.05054 57.5076 2.05054C59.7631 2.05636 61.3266 3.63526 61.3266 5.93661ZM54.5609 5.8667C54.5609 7.6087 55.7814 8.8497 57.5076 8.8497C59.141 8.8497 60.3675 7.59706 60.3675 5.91329C60.3675 4.15379 59.1757 2.90116 57.4962 2.90116C55.7988 2.89534 54.5609 4.15379 54.5609 5.8667Z" fill="black"/>
<path d="M72.1396 2.26038L75.4411 9.48486H74.4121L72.3197 4.84722C72.157 4.48015 72.023 4.16554 71.6281 3.14596C71.3026 4.01989 71.1398 4.43354 70.9364 4.90545L68.9021 9.48486H67.9023L71.1572 2.26038H72.1396Z" fill="black"/>
<path d="M88.5475 9.4848V7.96416C88.2106 8.48271 87.9898 8.71575 87.6177 8.9663C87.0307 9.37993 86.1877 9.6188 85.3507 9.6188C83.5084 9.6188 82.5781 8.76234 82.5781 7.06112V2.26034H83.5372V6.85139C83.5372 8.19721 84.1708 8.80316 85.5715 8.80316C86.7633 8.80316 87.7978 8.27298 88.2513 7.42816C88.3966 7.14853 88.4721 6.79312 88.4721 6.33284V2.25452H89.4138V9.47898H88.5475V9.4848Z" fill="black"/>
</g>
</g>
<defs>
<clipPath id="clip0_11_187">
<rect width="96" height="30" fill="white"/>
</clipPath>
</defs>
</svg>
