<svg viewBox="0 0 60 60" fill="none" xmlns="http://www.w3.org/2000/svg">
<mask id="mask0_73_1158" style="mask-type:alpha" maskUnits="userSpaceOnUse" x="0" y="0" width="60" height="60">
<circle cx="30" cy="30" r="30" fill="#FFDD2D"/>
</mask>
<g mask="url(#mask0_73_1158)">
<mask id="mask1_73_1158" style="mask-type:alpha" maskUnits="userSpaceOnUse" x="0" y="0" width="60" height="60">
<circle cx="30" cy="30" r="30" fill="#FFDD2D"/>
</mask>
<g mask="url(#mask1_73_1158)">
<path d="M36.1443 52.258L35.9387 56.0933L35.6857 60.8933C35.6857 60.8933 34.7288 62.7042 30.427 62.7042C26.1252 62.7042 25.2395 61.4627 25.2395 61.4627L25.0656 59.3355L24.4883 52.2185L36.1443 52.258Z" fill="#FFAF82"/>
<path d="M36.1443 52.258L35.9387 56.0933C34.1437 57.4376 29.8972 60.0472 25.0656 59.3355L24.4883 52.2185L36.1443 52.258Z" fill="#F88968"/>
<path d="M17.1382 34.8294C17.1382 34.8294 13.8486 31.603 11.2074 33.7065C8.09965 36.1895 11.3497 45.1411 16.8693 44.1922L17.1382 34.8294Z" fill="#FFA378"/>
<path d="M15.2139 41.9698C15.0785 41.9662 14.9493 41.9125 14.8514 41.8189C14.7535 41.7254 14.6938 41.5988 14.6841 41.4637C14.3361 37.0591 11.7503 36.3 11.6475 36.2683C11.507 36.2316 11.3868 36.1406 11.3134 36.0153C11.24 35.89 11.2194 35.7406 11.2561 35.6001C11.2928 35.4596 11.3838 35.3394 11.5091 35.266C11.6344 35.1926 11.7837 35.172 11.9243 35.2087C12.0587 35.2482 15.3562 36.1576 15.7753 41.3767C15.7818 41.4484 15.7741 41.5207 15.7525 41.5894C15.731 41.6581 15.696 41.7219 15.6497 41.777C15.6034 41.8321 15.5467 41.8776 15.4827 41.9106C15.4188 41.9437 15.3489 41.9639 15.2771 41.9698H15.2139Z" fill="#F88968"/>
<path d="M12.1348 39.7242C12.002 39.7185 11.8757 39.6652 11.779 39.574C11.7254 39.523 11.6827 39.4617 11.6536 39.3937C11.6244 39.3258 11.6094 39.2526 11.6094 39.1786C11.6094 39.1046 11.6244 39.0315 11.6536 38.9635C11.6827 38.8955 11.7254 38.8342 11.779 38.7832C12.1653 38.4189 12.6384 38.1594 13.1533 38.0293C13.6681 37.8992 14.2076 37.9028 14.7207 38.0399C14.7903 38.0575 14.8557 38.0887 14.9132 38.1317C14.9707 38.1746 15.0192 38.2284 15.0559 38.2901C15.0927 38.3518 15.1169 38.4201 15.1272 38.4912C15.1375 38.5622 15.1337 38.6346 15.1161 38.7041C15.0984 38.7737 15.0672 38.8391 15.0243 38.8967C14.9814 38.9542 14.9275 39.0027 14.8658 39.0394C14.8041 39.0761 14.7358 39.1003 14.6648 39.1106C14.5938 39.121 14.5214 39.1172 14.4518 39.0995C14.127 39.0058 13.7837 38.9965 13.4543 39.0726C13.1249 39.1487 12.8205 39.3077 12.5698 39.5345C12.5159 39.5964 12.4489 39.6455 12.3737 39.6783C12.2985 39.7111 12.2169 39.7268 12.1348 39.7242Z" fill="#F88968"/>
<path d="M42.3164 34.8292C42.3164 34.8292 45.6139 31.6028 48.2472 33.7063C51.355 36.1893 48.1049 45.1409 42.5853 44.1919L42.3164 34.8292Z" fill="#FFA378"/>
<path d="M44.2629 41.9699C44.3983 41.9663 44.5275 41.9125 44.6254 41.819C44.7233 41.7254 44.783 41.5988 44.7927 41.4638C45.1407 37.0591 47.7265 36.3 47.8372 36.2684C47.9777 36.2306 48.0975 36.1386 48.1701 36.0125C48.2428 35.8865 48.2624 35.7367 48.2247 35.5962C48.1869 35.4557 48.0949 35.3359 47.9689 35.2633C47.8428 35.1906 47.693 35.171 47.5525 35.2087C47.4181 35.2483 44.1206 36.1577 43.7015 41.3768C43.6949 41.4485 43.7027 41.5208 43.7243 41.5895C43.7458 41.6582 43.7808 41.7219 43.8271 41.777C43.8734 41.8322 43.9301 41.8776 43.9941 41.9107C44.058 41.9438 44.1279 41.9639 44.1996 41.9699H44.2629Z" fill="#F88968"/>
<path d="M47.3456 39.7242C47.4788 39.72 47.6056 39.6664 47.7015 39.574C47.7551 39.523 47.7978 39.4617 47.8269 39.3937C47.8561 39.3258 47.8711 39.2526 47.8711 39.1786C47.8711 39.1046 47.8561 39.0315 47.8269 38.9635C47.7978 38.8955 47.7551 38.8342 47.7015 38.7832C47.3152 38.4189 46.8421 38.1594 46.3273 38.0293C45.8124 37.8992 45.2729 37.9028 44.7598 38.0399C44.6902 38.0575 44.6248 38.0887 44.5673 38.1317C44.5098 38.1746 44.4613 38.2284 44.4245 38.2901C44.3878 38.3518 44.3637 38.4201 44.3533 38.4912C44.343 38.5622 44.3468 38.6346 44.3644 38.7041C44.3821 38.7737 44.4133 38.8391 44.4562 38.8967C44.4991 38.9542 44.553 39.0027 44.6147 39.0394C44.6763 39.0761 44.7447 39.1003 44.8157 39.1106C44.8868 39.121 44.9591 39.1172 45.0287 39.0995C45.3535 39.0058 45.6968 38.9965 46.0262 39.0726C46.3555 39.1487 46.66 39.3077 46.9107 39.5345C46.9646 39.5964 47.0316 39.6455 47.1068 39.6783C47.1821 39.7111 47.2636 39.7268 47.3456 39.7242Z" fill="#F88968"/>
<path d="M29.9011 56.0221C18.5139 56.0221 14.995 42.4841 13.9433 32.5756C13.7133 30.4152 13.9362 28.2305 14.5978 26.161C15.2593 24.0914 16.345 22.1825 17.7855 20.556C19.226 18.9295 20.9897 17.6211 22.9641 16.7143C24.9385 15.8075 27.0802 15.3222 29.2527 15.2893H30.0435C32.1987 15.3107 34.3263 15.7772 36.2929 16.6593C38.2595 17.5415 40.0227 18.8204 41.4719 20.4159C42.9211 22.0113 44.0251 23.8889 44.7147 25.931C45.4043 27.9731 45.6646 30.1357 45.4794 32.2831C44.57 42.318 41.2962 56.0221 29.9011 56.0221Z" fill="#FFAF82"/>
<path d="M44.5129 8.24343C50.2935 12.1973 45.0664 19.9074 45.0664 19.9074C45.0664 19.9074 50.8233 25.5377 44.9004 38.799L43.8407 38.5855C44.3428 35.1931 44.3428 31.7452 43.8407 28.3528C43.05 25.9331 38.7877 24.6362 39.0012 22.0266C39.0012 22.0266 25.9613 26.0991 18.9076 22.0978C18.5419 24.102 17.6862 25.9846 16.4167 27.5779C14.7956 29.3492 15.7129 35.4856 15.9264 38.198L14.843 38.3008C14.2025 35.5805 12.6289 30.6777 12.4707 29.2385C12.3679 28.3291 11.9804 24.7153 11.8143 22.1215C11.6321 19.8671 12.061 17.6052 13.0559 15.5739C13.6201 14.3814 14.4539 13.3364 15.4914 12.5215C19.3109 9.69845 39.2701 4.65331 44.5129 8.24343Z" fill="#32324C"/>
<path d="M37.3954 42.7134C37.2553 43.1393 37.078 43.5521 36.8656 43.947C36.2441 45.1403 35.3434 46.1658 34.2403 46.9361C34.0821 47.0389 33.9239 47.1417 33.7579 47.2366C32.7039 47.8127 31.519 48.1069 30.318 48.0907C29.2276 48.1052 28.1474 47.8784 27.1549 47.4264C27.0047 47.3552 26.8623 47.2761 26.72 47.1971C25.5967 46.5487 24.6639 45.6159 24.0155 44.4926C23.7587 44.0554 23.5442 43.5947 23.375 43.1167C23.375 43.1167 23.5806 43.2353 23.9365 43.4014C25.8985 44.3003 28.0334 44.7591 30.1915 44.7457H30.4524C32.6382 44.6718 34.7802 44.1126 36.7233 43.1088C37.1424 42.8794 37.3717 42.7292 37.3954 42.7134Z" fill="#920E08"/>
<path d="M33.7592 47.2366C32.7053 47.8127 31.5204 48.1069 30.3193 48.0906C29.2289 48.1052 28.1487 47.8783 27.1562 47.4263C28.2019 46.8915 29.367 46.6329 30.5408 46.6751C31.6388 46.6647 32.7296 46.855 33.7592 47.2366Z" fill="#F85C66"/>
<path d="M37.3954 42.7134C37.2553 43.1393 37.078 43.5521 36.8656 43.947C34.9626 45.109 32.7688 45.7068 30.5394 45.6709C28.3088 45.7063 26.0928 45.3061 24.0155 44.4926C23.7587 44.0554 23.5442 43.5947 23.375 43.1167C23.375 43.1167 23.5806 43.2353 23.9365 43.4014C25.8985 44.3003 28.0334 44.7591 30.1915 44.7457H30.4524C32.6382 44.6718 34.7802 44.1126 36.7233 43.1088C37.1424 42.8794 37.3717 42.7292 37.3954 42.7134Z" fill="white"/>
<path d="M24.5702 34.8055C24.5702 35.9442 24.0641 36.8694 23.4394 36.8694C22.8147 36.8694 22.3086 35.9442 22.3086 34.8055C22.3086 33.6668 22.8147 32.7495 23.4394 32.7495C24.0641 32.7495 24.5702 33.7063 24.5702 34.8055Z" fill="#32324C"/>
<path d="M19.4609 31.5633C19.6395 30.1087 20.3699 28.7782 21.5011 27.8466C22.6166 27.0078 24.0149 26.6362 25.3996 26.8107C25.5637 26.8388 25.7126 26.9241 25.8197 27.0515C25.9268 27.1789 25.9853 27.3401 25.9848 27.5066C25.9845 27.6061 25.963 27.7045 25.9218 27.7951C25.8806 27.8858 25.8207 27.9667 25.746 28.0324C25.6713 28.0982 25.5834 28.1474 25.4883 28.1767C25.3931 28.206 25.2928 28.2148 25.1941 28.2025C23.9367 28.0839 21.2718 28.3053 19.4609 31.5633Z" fill="#32324C"/>
<path d="M35.6797 34.8055C35.6797 35.9442 36.1858 36.8694 36.8105 36.8694C37.4352 36.8694 37.9492 35.9442 37.9492 34.8055C37.9492 33.6668 37.4431 32.7495 36.8105 32.7495C36.1779 32.7495 35.6797 33.7063 35.6797 34.8055Z" fill="#32324C"/>
<path d="M40.6591 31.7215C40.5557 30.2597 39.8964 28.893 38.8166 27.9021C37.746 27.0045 36.3665 26.5617 34.9735 26.6685C34.8076 26.6857 34.6536 26.7625 34.5402 26.8847C34.4267 27.0069 34.3615 27.1661 34.3567 27.3327C34.351 27.4291 34.3657 27.5255 34.3997 27.6158C34.4338 27.7061 34.4865 27.7883 34.5543 27.8569C34.6222 27.9255 34.7037 27.9791 34.7936 28.0141C34.8836 28.0491 34.9799 28.0649 35.0763 28.0603C36.3731 28.0128 39.0222 28.3687 40.6591 31.7215Z" fill="#32324C"/>
<path d="M29.933 41.7961C29.8082 41.7839 29.6904 41.7329 29.596 41.6504C29.5016 41.5679 29.4354 41.4579 29.4067 41.3359C29.3779 41.2138 29.388 41.0859 29.4356 40.9699C29.4832 40.8539 29.5658 40.7557 29.672 40.689L31.388 39.6294L30.0437 39.1312C29.9344 39.0918 29.8388 39.0215 29.7687 38.9288C29.6985 38.8362 29.6567 38.7252 29.6483 38.6093L29.419 34.7424C29.4136 34.6639 29.424 34.585 29.4494 34.5105C29.4748 34.436 29.5148 34.3673 29.5671 34.3084C29.6194 34.2495 29.6828 34.2016 29.7538 34.1675C29.8247 34.1334 29.9018 34.1138 29.9804 34.1098C30.0594 34.1044 30.1386 34.1147 30.2136 34.14C30.2886 34.1654 30.3578 34.2053 30.4173 34.2574C30.4768 34.3096 30.5254 34.373 30.5604 34.444C30.5953 34.515 30.6159 34.5923 30.6209 34.6712L30.8265 38.1427L32.9616 38.9335C33.0676 38.9721 33.1605 39.0398 33.2298 39.1288C33.2991 39.2177 33.342 39.3244 33.3536 39.4366C33.3651 39.5488 33.3449 39.6619 33.2951 39.7632C33.2454 39.8644 33.1682 39.9496 33.0723 40.009L30.3046 41.717C30.1932 41.7846 30.0622 41.8125 29.933 41.7961Z" fill="#F88968"/>
<path d="M30.4581 50.5261C29.296 50.5559 28.1495 50.2542 27.1527 49.6562C27.1053 49.6278 27.064 49.5903 27.0312 49.5458C26.9983 49.5014 26.9746 49.4509 26.9614 49.3972C26.9482 49.3436 26.9457 49.2878 26.9541 49.2332C26.9625 49.1786 26.9816 49.1262 27.0103 49.079C27.0664 48.9841 27.1576 48.9151 27.2642 48.887C27.3707 48.8589 27.4841 48.8739 27.5797 48.9287C28.4396 49.4108 29.409 49.664 30.3948 49.664C31.3807 49.664 32.3501 49.4108 33.21 48.9287C33.2566 48.9002 33.3084 48.8812 33.3624 48.8729C33.4164 48.8646 33.4715 48.8672 33.5245 48.8804C33.5776 48.8937 33.6274 48.9174 33.6711 48.9501C33.7149 48.9828 33.7517 49.024 33.7794 49.0711C33.8081 49.1183 33.8272 49.1707 33.8356 49.2253C33.844 49.2799 33.8415 49.3357 33.8283 49.3893C33.815 49.443 33.7913 49.4935 33.7585 49.5379C33.7257 49.5824 33.6844 49.6199 33.637 49.6483C32.6631 50.1917 31.5728 50.4928 30.4581 50.5261Z" fill="#F88968"/>
</g>
</g>
</svg>
