<svg width="731" height="248" viewBox="0 0 731 248" fill="none" xmlns="http://www.w3.org/2000/svg">
<g clip-path="url(#clip0_1944_7)">
<path d="M17.7 146.854C14.3 146.854 11 146.434 7.8 145.594C4.6 144.754 2 143.634 0 142.234L3.90001 133.474C5.78001 134.714 7.96 135.714 10.44 136.474C12.92 137.234 15.36 137.614 17.76 137.614C22.32 137.614 24.6 136.474 24.6 134.194C24.6 132.994 23.94 132.114 22.62 131.554C21.34 130.954 19.26 130.334 16.38 129.694C13.22 129.014 10.58 128.294 8.46001 127.534C6.34001 126.734 4.52 125.474 3 123.754C1.48 122.034 0.720001 119.714 0.720001 116.794C0.720001 114.234 1.42001 111.934 2.82001 109.894C4.22001 107.814 6.30001 106.174 9.06001 104.974C11.86 103.774 15.28 103.174 19.32 103.174C22.08 103.174 24.8 103.494 27.48 104.134C30.16 104.734 32.52 105.634 34.56 106.834L30.9 115.654C26.9 113.494 23.02 112.414 19.26 112.414C16.9 112.414 15.18 112.774 14.1 113.494C13.02 114.174 12.48 115.074 12.48 116.194C12.48 117.314 13.12 118.154 14.4 118.714C15.68 119.274 17.74 119.854 20.58 120.454C23.78 121.134 26.42 121.874 28.5 122.674C30.62 123.434 32.44 124.674 33.96 126.394C35.52 128.074 36.3 130.374 36.3 133.294C36.3 135.814 35.6 138.094 34.2 140.134C32.8 142.174 30.7 143.814 27.9 145.054C25.1 146.254 21.7 146.854 17.7 146.854ZM87.748 104.014V146.014H75.868V129.634H59.668V146.014H47.788V104.014H59.668V119.794H75.868V104.014H87.748ZM118.328 130.774L113.888 135.514V146.014H102.128V104.014H113.888V121.474L130.148 104.014H143.228L126.068 122.614L144.128 146.014H130.328L118.328 130.774ZM172.039 146.854C165.799 146.854 160.939 145.154 157.459 141.754C154.019 138.354 152.299 133.534 152.299 127.294V104.014H164.179V126.934C164.179 133.654 166.839 137.014 172.159 137.014C177.439 137.014 180.079 133.654 180.079 126.934V104.014H191.779V127.294C191.779 133.534 190.039 138.354 186.559 141.754C183.119 145.154 178.279 146.854 172.039 146.854ZM205.827 104.014H217.707V136.594H237.747V146.014H205.827V104.014ZM282.168 136.834V146.014H248.448V104.014H281.388V113.194H260.208V120.274H278.868V129.154H260.208V136.834H282.168ZM336.774 104.014L318.774 146.014H307.074L289.134 104.014H301.974L313.374 131.374L325.014 104.014H336.774Z" fill="#284CA6"/>
<path d="M404.141 104.012V146.012H399.761V126.632H373.481V146.012H369.041V104.012H373.481V122.732H399.761V104.012H404.141ZM442.21 146.372C438.05 146.372 434.27 145.452 430.87 143.612C427.51 141.732 424.87 139.172 422.95 135.932C421.07 132.692 420.13 129.052 420.13 125.012C420.13 120.972 421.07 117.332 422.95 114.092C424.87 110.852 427.51 108.312 430.87 106.472C434.27 104.592 438.05 103.652 442.21 103.652C446.37 103.652 450.11 104.572 453.43 106.412C456.79 108.252 459.43 110.812 461.35 114.092C463.27 117.332 464.23 120.972 464.23 125.012C464.23 129.052 463.27 132.712 461.35 135.992C459.43 139.232 456.79 141.772 453.43 143.612C450.11 145.452 446.37 146.372 442.21 146.372ZM442.21 142.412C445.53 142.412 448.53 141.672 451.21 140.192C453.89 138.672 455.99 136.592 457.51 133.952C459.03 131.272 459.79 128.292 459.79 125.012C459.79 121.732 459.03 118.772 457.51 116.132C455.99 113.452 453.89 111.372 451.21 109.892C448.53 108.372 445.53 107.612 442.21 107.612C438.89 107.612 435.87 108.372 433.15 109.892C430.47 111.372 428.35 113.452 426.79 116.132C425.27 118.772 424.51 121.732 424.51 125.012C424.51 128.292 425.27 131.272 426.79 133.952C428.35 136.592 430.47 138.672 433.15 140.192C435.87 141.672 438.89 142.412 442.21 142.412ZM480.182 104.012H484.622V142.172H508.142V146.012H480.182V104.012ZM521.514 104.012H538.614C543.054 104.012 546.974 104.912 550.374 106.712C553.774 108.472 556.414 110.952 558.294 114.152C560.174 117.312 561.114 120.932 561.114 125.012C561.114 129.092 560.174 132.732 558.294 135.932C556.414 139.092 553.774 141.572 550.374 143.372C546.974 145.132 543.054 146.012 538.614 146.012H521.514V104.012ZM538.374 142.172C542.054 142.172 545.274 141.452 548.034 140.012C550.794 138.532 552.934 136.512 554.454 133.952C555.974 131.352 556.734 128.372 556.734 125.012C556.734 121.652 555.974 118.692 554.454 116.132C552.934 113.532 550.794 111.512 548.034 110.072C545.274 108.592 542.054 107.852 538.374 107.852H525.954V142.172H538.374ZM577.084 104.012H581.524V146.012H577.084V104.012ZM636.29 104.012V146.012H632.63L605.63 111.932V146.012H601.189V104.012H604.85L631.91 138.092V104.012H636.29ZM685.58 125.012H689.84V141.032C687.88 142.752 685.56 144.072 682.88 144.992C680.2 145.912 677.38 146.372 674.42 146.372C670.22 146.372 666.44 145.452 663.08 143.612C659.72 141.772 657.08 139.232 655.16 135.992C653.24 132.712 652.28 129.052 652.28 125.012C652.28 120.972 653.24 117.332 655.16 114.092C657.08 110.812 659.72 108.252 663.08 106.412C666.44 104.572 670.24 103.652 674.48 103.652C677.68 103.652 680.62 104.172 683.3 105.212C685.98 106.212 688.24 107.712 690.08 109.712L687.32 112.532C684 109.252 679.78 107.612 674.66 107.612C671.26 107.612 668.18 108.372 665.42 109.892C662.7 111.372 660.56 113.452 659 116.132C657.44 118.772 656.66 121.732 656.66 125.012C656.66 128.292 657.44 131.252 659 133.892C660.56 136.532 662.7 138.612 665.42 140.132C668.14 141.652 671.2 142.412 674.6 142.412C678.92 142.412 682.58 141.332 685.58 139.172V125.012Z" fill="black"/>
<path fill-rule="evenodd" clip-rule="evenodd" d="M479.766 0.5H730.241V247.5H479.766V182.445H486.766V240.5H723.241V7.5H486.766V64.981H479.766V0.5Z" fill="#284CA6"/>
</g>
<defs>
<clipPath id="clip0_1944_7">
<rect width="731" height="248" fill="white"/>
</clipPath>
</defs>
</svg>
